<svg width="1056" height="1006" viewBox="0 0 1056 1006" fill="none" xmlns="http://www.w3.org/2000/svg">
<rect width="1056" height="1006" fill="#1E1E1E"/>
<g clip-path="url(#clip0_0_1)">
<rect width="1056" height="1006" fill="#FFE8D6"/>
<g filter="url(#filter0_d_0_1)">
<ellipse cx="480" cy="559" rx="545" ry="538" fill="#FFB082"/>
<path d="M480 16C783.695 16 1030 259.049 1030 559C1030 858.951 783.695 1102 480 1102C176.305 1102 -70 858.951 -70 559C-70 259.049 176.305 16 480 16Z" stroke="#492110" stroke-width="10"/>
</g>
<path d="M480 146C711.475 146 899 330.973 899 559C899 787.027 711.475 972 480 972C248.525 972 61 787.027 61 559C61 330.973 248.525 146 480 146Z" fill="#FFCBAE" stroke="#492110" stroke-width="10"/>
<path d="M547 199C716.091 222.942 803.455 374.976 826 448" stroke="#492110" stroke-width="10"/>
<path d="M820.759 450C820.759 449.99 820.759 449.944 820.752 449.874C820.742 449.783 820.628 449.752 820.567 449.693C820.503 449.63 820.438 449.567 820.379 449.502C820.313 449.429 820.272 449.34 820.219 449.257C820.164 449.172 820.112 449.092 820.046 449.009C819.982 448.928 819.942 448.839 819.895 448.761C819.845 448.678 819.805 448.586 819.74 448.452C819.676 448.321 819.645 448.224 819.594 448.139C819.537 448.045 819.47 447.884 819.392 447.744C819.334 447.641 819.255 447.538 819.173 447.411C819.116 447.324 819.017 447.182 818.946 447.073C818.881 446.973 818.817 446.836 818.749 446.704C818.658 446.528 818.574 446.304 818.513 446.164C818.44 445.997 818.37 445.706 818.311 445.517C818.277 445.407 818.262 445.312 818.231 445.202C818.184 445.035 818.17 444.93 818.143 444.83C818.101 444.67 818.082 444.543 818.068 444.417C818.05 444.263 818.024 444.141 818.002 444.037C817.998 444.017 818 443.996 818.014 444.001C818.126 444.038 818.16 444.145 818.218 444.207C818.277 444.269 818.32 444.356 818.352 444.442C818.387 444.535 818.442 444.604 818.469 444.687C818.497 444.773 818.544 444.852 818.583 444.935C818.622 445.018 818.661 445.1 818.688 445.183C818.716 445.269 818.763 445.348 818.781 445.43C818.801 445.527 818.871 445.596 818.917 445.678C818.962 445.759 819.007 445.843 819.053 445.924C819.098 446.002 819.158 446.086 819.209 446.161C819.258 446.234 819.313 446.339 819.401 446.496C819.541 446.75 819.566 446.845 819.62 446.92C819.675 446.998 819.737 447.067 819.783 447.152C819.841 447.258 819.926 447.346 819.985 447.413C820.041 447.478 820.102 447.537 820.162 447.599C820.231 447.669 820.32 447.769 820.398 447.865C820.476 447.96 820.549 448.017 820.61 448.082C820.672 448.147 820.729 448.229 820.841 448.353C820.937 448.458 821.007 448.528 821.077 448.59C821.143 448.648 821.221 448.699 821.308 448.748C821.384 448.79 821.454 448.843 821.532 448.885C821.61 448.926 821.688 448.967 821.778 448.993C821.857 449.016 821.936 449.019 822.033 449.05C822.202 449.104 822.286 449.081 822.391 449.089C822.487 449.096 822.564 449.127 822.693 449.135C822.794 449.141 822.909 449.164 823.065 449.176C823.376 449.202 823.609 449.195 823.877 449.207C824.515 449.238 824.593 449.184 824.734 449.177C824.843 449.171 824.958 449.148 825.055 449.122C825.155 449.096 825.274 449.102 825.372 449.086C825.464 449.072 825.581 449.05 825.666 449.027C825.754 449.003 825.834 448.993 825.924 448.965C826.012 448.937 826.111 448.926 826.202 448.911C826.286 448.896 826.389 448.849 826.498 448.833C826.606 448.818 826.681 448.782 826.759 448.761C826.837 448.74 826.934 448.72 827.046 448.684C827.136 448.655 827.231 448.617 827.314 448.591C827.398 448.564 827.493 448.508 827.591 448.475C827.756 448.405 827.863 448.363 827.941 448.34C827.961 448.332 827.98 448.322 828 448.312" stroke="#FFCBAE" stroke-width="2" stroke-linecap="round"/>
<path d="M831.491 448C831.497 447.957 831.519 447.817 831.57 447.606C831.612 447.431 831.7 447.261 831.748 447.128C831.814 446.947 831.858 446.839 831.878 446.75C831.901 446.646 831.915 446.269 831.932 446.034C831.941 445.904 831.96 445.775 831.98 445.664C832.012 445.485 832 445.011 831.986 444.726C831.981 444.64 831.966 444.468 831.952 444.316C831.94 444.186 831.932 443.993 831.918 443.846C831.906 443.727 831.898 443.427 831.881 443.233C831.869 443.095 831.853 442.912 831.844 442.663C831.84 442.532 831.813 442.329 831.796 442.166C831.786 442.061 831.762 441.891 831.746 441.707C831.732 441.561 831.717 441.356 831.709 441.258C831.7 441.159 831.667 441.042 831.647 440.902C831.628 440.767 831.604 440.648 831.587 440.488C831.575 440.369 831.526 440.243 831.503 440.107C831.481 439.982 831.452 439.875 831.424 439.77C831.4 439.681 831.378 439.594 831.356 439.508C831.332 439.415 831.305 439.308 831.26 439.173C831.225 439.066 831.209 438.957 831.172 438.846C831.143 438.758 831.136 438.67 831.107 438.568C831.085 438.443 831.051 438.292 831.023 438.168C831.017 438.13 831.017 438.082 831 438" stroke="#FFCBAE" stroke-width="2" stroke-linecap="round"/>
<path d="M828 448.952C828.021 448.972 828.104 448.992 828.186 449C828.286 449.009 828.314 448.847 828.367 448.775C828.423 448.698 828.503 448.652 828.558 448.582C828.621 448.502 828.749 448.522 828.833 448.487C828.917 448.452 829.001 448.422 829.085 448.395C829.172 448.366 829.263 448.317 829.349 448.287C829.433 448.258 829.52 448.212 829.606 448.172C829.7 448.129 829.828 448.088 829.934 448.04C830.018 448.002 830.117 447.963 830.201 447.917C830.281 447.874 830.353 447.813 830.424 447.753C830.503 447.685 830.589 447.608 830.67 447.515C830.743 447.433 830.799 447.338 830.848 447.258C830.9 447.175 830.945 447.098 831.029 447.005C831.099 446.928 831.144 446.843 831.207 446.763C831.269 446.685 831.328 446.603 831.386 446.52C831.456 446.421 831.522 446.343 831.572 446.255C831.624 446.163 831.695 446.058 831.758 445.928C831.807 445.826 831.842 445.748 831.881 445.668C831.921 445.587 831.941 445.483 831.962 445.371C831.983 445.262 832.01 445.134 831.997 445.029C831.992 444.991 831.958 444.993 831.944 445.02C831.874 445.164 831.905 445.257 831.897 445.362C831.89 445.449 831.847 445.527 831.818 445.607C831.811 445.628 831.8 445.647 831.795 445.667C831.789 445.688 831.789 445.707 831.789 445.728" stroke="#FFCBAE" stroke-width="2" stroke-linecap="round"/>
<path d="M546 196C546 195.814 546.021 195.421 546.05 195.311C546.072 195.228 546.121 195.162 546.16 195.077C546.202 194.987 546.267 194.912 546.328 194.812C546.379 194.727 546.414 194.654 546.464 194.58C546.529 194.484 546.614 194.435 546.677 194.368C546.742 194.299 546.834 194.261 546.913 194.208C546.993 194.153 547.081 194.123 547.162 194.074C547.234 194.03 547.306 193.994 547.385 193.942C547.461 193.893 547.563 193.851 547.721 193.775C547.832 193.721 548.009 193.686 548.125 193.659C548.209 193.64 548.303 193.623 548.422 193.605C548.582 193.581 548.802 193.543 548.92 193.527C549.1 193.504 549.28 193.485 549.421 193.463C549.541 193.444 549.679 193.431 549.778 193.418C549.884 193.404 550.009 193.391 550.143 193.376C550.335 193.354 550.545 193.342 550.746 193.327C551.371 193.278 551.51 193.311 551.641 193.3C551.783 193.288 551.961 193.284 552.129 193.273C552.276 193.264 552.735 193.258 553.032 193.269C553.19 193.275 553.295 193.293 553.449 193.3C553.584 193.306 553.741 193.32 553.88 193.327C554.05 193.335 554.271 193.347 554.514 193.353C554.681 193.358 554.93 193.378 555.121 193.389C555.258 193.397 555.394 193.414 555.585 193.42C555.689 193.424 555.793 193.44 555.89 193.447C555.989 193.454 556.164 193.472 556.312 193.487C556.471 193.504 556.669 193.521 556.79 193.536C557.008 193.565 557.147 193.565 557.291 193.576C557.435 193.587 557.561 193.592 557.794 193.603C558.338 193.629 558.443 193.628 558.572 193.643C558.788 193.67 558.884 193.668 559.005 193.674C559.122 193.681 559.204 193.708 559.356 193.715C559.473 193.72 559.587 193.739 559.695 193.75C559.813 193.762 559.944 193.779 559.979 193.77C560.089 193.742 559.741 193.57 559.627 193.512C559.485 193.439 559.269 193.369 558.824 193.196C558.555 193.091 558.07 192.918 557.801 192.822C557.417 192.687 557.3 192.647 557.145 192.593C557.08 192.571 556.981 192.54 556.785 192.493C556.589 192.447 556.298 192.385 555.779 192.309C555.26 192.233 554.522 192.145 554.033 192.095C553.544 192.045 553.326 192.036 553.198 192.029C553.07 192.022 553.039 192.018 552.776 192.011C552.513 192.005 552.019 191.996 551.781 192.002C551.542 192.009 551.573 192.031 551.607 192.049C551.793 192.146 552.066 192.178 552.35 192.218C552.567 192.254 552.931 192.32 553.134 192.358C553.337 192.397 553.368 192.406 553.4 192.415" stroke="#FFCBAE" stroke-width="2" stroke-linecap="round"/>
<path d="M546 199C546.071 198.796 546.183 198.373 546.211 198.273C546.235 198.185 546.269 198.1 546.287 198.024C546.305 197.948 546.305 197.842 546.32 197.748C546.335 197.655 546.346 197.569 546.376 197.485C546.415 197.378 546.422 197.287 546.445 197.198C546.474 197.084 546.518 196.99 546.564 196.899C546.62 196.789 546.656 196.65 546.719 196.545C546.778 196.447 546.839 196.368 546.91 196.25C546.965 196.161 547.037 196.066 547.096 195.984C547.149 195.911 547.245 195.774 547.34 195.668C547.406 195.594 547.51 195.511 547.622 195.405C547.76 195.276 547.982 195.143 548.176 195.003C548.366 194.867 548.476 194.821 548.644 194.747C548.931 194.62 549.3 194.572 549.417 194.555C549.578 194.532 549.667 194.51 549.768 194.481C549.866 194.453 550.002 194.443 550.147 194.407C550.291 194.371 550.435 194.347 550.567 194.309C550.673 194.278 550.786 194.261 550.897 194.225C551.005 194.191 551.091 194.18 551.185 194.17C551.272 194.161 551.35 194.127 551.434 194.105C551.555 194.074 551.711 194.074 551.937 194.038C552.111 194.011 552.245 194.017 552.813 194.005C553.259 193.995 554.11 194.002 554.559 194.005C555.119 194.008 555.332 194.026 555.505 194.033C555.597 194.037 555.749 194.045 555.967 194.053C556.377 194.066 556.608 194.107 556.772 194.12C556.99 194.136 557.255 194.141 557.699 194.144C557.917 194.145 558.31 194.094 558.557 194.072C558.588 194.069 558.618 194.065 558.691 194.062C558.765 194.06 558.881 194.06 559 194.06" stroke="#FFCBAE" stroke-width="2" stroke-linecap="round"/>
<path d="M546.217 198C546.205 198.059 546.165 198.155 546.147 198.241C546.128 198.329 546.121 198.46 546.109 198.562C546.096 198.669 546.088 198.797 546.082 199.139C546.08 199.297 546.06 199.392 546.04 199.494C546.021 199.593 546.016 199.681 546.01 199.873C546.009 199.917 546.004 199.938 546.002 200.132C545.996 200.691 546.004 201.089 546.012 201.135C546.03 201.238 546.048 201.378 546.062 201.486C546.075 201.581 546.08 201.7 546.094 201.807C546.108 201.913 546.108 202.053 546.12 202.163C546.134 202.283 546.14 202.412 546.143 202.604C546.144 202.723 546.125 202.84 546.119 203.078C546.114 203.274 546.124 203.52 546.135 203.627C546.147 203.761 546.16 203.879 546.173 204.016C546.181 204.114 546.221 204.195 546.241 204.281C546.261 204.367 546.285 204.452 546.319 204.527C546.356 204.608 546.377 204.693 546.42 204.765C546.464 204.842 546.506 204.955 546.558 205.071C546.618 205.204 546.674 205.314 546.731 205.477C546.806 205.623 546.883 205.78 546.935 205.897C546.96 205.946 546.98 205.973 547 206" stroke="#FFCBAE" stroke-width="2" stroke-linecap="round"/>
<path d="M545.039 201C545.039 201.093 545.029 201.3 545.012 201.417C544.972 201.688 545.044 201.771 545.073 201.848C545.102 201.924 545.132 201.991 545.186 202.061C545.235 202.125 545.288 202.184 545.342 202.243C545.402 202.307 545.431 202.382 545.501 202.467C545.563 202.542 545.602 202.611 545.629 202.696C545.661 202.798 545.675 202.907 545.727 202.996C545.785 203.098 545.808 203.176 545.859 203.239C545.922 203.316 546.003 203.391 546.084 203.454C546.176 203.525 546.244 203.571 546.302 203.638C546.366 203.711 546.439 203.804 546.496 203.901C546.537 203.971 546.611 204.033 546.67 204.107C546.724 204.176 546.778 204.262 546.831 204.338C546.885 204.414 546.939 204.482 546.993 204.551C547.041 204.613 547.081 204.675 547.147 204.731C547.206 204.781 547.243 204.859 547.289 204.931C547.338 205.006 547.419 205.061 547.48 205.121C547.549 205.189 547.62 205.231 547.689 205.285C547.781 205.357 547.855 205.406 547.933 205.453C548.013 205.501 548.105 205.541 548.198 205.577C548.294 205.614 548.384 205.635 548.482 205.673C548.599 205.719 548.688 205.743 548.774 205.774C548.859 205.806 548.942 205.815 549.04 205.848C549.169 205.892 549.266 205.922 549.344 205.945C549.43 205.969 549.54 206.03 549.65 206.068C549.82 206.127 549.956 206.174 550.093 206.212C550.241 206.253 550.338 206.281 550.536 206.342C550.689 206.388 550.871 206.456 551.019 206.494C551.129 206.523 551.322 206.564 551.448 206.607C551.543 206.639 551.753 206.662 551.916 206.696C552.024 206.719 552.102 206.739 552.21 206.753C552.319 206.766 552.435 206.802 552.557 206.838C552.656 206.867 552.788 206.887 552.949 206.921C553.072 206.946 553.189 206.972 553.283 206.988C553.361 207.001 553.449 207.017 553.542 207.044C553.682 207.084 553.802 207.102 553.905 207.127C554.036 207.159 554.261 207.21 554.426 207.248C554.532 207.273 554.649 207.291 554.769 207.316C554.889 207.34 554.977 207.349 555.09 207.376C555.229 207.409 555.418 207.439 555.516 207.453C555.599 207.464 555.673 207.488 555.756 207.511C555.88 207.544 556.04 207.556 556.143 207.578C556.273 207.606 556.364 207.61 556.444 207.634C556.537 207.662 556.647 207.659 556.765 207.686C556.87 207.71 556.971 207.722 557.11 207.767C557.209 207.798 557.338 207.829 557.441 207.852C557.521 207.869 557.608 207.91 557.711 207.935C557.74 207.942 557.774 207.95 557.818 207.959C557.862 207.969 557.916 207.977 558 208" stroke="#FFCBAE" stroke-width="2" stroke-linecap="round"/>
<path d="M816 442.13C816 442.248 816.041 442.504 816.099 442.663C816.159 442.828 816.281 442.978 816.401 443.136C816.51 443.279 816.605 443.422 816.714 443.556C816.826 443.691 816.939 443.817 817.059 443.941C817.175 444.059 817.273 444.162 817.367 444.32C817.454 444.468 817.472 444.636 817.549 444.843C817.614 445.016 817.68 445.199 817.748 445.357C817.812 445.506 817.92 445.662 818.029 445.811C818.156 445.983 818.274 446.176 818.405 446.309C818.534 446.441 818.609 446.639 818.718 446.783C818.835 446.935 818.901 447.142 818.979 447.315C819.065 447.506 819.224 447.626 819.329 447.784C819.442 447.956 819.579 448.09 819.751 448.278C819.909 448.45 820.122 448.603 820.263 448.727C820.396 448.843 820.56 448.9 820.722 448.998C820.882 449.095 821.04 449.205 821.192 449.299C821.341 449.392 821.499 449.501 821.682 449.6C821.953 449.747 822.188 449.818 822.449 449.877C822.591 449.909 822.752 449.916 823.13 449.961C823.926 450.054 824.546 449.956 824.755 449.926C825.251 449.856 825.611 449.818 825.825 449.793C826.122 449.758 826.289 449.729 826.519 449.685C826.795 449.631 827.093 449.63 827.276 449.611C827.478 449.589 827.656 449.512 827.845 449.468C828.112 449.405 828.397 449.266 828.612 449.172C828.792 449.093 828.951 449.019 829.087 448.886C829.228 448.747 829.389 448.546 829.655 448.294C829.927 448.036 830.274 447.777 830.527 447.593C830.721 447.452 831.017 447.312 831.283 447.169C831.642 446.975 832.122 446.779 832.364 446.577C832.522 446.444 832.666 446.227 832.792 445.97C832.892 445.765 832.938 445.428 832.985 444.932C833.013 444.632 833.001 444.23 832.954 443.721C832.908 443.212 832.815 442.606 832.726 442.148C832.578 441.391 832.458 441.016 832.396 440.751C832.195 439.893 832.041 439.694 831.963 439.511C831.862 439.275 831.749 439.121 831.629 438.963C831.509 438.805 831.321 438.628 831.185 438.435C831.072 438.274 830.935 438.144 830.805 438.025C830.774 437.998 830.727 437.996 830.69 438.005C830.653 438.015 830.622 438.044 830.606 438.098C830.534 438.341 830.653 438.508 830.689 438.666C830.727 438.833 830.819 439.001 830.872 439.174C830.928 439.359 831.018 439.514 831.065 439.677C831.126 439.889 831.237 440.077 831.305 440.235C831.37 440.387 831.414 440.551 831.446 440.714C831.484 440.912 831.55 441.083 831.566 441.266C831.573 441.351 831.592 441.654 831.597 442.083C831.6 442.307 831.623 442.914 831.618 443.768C831.615 444.223 831.571 444.419 831.555 444.71C831.545 444.898 831.446 445.07 831.399 445.238C831.351 445.412 831.269 445.603 831.19 445.771C831.12 445.921 831.102 446.087 831.034 446.274C830.964 446.468 830.893 446.669 830.804 446.837C830.715 447.006 830.591 447.133 830.403 447.31C830.184 447.518 829.975 447.695 829.813 447.814C829.668 447.921 829.474 448.011 829.302 448.086C829.112 448.168 828.963 448.277 828.811 448.406C828.681 448.517 828.504 448.584 828.31 448.688C828.157 448.77 827.971 448.781 827.804 448.826C827.585 448.91 827.355 448.979 827.272 449.003C827.23 449.018 827.189 449.038 827.146 449.058" stroke="#FFCBAE" stroke-width="2" stroke-linecap="round"/>
<path d="M830 437C830.037 437.038 830.081 437.192 830.129 437.347C830.176 437.496 830.178 437.675 830.218 437.84C830.256 437.991 830.274 438.168 830.329 438.357C830.376 438.514 830.415 438.671 830.466 438.826C830.518 438.98 830.563 439.134 830.6 439.294C830.642 439.474 830.704 439.627 830.73 439.782C830.755 439.935 830.792 440.091 830.804 440.246C830.815 440.404 830.844 440.746 830.867 440.999C830.881 441.167 830.926 441.337 830.952 441.516C830.963 441.792 830.985 441.908 830.996 442.133C831 442.32 831 442.655 831 443" stroke="#FFCBAE" stroke-width="2" stroke-linecap="round"/>
<path d="M807 427C807.02 426.869 807.062 426.381 807.185 425.982C807.283 425.665 807.453 425.379 807.566 425.077C807.691 424.745 807.844 424.417 807.927 424.114C808.008 423.816 808.071 423.511 808.164 423.199C808.265 422.861 808.236 422.437 808.298 422.077C808.35 421.769 808.463 421.473 808.504 421.171C808.557 420.786 808.689 420.341 808.741 419.757C808.783 419.284 808.874 418.757 808.988 418.454C809.107 418.139 809.307 417.851 809.503 417.586C809.707 417.311 809.842 417.039 810.039 416.747C810.265 416.41 810.522 416.19 810.76 415.954C810.988 415.727 811.264 415.568 811.522 415.35C811.798 415.118 812.17 415.02 812.501 414.888C812.881 414.736 813.283 414.567 813.665 414.482C814.046 414.397 814.396 414.227 814.726 414.105C814.886 414.045 815.199 414.038 815.58 414.029C815.82 414.023 816.983 413.982 818.652 414.01C819.464 414.023 819.774 414.283 820.104 414.443C820.449 414.611 820.701 414.849 820.98 415.075C821.208 415.26 821.464 415.452 821.712 415.688C821.981 415.945 822.165 416.225 822.433 416.528C822.667 416.792 822.886 417.037 823.123 417.329C823.379 417.645 823.525 417.98 823.7 418.292C823.752 418.377 823.813 418.47 823.875 418.546C823.938 418.622 823.999 418.678 824 418.68" stroke="#FFCBAE" stroke-width="2" stroke-linecap="round"/>
<path d="M815.03 401C815.008 401.009 814.985 401.158 815.013 401.303C815.042 401.45 815.177 401.578 815.24 401.727C815.304 401.88 815.337 402.044 815.427 402.203C815.508 402.345 815.53 402.501 815.609 402.655C815.698 402.829 815.79 402.977 815.91 403.155C816.029 403.332 816.052 403.527 816.092 403.696C816.141 403.906 816.233 404.069 816.268 404.218C816.304 404.375 816.403 404.535 816.483 404.694C816.558 404.843 816.585 405.039 816.631 405.203C816.683 405.391 816.687 405.599 816.727 405.809C816.783 406.1 816.767 406.344 816.795 406.541C816.818 406.7 816.835 407.053 816.864 407.325C816.894 407.614 816.903 407.93 816.937 408.169C816.981 408.48 816.994 408.911 817 409.409C817.003 409.632 816.937 409.779 816.904 409.928C816.869 410.082 816.801 410.3 816.739 410.488C816.68 410.666 816.564 410.852 816.495 410.992C816.424 411.137 816.325 411.272 816.189 411.458C816.052 411.608 815.939 411.738 815.809 411.855C815.769 411.879 815.724 411.897 815.643 412" stroke="#FFCBAE" stroke-width="2" stroke-linecap="round"/>
<path d="M801 405C801.04 405.038 801.119 405.189 801.239 405.313C801.354 405.432 801.508 405.531 801.628 405.655C801.739 405.77 801.787 405.931 801.867 406.083C801.945 406.232 801.996 406.387 802.071 406.563C802.137 406.716 802.166 406.871 802.226 407.024C802.288 407.183 802.346 407.328 802.415 407.466C802.466 407.567 802.287 407.206 802.212 407.053C802.123 406.873 801.977 406.731 801.947 406.375C801.936 406.243 801.887 406.16 801.892 406.107C801.894 406.087 801.946 406.102 801.981 406.121C802.12 406.196 802.146 406.406 802.231 406.586C802.3 406.734 802.366 406.871 802.435 407.047C802.501 407.215 802.644 407.337 802.69 407.475C802.739 407.625 802.943 407.793 803.068 407.965C803.181 408.118 803.282 408.268 803.362 408.425C803.458 408.613 803.562 408.782 803.636 408.934C803.717 409.099 803.841 409.238 803.911 409.39C803.986 409.554 804.07 409.713 804.145 409.87C804.215 410.018 804.349 410.131 804.474 410.326C804.596 410.517 804.718 410.635 804.833 410.763C804.965 410.912 805.077 411.034 805.216 411.139C805.382 411.264 805.525 411.433 805.665 411.585C805.796 411.727 805.914 411.861 806.029 412.008C806.146 412.16 806.313 412.232 806.423 412.346C806.539 412.466 806.701 412.536 806.861 412.636C807.016 412.733 807.2 412.84 807.35 412.954C807.518 413.082 807.688 413.163 807.848 413.263C807.996 413.355 808.167 413.391 808.336 413.472C808.542 413.57 808.705 413.6 808.865 413.662C809.034 413.728 809.243 413.733 809.403 413.809C809.559 413.884 809.722 413.895 809.882 413.947C810.258 414.07 810.918 413.943 811.425 413.919C811.834 413.9 812.354 413.876 812.662 413.857C812.861 413.845 813.012 413.744 813.206 413.71C813.43 413.672 813.58 413.601 813.745 413.501C813.935 413.386 814.148 413.335 814.288 413.245C814.453 413.139 814.607 413.05 814.786 412.95C814.975 412.845 815.085 412.698 815.235 412.537C815.375 412.386 815.583 412.167 815.699 411.99C815.763 411.929 815.902 411.834 816.2 411.668C816.399 411.568 816.695 411.437 817 411.301" stroke="#FFCBAE" stroke-width="2" stroke-linecap="round"/>
<path d="M821 408.006C820.918 407.978 820.706 408.053 820.469 408.167C820.161 408.317 820.021 408.576 819.837 408.719C819.663 408.854 819.584 409.033 819.471 409.18C819.331 409.363 819.1 409.612 818.846 409.883C818.647 410.095 818.485 410.268 818.326 410.44C818.122 410.659 818.013 410.82 818 411.237C817.994 411.448 818.106 411.619 818.195 411.747C818.3 411.901 818.566 411.905 818.885 411.924C818.956 411.933 819.003 411.952 819.051 411.966C819.098 411.981 819.145 411.99 819.193 412" stroke="#FFCBAE" stroke-width="2" stroke-linecap="round"/>
<path d="M806.924 416.201C806.863 416.192 806.705 416.119 806.481 416.009C806.146 415.844 806.063 415.688 806.005 415.601C805.963 415.536 806.184 415.394 806.347 415.265C806.481 415.16 806.659 415.091 806.84 415.022C806.978 414.969 807.143 415.017 807.288 415.104C807.506 415.234 807.626 415.329 807.763 415.453C807.882 415.561 807.96 415.878 807.996 416.241C808.021 416.49 807.909 416.632 807.852 416.779C807.838 416.816 807.83 416.852 807.816 416.889C807.803 416.926 807.786 416.963 807.689 417" stroke="#FFCBAE" stroke-width="2" stroke-linecap="round"/>
<path d="M800.595 405C800.595 404.839 800.518 404.474 800.42 404.148C800.313 403.795 800.322 403.377 800.205 403.052C800.088 402.726 800.088 402.341 800.049 401.814C799.975 400.822 799.99 399.234 800.058 398.899C800.138 398.51 800.127 398.138 800.195 397.812C800.266 397.469 800.4 397.123 800.487 396.777C800.58 396.412 800.79 396.026 800.955 395.63C801.108 395.265 801.394 395.01 801.658 394.725C801.894 394.471 802.193 394.218 802.526 393.933C802.798 393.7 803.091 393.527 803.442 393.385C803.937 393.184 804.359 393.242 804.701 393.181C805.084 393.113 805.819 393.059 806.379 393.009C806.934 392.959 807.247 393.14 807.56 393.201C807.9 393.268 808.204 393.424 808.496 393.546C808.791 393.67 809.082 393.728 809.374 393.891C809.652 394.046 809.998 394.053 810.311 394.287C810.709 394.584 811.013 395.048 811.297 395.322C811.58 395.597 811.794 395.901 812.087 396.277C812.301 396.553 812.438 396.875 812.653 397.201C812.865 397.523 813.121 397.749 813.346 398.003C813.55 398.258 813.746 398.379 813.833 398.541C813.882 398.623 813.94 398.703 814 398.847" stroke="#FFCBAE" stroke-width="2" stroke-linecap="round"/>
<path d="M800 403.615C800 403.656 800 403.761 800 403.909C800 403.983 800 404.014 800 403.994C800 403.877 800 403.385 800 403.047C800 402.709 800 401.873 800 401.267C800 400.835 800 400.121 800 399.497C800 399.36 800 399.214 800 399" stroke="#FFCBAE" stroke-width="2" stroke-linecap="round"/>
<path d="M802.519 377C802.568 377.038 802.647 377.19 802.751 377.347C802.857 377.508 802.885 377.676 802.964 377.857C803.042 378.035 803.092 378.19 803.127 378.343C803.166 378.511 803.27 378.666 803.349 378.857C803.425 379.04 803.527 379.209 803.621 379.372C803.718 379.538 803.824 379.724 803.918 379.924C804.024 380.148 804.052 380.305 804.116 380.458C804.182 380.615 804.249 380.791 804.304 380.943C804.359 381.099 804.408 381.248 804.496 381.424C804.59 381.61 804.645 381.848 804.739 382.001C804.835 382.158 804.862 382.382 804.946 382.544C805.021 382.688 805.08 382.867 805.149 383.03C805.211 383.173 805.258 383.334 805.312 383.492C805.375 383.672 805.446 383.839 805.49 384.03C805.534 384.217 805.575 384.363 805.599 384.544C805.625 384.735 805.683 384.906 805.698 385.154C805.709 385.329 805.772 385.478 805.807 385.654C805.861 385.931 805.842 386.163 805.866 386.345C805.888 386.506 805.901 386.81 805.93 387.055C805.953 387.241 805.98 387.45 805.995 388.105C806.006 388.611 806 389.241 805.96 389.412C805.912 389.622 805.852 389.812 805.783 389.975C805.717 390.129 805.654 390.279 805.501 390.456C805.382 390.593 805.298 390.737 805.17 390.842C805.029 390.957 804.903 391.099 804.769 391.199C804.634 391.3 804.488 391.404 804.329 391.537C804.174 391.668 803.944 391.804 803.766 391.918C803.601 392.024 803.449 392.147 803.291 392.237C803.125 392.332 802.945 392.423 802.787 392.49C802.64 392.552 802.48 392.642 802.282 392.695C802.091 392.746 801.936 392.795 801.744 392.828C801.417 392.885 801.254 392.881 800.475 392.895C800.155 392.901 799.959 392.938 799.667 392.952C799.453 392.963 799.237 392.995 798.684 393C798.434 393.002 798.258 392.938 798.035 392.886C797.794 392.829 797.635 392.795 797.476 392.748C797.321 392.7 797.16 392.653 797.002 392.576C796.843 392.5 796.686 392.424 796.522 392.338C796.321 392.232 796.201 392.091 796.048 392C795.871 391.895 795.736 391.795 795.607 391.69C795.478 391.586 795.34 391.491 795.202 391.333C795 391.105 794.885 390.986 794.752 390.833C794.626 390.689 794.52 390.529 794.416 390.381C794.32 390.246 794.213 390.119 794.119 389.976C794.014 389.817 793.906 389.671 793.793 389.519C793.66 389.339 793.531 389.157 793.412 389.033C793.298 388.913 793.224 388.757 793.115 388.604C793.007 388.451 792.908 388.299 792.823 388.123C792.747 387.964 792.69 387.766 792.586 387.604C792.49 387.453 792.453 387.252 792.359 387.028C792.205 386.661 792.107 386.47 792.013 386.313C791.903 386.13 791.81 385.975 791.711 385.832C791.575 385.635 791.395 385.46 791.281 385.317C791.171 385.179 791.039 385.041 790.895 384.775C790.789 384.577 790.624 384.384 790.544 384.227C790.44 384.021 790.327 383.869 790.257 383.722C790.158 383.593 790.119 383.469 790.099 383.365C790.08 383.307 790.04 383.241 790 383.173" stroke="#FFCBAE" stroke-width="2" stroke-linecap="round"/>
<path d="M795 392.232C795.059 392.297 795.177 392.449 795.354 392.785C795.67 393.384 795.848 394.015 795.952 394.277C796.031 394.476 796.173 394.679 796.302 394.87C796.408 395.028 796.558 395.169 796.746 395.349C796.911 395.507 797.101 395.561 797.313 395.762C797.751 396.178 797.782 396.464 797.876 396.665C797.968 396.863 798.117 397.202 798.211 397.519C798.273 397.725 798.325 397.901 798.345 397.961C798.427 398.211 798.394 397.195 798.414 396.945C798.444 396.561 798.502 396.194 798.532 395.987C798.561 395.785 798.729 395.628 798.803 395.47C798.893 395.278 799.123 395.171 799.345 395.04C799.572 394.907 799.785 394.746 800.114 394.529C800.419 394.328 800.613 394.278 800.796 394.164C800.949 394.068 801.117 394.05 801.324 393.941C801.501 393.847 801.845 393.745 802.084 393.641C802.294 393.55 802.517 393.462 802.676 393.348C802.848 393.224 803.119 393.147 803.302 393.016C803.511 392.868 803.692 392.765 803.884 392.673C804.231 392.507 804.432 392.45 804.722 392.352C805.095 392.227 805.31 392.135 805.527 392.069C805.699 392.017 805.872 391.917 806.114 391.819C806.286 391.75 806.484 391.645 806.731 391.514C806.916 391.416 807.076 391.232 807.214 391.042C807.466 390.695 807.491 390.481 807.531 390.28C807.603 389.916 807.639 389.288 807.664 388.877C807.692 388.403 807.639 388.207 807.595 387.957C807.497 387.404 807.363 387.152 807.294 387.004C807.265 386.942 807.44 387.603 807.692 388.332C807.848 388.784 808.131 389.064 808.329 389.331C808.576 389.665 808.987 390.344 809.301 390.822C809.474 391.086 809.72 391.533 809.884 391.791C809.948 391.892 809.977 392.014 809.997 392.079C810.045 392.234 809.458 391.885 809.051 391.694C808.814 391.601 808.636 391.492 808.557 391.454C808.518 391.438 808.479 391.427 808.438 391.416" stroke="#FFCBAE" stroke-width="2" stroke-linecap="round"/>
<path d="M665 250C664.939 249.969 664.795 249.866 664.631 249.784C664.47 249.703 664.333 249.609 664.168 249.562C663.997 249.514 663.85 249.372 663.675 249.289C663.504 249.209 663.326 249.033 663.176 248.888C663.019 248.736 662.791 248.62 662.631 248.512C662.486 248.413 662.349 248.301 662.179 248.157C661.932 247.946 661.784 247.766 661.639 247.595C661.524 247.459 661.393 247.322 661.264 247.183C661.072 246.975 660.838 246.715 660.689 246.591C660.54 246.467 660.437 246.282 660.339 246.107C660.243 245.934 660.128 245.798 660.005 245.617C659.884 245.442 659.789 245.252 659.727 245.087C659.666 244.925 659.614 244.757 659.552 244.592C659.49 244.426 659.46 244.211 659.419 244.036C659.377 243.858 659.326 243.635 659.295 243.413C659.264 243.189 659.234 242.884 659.203 242.589C659.169 242.265 659.152 241.832 659.136 241.466C659.125 241.212 659.09 241.028 659.074 240.504C659.068 240.307 659.038 240.193 659.023 239.902C658.958 238.67 659.049 238.463 659.084 238.288C659.119 238.117 659.182 237.938 659.238 237.731C659.293 237.535 659.336 237.371 659.393 237.175C659.454 236.964 659.552 236.763 659.629 236.557C659.696 236.361 659.788 236.237 659.845 236.155C659.871 236.114 659.891 236.073 660.004 236" stroke="#FFCBAE" stroke-width="2" stroke-linecap="round"/>
<path d="M659 241C659.041 240.822 659.095 240.423 659.13 240.144C659.152 239.967 659.192 239.798 659.212 239.071C659.22 238.793 659.274 238.624 659.294 238.425C659.313 238.244 659.41 238.074 659.472 237.932C659.544 237.768 659.698 237.611 659.828 237.431C659.935 237.283 660.15 237.194 660.349 237.08C660.591 236.941 660.876 236.739 661.225 236.508C661.465 236.341 661.671 236.199 661.76 236.147C661.808 236.123 661.862 236.105 662 236" stroke="#FFCBAE" stroke-width="2" stroke-linecap="round"/>
<path d="M676 240C675.932 239.962 675.758 239.886 675.568 239.799C675.406 239.726 675.214 239.627 675.01 239.536C674.798 239.442 674.612 239.33 674.456 239.235C674.312 239.146 674.145 239.091 673.99 239.024C673.834 238.957 673.679 238.9 673.523 238.823C673.363 238.744 673.184 238.699 673.028 238.622C672.865 238.542 672.669 238.469 672.45 238.369C672.262 238.282 672.067 238.192 671.896 238.101C671.745 238.02 671.61 237.895 671.478 237.794C671.339 237.688 671.173 237.608 671.041 237.507C670.905 237.404 670.716 237.33 670.551 237.225C670.404 237.131 670.172 237.072 669.997 237.009C669.839 236.953 669.696 236.833 669.429 236.732C669.195 236.644 668.968 236.536 668.826 236.455C668.691 236.377 668.521 236.335 668.336 236.292C668.137 236.245 667.948 236.191 667.758 236.177C667.592 236.164 667.192 236.095 666.705 236.048C666.492 236.027 666.344 236.028 666.065 236.014C665.382 235.979 664.887 236.019 664.761 236.033C664.365 236.078 663.938 236.067 663.619 236.095C663.455 236.11 663.304 236.191 663.124 236.263C662.967 236.325 662.808 236.392 662.653 236.468C662.489 236.549 662.294 236.64 662.027 236.774C661.825 236.876 661.672 236.995 661.511 237.124C661.333 237.267 661.166 237.387 661.021 237.478C660.86 237.578 660.758 237.731 660.666 237.87C660.57 238.013 660.467 238.162 660.355 238.305C660.25 238.44 660.205 238.612 660.141 238.765C660.087 238.918 660.049 239.071 660.005 239.224C660 239.263 660 239.301 660 239.34" stroke="#FFCBAE" stroke-width="2" stroke-linecap="round"/>
<path d="M659 239.272C659.05 239.238 659.171 239.135 659.303 239.041C659.434 238.947 659.525 238.801 659.636 238.68C659.747 238.56 659.879 238.448 660.005 238.349C660.135 238.248 660.233 238.147 660.349 238.022C660.531 237.827 660.698 237.709 660.819 237.597C660.941 237.485 661.112 237.391 661.254 237.279C661.433 237.138 661.567 237.013 661.729 236.879C661.868 236.765 662.033 236.72 662.184 236.686C662.355 236.646 662.507 236.574 662.71 236.535C662.974 236.485 663.175 236.445 663.342 236.381C663.554 236.299 663.751 236.222 663.913 236.174C663.954 236.162 663.994 236.144 663.999 236.123C664.005 236.101 663.975 236.076 663.934 236.058C663.742 235.975 663.46 236.007 663.101 236.002C662.888 235.999 662.691 236.126 662.464 236.234C662.241 236.339 662.074 236.461 661.912 236.56C661.759 236.654 661.589 236.728 661.477 236.844C661.352 236.974 661.164 237.072 661.028 237.188C660.885 237.309 660.82 237.458 660.729 237.596C660.64 237.73 660.547 237.854 660.507 238.004C660.466 238.154 660.335 238.266 660.239 238.391C660.14 238.519 660.042 238.644 659.926 238.889C659.851 239.046 659.759 239.169 659.678 239.319C659.607 239.45 659.587 239.615 659.521 239.783C659.466 239.923 659.415 240.062 659.359 240.213C659.303 240.415 659.243 240.62 659.207 240.819C659.202 240.862 659.192 240.905 659.182 241" stroke="#FFCBAE" stroke-width="2" stroke-linecap="round"/>
<path d="M649.289 223C649.379 223.059 649.579 223.259 649.73 223.42C649.873 223.572 649.991 223.77 650.097 223.905C650.208 224.049 650.332 224.2 650.453 224.351C650.56 224.483 650.653 224.641 650.764 224.771C650.883 224.912 651.054 225.041 651.16 225.186C651.257 225.319 651.426 225.391 651.576 225.552C651.727 225.712 651.847 225.852 651.993 225.947C652.136 226.041 652.239 226.182 652.429 226.337C652.684 226.545 652.941 226.663 653.137 226.828C653.281 226.949 653.433 227.033 653.598 227.168C653.768 227.306 653.944 227.403 654.15 227.538C654.323 227.652 654.466 227.773 654.637 227.849C654.809 227.925 654.918 228.074 655.064 228.169C655.202 228.26 655.359 228.324 655.57 228.509C655.73 228.649 655.901 228.714 656.032 228.825C656.163 228.935 656.323 229.035 656.458 229.155C656.606 229.285 656.754 229.395 656.93 229.505C657.075 229.596 657.226 229.675 657.392 229.82C657.579 229.984 657.717 230.205 657.838 230.386C657.936 230.531 658.029 230.696 658.139 230.866C658.245 231.03 658.33 231.186 658.435 231.347C658.533 231.495 658.611 231.637 658.651 231.797C658.692 231.96 658.762 232.117 658.802 232.277C658.844 232.445 658.852 232.627 658.892 232.788C658.935 232.957 658.953 233.296 658.978 233.538C658.994 233.699 659.013 234.235 658.988 234.654C658.959 235.139 658.933 235.32 658.888 235.53C658.836 235.771 658.792 235.95 658.717 236.146C658.654 236.308 658.582 236.471 658.481 236.666C658.307 237.005 658.24 237.161 658.145 237.322C658.037 237.505 657.93 237.732 657.809 237.912C657.71 238.061 657.599 238.192 657.503 238.342C657.4 238.504 657.258 238.682 657.122 238.833C656.991 238.978 656.886 239.103 656.75 239.208C656.593 239.331 656.374 239.404 656.189 239.434C656.008 239.463 655.833 239.504 655.672 239.544C655.511 239.584 655.291 239.644 655.1 239.719C654.944 239.78 654.779 239.804 654.613 239.869C654.435 239.939 654.267 239.954 654.106 239.974C653.795 240.013 653.334 240.005 653.099 239.97C652.686 239.908 652.422 239.934 652.125 239.91C651.539 239.86 651.377 239.855 651.211 239.81C651.021 239.758 650.865 239.724 650.5 239.595C650.282 239.517 650.143 239.454 649.982 239.389C649.742 239.293 649.481 239.134 649.32 239.089C649.149 239.041 648.999 238.954 648.803 238.899C648.452 238.8 648.257 238.704 648.081 238.634C647.868 238.549 647.615 238.434 647.423 238.353C647.273 238.29 647.043 238.224 646.851 238.133C646.693 238.058 646.51 238.003 646.34 237.928C646.184 237.86 646.019 237.773 645.858 237.688C645.708 237.608 645.537 237.553 645.356 237.488C645.063 237.382 644.875 237.253 644.709 237.167C644.511 237.066 644.333 236.963 644.147 236.902C643.979 236.847 643.821 236.762 643.665 236.712C643.515 236.664 643.369 236.592 643.209 236.537C643.032 236.476 642.858 236.402 642.592 236.302C642.381 236.223 642.225 236.152 642.065 236.111C641.895 236.068 641.744 235.961 641.533 235.911C641.36 235.87 641.202 235.781 640.991 235.706C640.822 235.646 640.64 235.551 640.419 235.466C640.252 235.401 640.028 235.311 639.812 235.201C639.646 235.116 639.456 235.061 639.295 235.01C639.113 234.954 638.894 234.851 638.723 234.825C638.542 234.77 638.302 234.67 638.121 234.595C638.081 234.58 638.041 234.57 638 234.56" stroke="#FFCBAE" stroke-width="2" stroke-linecap="round"/>
<path d="M658.937 246C658.898 245.921 658.769 245.791 658.375 245.52C658.028 245.281 657.391 244.824 657.038 244.566C656.628 244.267 656.565 244.158 656.525 244.064C656.45 243.885 656.485 243.68 656.539 243.432C656.633 243.002 656.773 242.754 656.827 242.59C656.889 242.404 656.951 242.246 657.026 242.062C657.118 241.835 657.219 241.529 657.373 241.221C657.428 241.111 657.458 241.031 657.497 240.981C657.517 240.956 657.576 240.99 657.616 241.015C657.823 241.144 657.885 241.528 657.974 241.747C658.061 241.962 658.033 242.314 658.049 242.514C658.067 242.753 658.093 242.991 658.108 243.186C658.115 243.272 658.133 243.39 658.113 243.51C658.106 243.554 658.054 243.55 658.014 243.54C657.85 243.5 657.658 243.401 657.192 243.257C657.01 243.201 656.873 243.152 656.262 242.979C655.718 242.825 654.709 242.501 654.163 242.333C653.478 242.124 653.319 242.086 653.12 242.061C653.061 242.054 652.992 242.056 653.001 242.051C653.087 242.003 653.228 242.026 653.322 242.022C653.447 242.015 654.077 241.997 654.955 241.992C655.443 241.989 655.64 241.897 655.829 241.728C656.015 241.563 656.137 241.35 656.33 241.151C656.556 240.919 656.653 240.633 656.763 240.498C656.882 240.351 656.971 240.185 657.09 240.05C657.228 239.895 657.536 239.668 657.745 239.408C657.887 239.233 658.161 239.011 658.865 238.195C659.133 237.886 659.244 237.646 659.383 237.406C659.54 237.137 659.741 236.68 659.894 236.341C660.166 235.743 660.465 235.058 660.59 234.748C660.765 234.311 660.793 233.981 660.848 233.432C660.887 233.042 660.853 232.419 660.838 232.059C660.814 231.465 660.675 231.252 660.571 231.102C660.421 230.887 659.96 231.071 659.688 231.121C659.445 231.166 659.612 231.668 659.726 232.026C659.796 232.248 660.116 232.652 660.503 233.15C660.825 233.564 661.061 233.611 661.264 233.671C661.602 233.77 661.805 233.79 662.073 233.86C662.248 233.906 662.43 233.92 662.699 233.94C662.896 233.955 663.086 234.039 663.28 234.084C663.444 234.149 663.573 234.179 663.686 234.213C663.751 234.238 663.83 234.278 664 234.378" stroke="#FFCBAE" stroke-width="2" stroke-linecap="round"/>
<path d="M631.181 216C631.289 216.038 631.524 216.173 631.686 216.265C631.869 216.368 631.994 216.501 632.176 216.65C632.317 216.766 632.465 216.847 632.622 216.949C632.779 217.05 632.936 217.165 633.088 217.271C633.272 217.4 633.475 217.589 633.622 217.681C633.781 217.78 633.955 217.916 634.117 218.004C634.274 218.088 634.435 218.225 634.592 218.317C634.752 218.41 634.877 218.543 635.058 218.654C635.221 218.754 635.377 218.89 635.529 219.006C635.674 219.116 635.818 219.266 635.945 219.386C636.089 219.521 636.249 219.708 636.45 219.892C636.698 220.117 636.828 220.296 636.955 220.431C637.12 220.607 637.278 220.759 637.416 220.918C637.579 221.106 637.71 221.318 637.842 221.491C638.061 221.778 638.239 222.096 638.391 222.348C638.541 222.595 638.651 222.868 638.759 223.129C638.828 223.296 638.848 223.495 638.911 223.731C638.978 223.98 638.985 224.371 639 225.299C639.006 225.654 638.917 225.942 638.877 226.169C638.842 226.369 638.789 226.578 638.72 226.824C638.674 226.989 638.632 227.166 638.564 227.33C638.499 227.486 638.456 227.638 638.387 227.816C638.325 227.978 638.241 228.129 638.142 228.303C637.993 228.567 637.829 228.774 637.691 228.948C637.575 229.096 637.33 229.352 637.099 229.531C636.913 229.675 636.751 229.825 636.618 229.974C636.5 230.107 636.348 230.181 636.206 230.278C636.015 230.408 635.78 230.471 635.618 230.534C635.442 230.602 635.28 230.625 635.123 230.649C634.967 230.673 634.693 230.683 634.461 230.707C634.231 230.731 633.938 230.77 633.638 230.799C633.33 230.828 632.898 230.847 632.155 230.861C631.712 230.87 631.163 230.866 630.581 230.852C630.307 230.845 630.094 230.799 629.903 230.775C629.674 230.746 629.477 230.703 629.3 230.645C628.933 230.525 628.448 230.106 628.198 229.923C627.831 229.655 627.653 229.643 627.438 229.551C627.165 229.435 626.948 229.344 626.766 229.262C626.576 229.177 626.398 229.142 626.231 229.108C625.999 229.061 625.81 228.997 625.599 228.949C625.198 228.857 624.556 228.603 624.139 228.424C623.914 228.328 623.615 228.208 623.345 228.034C623.163 227.918 623.035 227.851 623.01 227.817C622.935 227.714 623.289 227.918 623.446 227.995C623.599 228.07 623.76 228.12 623.99 228.221C624.181 228.305 624.435 228.399 624.647 228.486C624.861 228.574 625.171 228.717 625.533 228.823C625.758 228.889 625.936 228.939 626.122 228.954C626.325 228.97 626.514 229.103 626.827 229.213C627.137 229.323 627.347 229.411 627.563 229.498C627.764 229.579 627.965 229.623 628.318 229.772C628.518 229.857 628.671 229.922 628.877 230.018C629.057 230.102 629.2 230.22 629.392 230.336C629.594 230.458 629.779 230.538 630.112 230.697C630.379 230.825 630.592 230.818 630.803 230.88C631.01 230.942 631.229 230.943 631.45 230.991C631.504 231.003 631.563 231.001 631.568 230.996C631.784 230.817 630.81 230.751 630.623 230.712C630.465 230.68 630.252 230.654 630.031 230.606C629.699 230.534 629.496 230.548 629.344 230.481C629.533 230.423 629.799 230.452 629.862 230.495C629.897 230.51 629.936 230.51 629.976 230.51" stroke="#FFCBAE" stroke-width="2" stroke-linecap="round"/>
<path d="M638.29 219C638.299 219.019 638.434 219.354 638.594 219.794C638.724 220.15 638.948 220.423 639.184 220.733C639.608 221.288 639.994 221.836 640.256 222.108C640.457 222.316 640.587 222.44 640.708 222.618C640.844 222.817 641.013 223.003 641.135 223.157C641.188 223.224 641.236 223.32 641.362 223.502C641.596 223.842 641.827 224.317 641.987 224.805C642.137 225.262 642.032 225.604 641.96 225.811C641.743 226.432 641.336 226.808 641.078 227.121C640.948 227.279 640.869 227.433 640.715 227.62C640.392 228.01 640.017 228.47 639.702 228.767C639.45 229.004 639.289 229.124 638.962 229.438C638.679 229.709 638.174 230.222 637.849 230.533C637.411 230.954 637.128 231.121 636.842 231.269C636.395 231.501 636.206 231.527 636.06 231.64C635.991 231.694 635.992 231.823 636.011 231.971C636.034 232.147 636.252 232.366 636.672 232.677C636.934 232.871 637.351 233.056 637.712 233.22C638.372 233.521 638.812 233.653 639.054 233.726C639.57 233.884 640.138 234.116 640.514 234.221C640.753 234.288 641.08 234.394 641.439 234.522C641.664 234.603 641.914 234.701 642.185 234.794C642.465 234.891 642.738 235.027 643.21 235.199C643.543 235.32 644.048 235.557 644.415 235.707C644.988 235.941 645.365 236.074 645.713 236.237C646.128 236.432 646.586 236.608 647.016 236.81C647.444 237.012 647.876 237.172 648.579 237.506C649.085 237.746 649.916 238.075 650.48 238.325C651.045 238.575 651.323 238.722 651.639 238.905C651.955 239.089 652.301 239.304 652.709 239.498C653.559 239.902 654.091 240.05 654.169 240.079C654.343 240.146 654.623 240.168 655.03 240.154C655.363 240.142 655.563 239.273 655.71 238.83C655.78 238.62 655.826 238.224 655.861 237.891C655.875 237.757 655.885 237.432 655.899 236.812C655.908 236.446 655.943 235.976 656.005 235.514C656.068 235.051 656.164 234.611 656.262 234.257C656.431 233.641 656.602 233.298 656.699 233.096C656.93 232.613 657 232.329 657 232.303C657 232.278 656.962 232.425 656.453 233.205C655.944 233.984 654.955 235.443 654.388 236.311C653.821 237.18 653.706 237.415 653.608 237.659C653.299 238.43 653.307 238.596 653.268 238.636C653.253 238.651 653.229 238.558 653.229 238.362C653.229 238.165 653.248 237.842 653.541 236.266C653.834 234.69 654.4 231.871 654.692 230.394C654.984 228.917 654.983 228.868 654.979 228.868C654.974 228.867 654.964 228.916 654.537 229.631C654.11 230.347 653.265 231.727 652.657 232.829C652.05 233.932 651.704 234.715 651.488 235.314C651.137 236.285 651.115 236.806 651.144 236.984C651.17 237.146 651.338 237.202 651.483 237.237C651.718 237.293 651.996 237.242 652.689 236.992C653.262 236.785 654.265 236.36 654.866 236.1C655.64 235.764 655.836 235.601 655.904 235.566C655.968 235.533 655.972 236.012 655.848 237.197C655.758 238.044 655.473 239.371 655.326 240.1C655.178 240.83 655.139 240.918 655.086 240.964C655.033 241.009 654.965 241.009 654.921 240.98C654.831 240.92 654.771 240.498 654.66 239.475C654.585 238.788 654.596 237.747 654.754 236.234C654.912 234.721 655.248 232.763 655.479 231.564C655.709 230.364 655.825 229.983 655.889 229.761C655.953 229.54 655.962 229.491 655.963 229.51C655.966 229.967 655.45 230.586 655.189 230.926C655.051 231.107 654.871 231.276 653.515 232.16C652.159 233.044 649.625 234.629 648.306 235.417C646.986 236.204 646.957 236.146 646.942 236.057C646.908 235.853 646.966 235.543 647.082 235.129C647.146 234.897 647.274 234.637 647.559 234.173C647.844 233.709 648.295 233.053 649.199 232.035C650.103 231.017 651.447 229.656 652.163 228.965C652.879 228.274 652.927 228.294 652.976 228.49C653.025 228.686 653.073 229.058 653.083 229.607C653.093 230.155 653.065 230.87 652.863 232.055C652.661 233.241 652.286 234.876 652.036 235.879C651.703 237.215 651.532 237.578 651.499 237.593C651.473 237.604 651.474 237.481 651.609 236.814C651.743 236.147 652.021 234.904 652.174 234.185C652.36 233.313 652.366 233.031 652.28 232.946C652.213 232.881 652.02 233.165 651.485 233.676C650.95 234.188 650.057 235.02 649.564 235.473C649.071 235.926 649.003 235.975 648.964 235.957C648.859 235.906 648.915 235.612 648.963 235.277C648.99 235.087 649.069 234.864 649.511 233.97C649.954 233.075 650.769 231.519 651.204 230.747C651.639 229.974 651.667 230.033 651.687 230.195C651.707 230.358 651.716 230.622 651.678 231.111C651.64 231.599 651.553 232.304 651.509 232.706C651.464 233.108 651.464 233.187 651.388 233.129C651.115 232.925 650.97 232.625 650.912 232.595C650.881 232.579 650.854 232.702 650.787 233.496C650.719 234.29 650.613 235.788 650.549 236.54C650.485 237.292 650.466 237.253 650.442 237.213C650.392 237.132 650.234 236.839 649.959 236.204C649.586 235.345 649.41 234.722 649.299 234.544C649.178 234.352 648.878 234.158 648.477 233.951C648.104 233.758 647.743 233.722 647.352 233.693C646.32 233.614 646.094 233.781 646.026 233.742C645.792 233.609 646.122 233.091 646.517 232.511C646.8 232.095 647.315 231.48 648.138 230.59C648.961 229.7 650.094 228.564 650.701 227.945C651.309 227.326 651.357 227.257 651.391 227.271C651.425 227.285 651.445 227.382 651.416 227.56C651.388 227.738 651.311 227.992 650.71 229.073C650.109 230.153 648.986 232.052 648.177 233.339C647.368 234.626 646.908 235.242 646.368 235.829C645.828 236.416 645.224 236.954 644.744 237.339C644.265 237.724 643.929 237.94 643.741 238.031C643.554 238.122 643.525 238.083 643.501 238.034C643.449 237.929 643.437 237.444 643.524 236.483C643.573 235.939 643.783 235.297 644.131 234.431C644.479 233.565 644.997 232.498 645.888 231.043C646.779 229.588 648.027 227.777 648.732 226.712C649.437 225.647 649.562 225.383 649.616 225.271C649.671 225.159 649.652 225.208 648.865 226.359C648.077 227.51 646.523 229.761 645.328 231.386C644.134 233.011 643.347 233.941 642.984 234.371C642.622 234.801 642.709 234.703 642.883 234.54C643.057 234.377 643.316 234.152 644.169 233.561C645.022 232.97 646.462 232.021 647.223 231.556C647.984 231.092 648.022 231.141 648.056 231.215C648.133 231.381 648.158 231.889 648.159 232.649C648.159 233.007 648.12 233.311 648.053 233.638C647.913 234.316 647.675 234.887 647.505 235.311C647.252 235.946 647.131 236.213 647.083 236.248C646.825 236.434 646.657 235.316 646.381 235.092C646.282 235.012 646.162 235.037 646.099 234.998C645.889 234.867 645.939 234.494 645.953 234.366C645.962 234.286 645.996 234.179 646.64 233.204C647.283 232.228 648.54 230.388 649.202 229.386C649.923 228.296 649.961 228.087 650.029 227.924C650.15 227.634 650.252 227.151 650.234 226.807C650.221 226.566 649.789 226.505 649.449 226.426C649.316 226.394 649.033 226.513 648.305 226.95C647.783 227.264 647.011 227.867 645.68 229.041C644.348 230.214 642.496 231.966 641.417 232.972C640.338 233.977 640.088 234.183 639.945 234.249C639.802 234.316 639.773 234.238 639.792 234.06C639.811 233.883 639.878 233.609 640.225 233.037C640.571 232.465 641.195 231.604 642.414 230.279C643.633 228.954 645.427 227.193 646.347 226.358C647.267 225.524 647.257 225.671 647.161 226.026C647.065 226.38 646.883 226.938 646.582 227.627C646.282 228.316 645.869 229.118 645.532 229.693C645.195 230.268 644.945 230.591 644.399 231.144C643.853 231.697 643.018 232.471 642.468 232.942C641.706 233.596 641.296 233.771 641.049 233.87C640.857 233.947 640.704 233.95 640.583 233.886C640.381 233.779 640.144 233.221 639.742 232.658C639.417 232.204 639.269 232.092 639.23 231.84C639.186 231.554 639.297 231.222 639.466 230.823C639.731 230.196 640.101 229.709 640.386 229.399C640.718 229.038 641.071 228.779 641.37 228.582C641.973 228.185 642.321 228.195 642.53 228.136C642.747 228.075 642.865 227.741 642.909 227.504C642.969 227.181 642.672 226.842 642.435 226.599C642.108 226.265 641.597 226.011 641.349 225.808C641.177 225.667 640.995 225.704 640.922 225.703C640.87 225.703 640.821 225.82 640.58 226.796C640.339 227.771 639.917 229.631 639.613 230.834C639.309 232.036 639.137 232.526 639.028 232.812C638.843 233.304 638.668 233.523 638.383 233.997C638.183 234.33 637.893 234.62 637.676 234.813C637.6 234.88 637.563 234.84 637.5 234.732C637.332 234.443 637.223 234.109 637.199 233.706C637.16 233.049 637.271 232.468 637.373 232.177C637.47 231.897 637.755 231.707 637.955 231.488C638.03 231.406 638.153 231.183 638.375 230.921C638.522 230.749 638.907 230.413 639.641 229.753C640.06 229.375 640.644 228.994 640.998 228.729C641.488 228.361 641.749 228.117 642.231 227.641C642.587 227.289 643.097 226.646 643.513 226.112C643.929 225.579 644.217 225.158 644.394 224.883C644.739 224.345 644.717 223.829 644.669 223.421C644.65 223.263 644.36 223.006 643.94 222.587C643.096 221.745 642.682 221.709 642.571 221.689C642.518 221.68 642.469 221.709 642.435 221.782C642.347 221.971 642.361 222.32 642.385 222.783C642.415 223.348 642.612 223.872 642.859 224.292C643.113 224.724 643.523 225 643.871 225.232C644.041 225.346 644.219 225.415 644.606 225.509C644.992 225.604 645.587 225.711 645.942 225.781C646.394 225.871 646.53 225.921 646.631 225.843C647.11 225.473 646.927 224.738 646.836 224.375C646.769 224.109 646.415 223.964 645.926 223.776C645.755 223.711 645.629 223.726 645.537 223.741C645.393 223.763 645.405 224.091 645.405 224.425C645.405 224.879 645.531 225.355 645.676 225.824C645.845 226.372 646.102 226.809 646.32 227.081C646.667 227.514 647.139 227.483 647.328 227.464C647.395 227.457 647.393 227.405 647.388 227.355C647.374 227.247 647.335 227.138 647.291 227.039C647.276 226.989 647.276 226.94 647.276 226.89" stroke="#FFCBAE" stroke-width="2" stroke-linecap="round"/>
<path d="M827.764 464.184C827.764 463.833 827.598 463.047 827.408 462.34C827.141 461.346 827.178 460.689 826.989 460.06C826.788 459.39 826.506 458.803 826.381 458.173C826.254 457.535 826.128 456.682 826.024 455.757C825.93 454.923 826.127 454.281 826.399 454.045C827.003 453.522 827.719 453.258 828.39 453.101C829.652 452.805 831.536 453.216 832.144 453.61C832.797 454.032 833.046 454.749 833.424 455.338C833.803 455.928 834.055 456.555 834.368 457.419C834.923 458.951 834.641 459.661 834.705 460.682C834.749 461.404 835.018 462.019 834.999 465.096C834.995 465.757 834.812 465.91 834.686 466.049C834.208 466.572 833.262 466.698 832.547 466.896C831.458 467.197 829.905 466.781 829.297 466.485C828.608 466.149 828.395 465.288 828.121 464.56C827.873 463.902 827.681 463.283 827.388 462.654C827.094 462.024 826.926 461.397 826.737 460.748C826.674 460.57 826.591 460.376 826.528 460.178C826.464 459.981 826.423 459.786 826.38 459.35" stroke="#492110" stroke-width="2" stroke-linecap="round"/>
<path d="M830.257 464.484C830.128 464.404 829.904 464.08 829.7 463.704C829.498 463.334 829.253 462.985 828.992 462.438C828.783 461.998 828.732 461.646 828.592 461.321C828.462 461.02 828.453 460.633 828.396 460.277C828.302 459.681 828.266 458.788 828.201 458.159C828.138 457.552 828.135 456.863 828.08 456.383C828.02 455.867 827.987 455.218 828.005 454.589C828.011 454.386 828.247 454.324 828.367 454.213C828.919 453.704 830.384 454.241 830.86 454.455C831.269 454.638 831.595 455.173 831.894 455.599C832.329 456.22 832.489 456.775 832.565 457.121C832.64 457.466 832.88 457.85 833.094 458.277C833.317 458.719 833.42 459.23 833.513 459.585C833.64 460.07 833.736 460.426 833.784 460.973C833.819 461.388 833.942 462.347 833.988 463.082C834.021 463.604 833.979 464.017 833.933 464.178C833.885 464.347 833.757 464.463 833.617 464.554C833.482 464.643 833.108 464.727 832.568 464.697C832.088 464.67 831.877 464.141 831.654 463.876C831.43 463.612 831.207 463.249 830.947 462.752C830.888 462.64 830.853 462.559 830.834 462.929C830.815 463.299 830.815 464.122 830.871 464.567C830.926 465.011 831.036 465.051 831.167 464.961C831.813 464.517 831.782 463.897 832.033 463.411C832.568 462.376 832.137 460.695 832.016 460.065C831.86 459.251 831.598 458.706 831.375 458.058C831.172 457.47 830.909 457.043 830.695 456.728C830.647 456.657 830.556 456.656 830.491 456.676C829.966 456.834 829.941 458.234 829.94 460.359C829.94 461.086 830.126 461.481 830.303 461.705C830.402 461.832 830.406 461.08 830.323 460.202C830.129 458.155 829.793 457.25 829.653 456.647C829.56 456.249 829.475 455.565 829.66 455.318C830.881 453.68 830.852 457.648 830.918 457.983C830.935 458.073 830.927 458.175 830.89 458.176C830.548 458.19 830.518 457.49 830.388 456.608C830.344 456.316 830.406 456.009 830.489 455.664C830.594 455.233 830.926 455.095 831.047 455.023C831.112 455.032 831.186 455.133 831.233 455.235C831.28 455.336 831.299 455.437 831.318 455.662" stroke="#492110" stroke-width="2" stroke-linecap="round"/>
<path d="M811.098 428C811.098 427.971 811.057 427.774 810.975 427.616C810.892 427.458 810.83 427.301 810.763 427.143C810.695 426.983 810.676 426.799 810.634 426.641C810.593 426.483 810.572 426.326 810.542 426.168C810.511 426.01 810.47 425.853 810.423 425.69C810.369 425.503 810.295 425.242 810.232 425.02C810.178 424.826 810.088 424.591 810.021 424.369C809.963 424.177 809.903 424.02 809.836 423.857C809.751 423.651 809.625 423.311 809.516 423.064C809.433 422.874 809.388 422.719 809.31 422.556C809.228 422.383 809.192 422.216 809.125 422.029C809.056 421.838 809.057 421.635 809.032 421.428C808.987 421.065 808.996 420.847 809.021 420.625C809.053 420.354 809.088 420.098 809.145 419.871C809.194 419.674 809.232 419.496 809.279 419.314C809.322 419.144 809.387 418.994 809.474 418.831C809.579 418.637 809.696 418.286 809.82 418.067C809.932 417.87 810.097 417.526 810.232 417.289C810.383 417.022 810.53 416.777 810.675 416.614C810.843 416.425 810.994 416.294 811.159 416.175C811.324 416.057 811.53 415.939 811.772 415.85C811.984 415.772 812.189 415.673 812.401 415.603C812.628 415.529 812.808 415.456 813.009 415.382C813.177 415.32 813.344 415.288 813.535 415.254C813.714 415.221 813.89 415.15 814.147 415.13C814.264 415.121 814.364 415.071 814.467 415.047C814.573 415.021 815.296 414.992 816.372 415.002C817.219 415.01 817.734 415.071 817.94 415.105C818.217 415.152 818.445 415.199 818.61 415.253C818.785 415.31 819.114 415.444 819.45 415.588C819.759 415.72 820.001 415.849 820.218 415.943C820.427 416.033 820.64 416.194 820.867 416.381C821.215 416.668 821.331 416.854 821.465 417.017C821.591 417.169 821.774 417.307 821.944 417.475C822.085 417.613 822.217 417.799 822.372 418.08C822.486 418.288 822.578 418.49 822.686 418.736C822.775 418.938 822.867 419.091 822.97 419.288C823.097 419.533 823.217 419.77 823.336 419.963C823.44 420.133 823.495 420.342 823.588 420.574C823.684 420.813 823.846 421.042 823.903 421.2C823.983 421.423 824.186 421.663 824.279 421.84C824.415 422.101 824.526 422.254 824.634 422.412C824.739 422.566 824.835 422.727 824.912 422.91C824.981 423.072 825.082 423.23 825.139 423.422C825.206 423.647 825.299 423.821 825.356 423.979C825.415 424.144 825.495 424.294 825.562 424.457C825.635 424.634 825.721 424.836 825.789 425.014C825.824 425.092 825.876 425.162 825.933 425.225C825.959 425.26 825.979 425.299 826 425.339" stroke="#FFCBAE" stroke-width="2" stroke-linecap="round"/>
<path d="M811.627 428C811.627 427.913 811.607 427.72 811.541 427.56C811.465 427.378 811.404 427.178 811.373 427.009C811.34 426.823 811.272 426.656 811.231 426.486C811.186 426.296 811.14 426.104 811.084 425.939C811.032 425.786 810.998 425.63 810.937 425.475C810.875 425.318 810.845 425.136 810.785 424.957C810.731 424.801 810.663 424.624 810.551 424.213C810.488 423.981 810.46 423.801 810.434 423.612C810.403 423.384 810.338 423.153 810.287 422.949C810.229 422.719 810.155 422.35 810.104 422.102C810.06 421.885 810.023 421.691 810.008 421.189C809.99 420.61 810.003 419.736 810.043 419.581C810.086 419.417 810.124 419.243 810.2 419.049C810.297 418.803 810.368 418.633 810.464 418.454C810.55 418.294 810.652 418.14 810.753 417.98C810.872 417.794 811.017 417.675 811.129 417.511C811.293 417.269 811.474 417.143 811.621 417.051C811.766 416.96 811.961 416.852 812.199 416.746C812.394 416.659 812.631 416.62 812.864 416.533C813.039 416.468 813.26 416.407 813.453 416.358C813.627 416.315 813.808 416.252 813.976 416.189C814.154 416.122 814.346 416.117 814.549 416.068C815.03 415.953 815.818 416.02 816.441 416.015C816.754 416.012 817.136 416.068 817.523 416.121C817.886 416.171 818.254 416.193 818.432 416.237C818.674 416.297 818.904 416.339 819.112 416.392C819.357 416.455 819.655 416.552 819.818 416.595C819.986 416.64 820.112 416.774 820.28 416.885C820.469 417.011 820.659 417.18 821.202 417.682C821.418 417.882 821.543 418.051 821.685 418.245C821.851 418.47 822.05 418.728 822.269 419.014C822.428 419.221 822.569 419.396 822.731 419.648C822.845 419.825 822.965 419.967 823.076 420.132C823.186 420.295 823.36 420.518 823.503 420.732C823.603 420.883 823.726 421.022 823.843 421.206C823.971 421.409 824.102 421.564 824.228 421.753C824.341 421.922 824.457 422.067 824.538 422.27C824.621 422.477 824.731 422.725 824.868 423.078C824.985 423.38 825.055 423.577 825.127 423.765C825.209 423.982 825.309 424.128 825.416 424.283C825.515 424.427 825.614 424.564 825.72 424.772C825.807 424.961 825.868 425.077 825.908 425.159C825.929 425.203 825.949 425.251 826 425.358" stroke="#FFCBAE" stroke-width="2" stroke-linecap="round"/>
<path d="M787 378.543C787.031 378.614 787.136 378.776 787.246 378.938C787.348 379.089 787.429 379.232 787.482 379.394C787.542 379.581 787.618 379.749 787.696 379.916C787.79 380.117 787.859 380.317 787.948 380.489C788.058 380.703 788.225 380.935 788.325 381.103C788.441 381.297 788.54 381.463 788.613 381.62C788.708 381.822 788.822 382.02 788.891 382.193C788.972 382.398 789.147 382.628 789.273 382.836C789.47 383.162 789.545 383.338 789.645 383.506C789.761 383.7 789.86 383.906 790.027 384.154C790.385 384.684 790.468 384.859 790.583 385.021C790.71 385.2 790.865 385.396 790.976 385.599C791.099 385.827 791.346 386.065 791.536 386.299C791.705 386.508 791.882 386.623 791.992 386.76C792.114 386.913 792.238 387.09 792.369 387.272C792.497 387.449 792.594 387.667 792.757 387.86C792.943 388.082 793.149 388.326 793.369 388.514C793.517 388.64 793.704 388.803 793.904 388.971C794.043 389.087 794.218 389.178 794.386 389.28C794.584 389.4 794.867 389.503 795.077 389.584C795.284 389.664 795.496 389.696 795.701 389.736C795.883 389.773 796.093 389.787 796.303 389.823C796.511 389.858 796.888 389.889 797.558 389.964C798.508 390.072 798.681 389.909 798.891 389.828C799.149 389.728 799.341 389.656 799.624 389.585C799.891 389.518 800.137 389.423 800.405 389.296C800.685 389.163 801.153 388.937 801.452 388.789C801.721 388.657 801.949 388.42 802.144 388.302C802.302 388.207 802.432 388.044 802.563 387.882C802.703 387.709 802.82 387.558 802.93 387.395C803.032 387.244 803.114 387.081 803.218 386.873C803.343 386.624 803.449 386.402 803.527 386.214C803.601 386.039 803.679 385.834 803.81 385.313C803.974 384.66 803.931 384.243 803.947 383.863C803.953 383.715 803.973 383.392 803.978 382.972C803.981 382.762 804.004 382.138 803.999 381.241C803.996 380.723 803.942 380.441 803.884 380.167C803.841 379.962 803.795 379.781 803.748 379.598C803.691 379.379 803.607 379.223 803.538 379.056C803.464 378.874 803.418 378.706 803.298 378.443C803.198 378.224 803.083 377.956 802.978 377.784C802.889 377.637 802.842 377.479 802.753 377.262C802.587 376.859 802.454 376.628 802.349 376.395C802.256 376.186 802.119 375.898 801.967 375.559C801.845 375.286 801.731 375.026 801.611 374.803C801.471 374.543 801.354 374.326 801.265 374.134C801.164 373.915 800.988 373.668 800.851 373.429C800.711 373.184 800.558 373.018 800.422 372.851C800.282 372.679 800.202 372.501 800.029 372.339C799.868 372.188 799.762 371.974 799.61 371.782C799.353 371.538 799.186 371.356 799.039 371.133C799.007 371.082 798.976 371.041 798.944 371" stroke="#FFCBAE" stroke-width="2" stroke-linecap="round"/>
<path d="M798 369C798.036 369.093 798.158 369.306 798.299 369.519C798.453 369.753 798.622 369.919 798.763 370.119C798.896 370.307 798.977 370.453 798.996 370.513C799.044 370.668 798.673 370.374 798.544 370.207C798.51 370.163 798.477 370.121 798.465 370.133C798.513 370.359 798.635 370.626 798.702 370.839C798.721 370.893 798.745 370.946 798.806 371" stroke="#FFCBAE" stroke-width="2" stroke-linecap="round"/>
<path d="M806 385C806 385.159 805.958 385.648 805.93 386.326C805.918 386.643 805.882 386.877 805.845 387.063C805.795 387.311 805.775 387.527 805.695 387.788C805.612 388.062 805.594 388.327 805.577 388.519C805.563 388.694 805.497 388.903 805.444 389.154C805.381 389.448 805.187 389.788 805.08 390.05C804.983 390.286 804.781 390.567 804.54 390.861C804.261 391.2 803.296 391.622 802.86 391.842C802.224 392.163 801.86 392.242 801.431 392.402C801.107 392.523 800.63 392.669 800.27 392.797C799.946 392.913 799.528 392.904 798.699 392.984C798.03 393.048 797.729 392.905 797.476 392.809C797.215 392.709 797 392.606 796.78 392.537C796.423 392.424 796.1 392.254 796.031 392.217C795.997 392.199 795.993 392.148 796.009 392.115C796.096 391.935 796.484 391.976 796.715 391.939C796.912 391.907 797.094 391.848 797.612 391.769C797.896 391.725 798.26 391.688 798.566 391.609C798.828 391.54 799.404 391.327 799.823 391.161C800.167 391.025 800.626 390.857 800.83 390.814C801.017 390.774 801.193 390.643 801.45 390.558C801.833 390.431 802.189 390.281 802.392 390.153C802.672 389.977 802.885 389.865 803.157 389.647C803.949 389.013 804.009 388.809 804.132 388.559C804.202 388.318 804.223 388.148 804.261 387.913C804.287 387.807 804.34 387.638 804.395 387.464" stroke="#FFCBAE" stroke-width="2" stroke-linecap="round"/>
<path d="M657.9 230.538C657.9 230.571 657.9 231.149 657.809 232.419C657.758 233.133 657.537 233.971 657.444 234.594C657.206 236.174 657.2 236.852 657.117 237.369C657.088 237.55 657.1 237.816 657.108 237.91C657.249 237.706 657.582 237.306 657.924 236.881C658.032 236.756 658.164 236.624 658.3 236.488" stroke="#FFCBAE" stroke-width="2" stroke-linecap="round"/>
<path d="M660.5 235.287C660.715 235.238 661.082 235.071 661.374 234.963C661.797 234.806 662.181 234.605 662.582 234.405C662.663 234.364 662.732 234.354 662.741 234.321C662.908 233.722 661.07 233.256 660.328 232.889C659.751 232.603 659.435 232.338 659.151 232.146C658.905 231.98 658.668 231.788 658.26 231.505C657.657 231.087 657.302 230.838 656.943 230.729C656.821 230.693 656.637 230.671 654.225 230.547C651.813 230.423 647.177 230.208 644.64 230.131C642.103 230.053 641.806 230.119 641.579 230.186C640.911 230.383 640.221 230.602 639.352 230.754C639.231 230.776 639.266 230.606 639.308 230.506C639.386 230.317 639.879 229.808 640.595 229.109C641.408 228.315 642.182 227.688 642.349 227.438C642.524 227.178 642.583 226.855 642.666 226.58C642.785 226.188 643.016 225.921 643.008 225.788C642.988 225.453 642.435 225.388 641.672 224.783C641.239 224.44 640.449 223.931 639.901 223.544C639.056 222.925 638.684 222.654 638.559 222.58C638.5 222.538 638.451 222.488 638.45 222.337" stroke="#FFCBAE" stroke-width="2" stroke-linecap="round"/>
<path d="M639.65 223.237C639.949 223.72 640.314 224.382 640.516 224.894C640.662 225.263 640.766 225.453 640.833 225.562C640.908 225.685 641.891 225.654 643.199 225.687C643.733 225.701 643.866 225.787 644.007 225.903C644.376 226.207 644.582 226.685 644.658 227.01C644.384 227.287 644.167 227.404 644.001 227.437C643.917 227.454 643.835 227.47 643.6 227.487" stroke="#FFCBAE" stroke-width="2" stroke-linecap="round"/>
<path d="M806.25 384.425C806.234 384.541 806.134 384.873 806.017 385.182C805.901 385.488 805.917 385.807 805.85 386.074C805.834 386.141 805.817 386.207 805.767 386.241C805.635 386.275 805.484 386.291 805.368 386.349C805.317 386.391 805.284 386.457 805.25 386.575" stroke="#FFCBAE" stroke-width="2" stroke-linecap="round"/>
<path d="M806.7 390.825C806.832 390.99 806.949 391.158 807.074 391.332C807.248 391.523 807.63 391.856 808.088 392.231C808.266 392.375 808.332 392.424 808.4 392.475" stroke="#FFCBAE" stroke-width="2" stroke-linecap="round"/>
<path d="M796.85 390.975C796.85 391.008 796.8 391.075 796.725 391.183C796.528 391.466 797.148 392.32 797.681 393.314C797.884 393.69 798.082 393.891 798.349 394.091C798.55 394.241 798.931 393.975 799.357 394.157C799.84 394.364 799.849 394.873 799.941 395.298C799.9 395.775 799.767 396.007 799.659 396.316C799.633 396.391 799.617 396.457 799.55 396.575" stroke="#FFCBAE" stroke-width="2" stroke-linecap="round"/>
<path d="M819.7 411.3C819.667 411.416 819.369 411.781 819.051 412.049C818.796 412.264 818.551 412.449 818.052 412.774C817.736 412.979 817.518 413.166 817.218 413.283C816.806 413.444 816.452 413.698 815.271 414.613C814.796 414.982 814.452 415.166 814.101 415.324C813.81 415.456 813.122 415.598 812.643 415.716C812.301 415.801 811.968 415.833 811.701 415.9C811.434 415.966 811.102 416.033 809.888 416.033C809.423 416.034 809.135 415.867 808.843 415.759C808.768 415.731 808.685 415.717 808.709 415.692C808.822 415.571 809.363 415.6 809.88 415.592C810.034 415.589 809.968 415.567 809.901 415.558C809.619 415.523 809.318 415.434 809.001 415.383C808.835 415.334 808.684 415.283 808.551 415.25C808.484 415.233 808.418 415.217 808.3 415.2" stroke="#FFCBAE" stroke-width="2" stroke-linecap="round"/>
<path d="M830.975 464.15C830.859 464.366 830.726 464.632 830.526 464.891C830.478 464.952 830.426 464.999 830.409 465.058C830.392 465.116 830.408 465.182 830.499 465.216C831.008 465.406 831.473 465.366 831.899 465.417C832.196 465.452 832.391 465.434 832.442 465.392C832.882 465.03 831.01 465.267 830.726 465.159C830.467 465.06 830.16 464.885 829.884 464.692C829.776 464.601 829.708 464.468 829.675 464.285C829.659 464.185 829.642 464.069 829.625 463.95" stroke="#492110" stroke-width="2" stroke-linecap="round"/>
<path d="M809.025 420.05C808.885 420.124 808.745 420.198 805.81 421.94C802.875 423.682 797.149 427.089 791.225 430.575" stroke="#FFCBAE" stroke-width="2" stroke-linecap="round"/>
<path d="M830.013 440.375C830.062 440.4 830.146 440.516 830.192 440.65C830.238 440.786 830.296 440.933 830.358 441.075C830.417 441.209 830.429 441.383 830.462 441.525C830.535 441.832 830.504 442.341 830.517 442.495C830.546 442.855 830.554 443.441 830.567 443.595C830.579 443.744 830.613 443.908 830.654 444.074C830.695 444.237 830.721 444.408 830.729 445.38C830.732 445.697 830.605 445.874 830.554 446.025C830.505 446.174 830.339 446.324 830.234 446.475C830.13 446.623 830.005 446.766 829.913 446.9C829.822 447.032 829.713 447.141 829.592 447.27C829.46 447.412 829.272 447.558 829.138 447.625C829.005 447.692 828.872 447.775 828.759 447.871C828.731 447.894 828.697 447.908 828.696 447.921C828.696 447.933 828.729 447.942 828.762 447.938C828.913 447.92 829.037 447.801 829.162 447.721C829.295 447.637 829.404 447.509 829.508 447.371C829.609 447.239 829.671 447.093 829.762 446.951C829.848 446.818 829.912 446.701 829.987 446.576C830.068 446.441 830.137 446.284 830.212 446.146C830.291 446.002 830.337 445.859 830.387 445.726C830.446 445.57 830.504 445.384 830.537 445.251C830.575 445.099 830.613 444.934 830.658 444.759C830.697 444.611 830.704 444.459 830.708 444.176C830.711 443.99 830.646 443.843 830.592 443.701C830.543 443.571 830.521 443.434 830.463 443.28C830.41 443.14 830.371 443.009 830.317 442.851C830.262 442.689 830.263 442.534 830.234 442.396C830.2 442.236 830.146 442.109 830.125 441.967C830.098 441.783 830.046 441.659 829.992 441.501C829.936 441.337 829.896 441.168 829.842 441.021C829.786 440.87 829.746 440.718 829.713 440.571C829.677 440.416 829.621 440.284 829.579 440.146C829.528 439.975 829.471 439.818 829.4 439.676C829.339 439.553 829.305 439.393 829.263 439.23C829.225 439.083 829.171 438.934 829.117 438.73C829.064 438.53 829.071 438.343 829.013 438.089C828.966 437.883 828.93 437.652 828.904 437.447C828.881 437.254 828.838 437.093 828.813 436.93C828.788 436.767 828.771 436.584 828.758 436.417C828.754 436.367 828.746 436.31 828.738 436.2" stroke="#FFCBAE" stroke-width="2" stroke-linecap="round"/>
<path d="M0.5 283.5L23 248L49 213.5L75 184L99.5 160L137 127.5L177 100" stroke="black"/>
</g>
<defs>
<filter id="filter0_d_0_1" x="-75" y="-3" width="1129" height="1110" filterUnits="userSpaceOnUse" color-interpolation-filters="sRGB">
<feFlood flood-opacity="0" result="BackgroundImageFix"/>
<feColorMatrix in="SourceAlpha" type="matrix" values="0 0 0 0 0 0 0 0 0 0 0 0 0 0 0 0 0 0 127 0" result="hardAlpha"/>
<feOffset dx="15" dy="-10"/>
<feGaussianBlur stdDeviation="2"/>
<feComposite in2="hardAlpha" operator="out"/>
<feColorMatrix type="matrix" values="0 0 0 0 0 0 0 0 0 0 0 0 0 0 0 0 0 0 0.25 0"/>
<feBlend mode="normal" in2="BackgroundImageFix" result="effect1_dropShadow_0_1"/>
<feBlend mode="normal" in="SourceGraphic" in2="effect1_dropShadow_0_1" result="shape"/>
</filter>
<clipPath id="clip0_0_1">
<rect width="1056" height="1006" fill="white"/>
</clipPath>
</defs>
</svg>
