<svg width="1042" height="990" viewBox="0 0 1042 990" fill="none" xmlns="http://www.w3.org/2000/svg">
<rect width="1042" height="990" fill="#1E1E1E"/>
<g clip-path="url(#clip0_0_1)">
<rect width="1042" height="990" fill="#FFE8D6"/>
<path d="M471 8C769.295 8 1011 246.693 1011 541C1011 835.307 769.295 1074 471 1074C172.705 1074 -69 835.307 -69 541C-69 246.693 172.705 8 471 8Z" fill="#FFB082" stroke="#492110" stroke-width="10"/>
<path d="M471 128C702.475 128 890 312.973 890 541C890 769.027 702.475 954 471 954C239.525 954 52 769.027 52 541C52 312.973 239.525 128 471 128Z" fill="#FFCBAE" stroke="#492110" stroke-width="10"/>
<path d="M538 181C707.091 204.942 794.455 356.976 817 430" stroke="#492110" stroke-width="10"/>
<path d="M811.759 432C811.759 431.99 811.759 431.944 811.752 431.874C811.742 431.783 811.628 431.752 811.567 431.693C811.503 431.63 811.438 431.567 811.379 431.502C811.313 431.429 811.272 431.34 811.219 431.257C811.164 431.172 811.112 431.092 811.046 431.009C810.982 430.928 810.942 430.839 810.895 430.761C810.845 430.678 810.805 430.586 810.74 430.452C810.676 430.321 810.645 430.224 810.594 430.139C810.537 430.045 810.47 429.884 810.392 429.744C810.334 429.641 810.255 429.538 810.173 429.411C810.116 429.324 810.017 429.182 809.946 429.073C809.881 428.973 809.817 428.836 809.749 428.704C809.658 428.528 809.574 428.304 809.513 428.164C809.44 427.997 809.37 427.706 809.311 427.517C809.277 427.407 809.262 427.312 809.231 427.202C809.184 427.035 809.17 426.93 809.143 426.83C809.101 426.67 809.082 426.543 809.068 426.417C809.05 426.263 809.024 426.141 809.002 426.037C808.998 426.017 809 425.996 809.014 426.001C809.126 426.038 809.16 426.145 809.218 426.207C809.277 426.269 809.32 426.356 809.352 426.442C809.387 426.535 809.442 426.604 809.469 426.687C809.497 426.773 809.544 426.852 809.583 426.935C809.622 427.018 809.661 427.1 809.688 427.183C809.716 427.269 809.763 427.348 809.781 427.43C809.801 427.527 809.871 427.596 809.917 427.678C809.962 427.759 810.007 427.843 810.053 427.924C810.098 428.002 810.158 428.086 810.209 428.161C810.258 428.234 810.313 428.339 810.401 428.496C810.541 428.75 810.566 428.845 810.62 428.92C810.675 428.998 810.737 429.067 810.783 429.152C810.841 429.258 810.926 429.346 810.985 429.413C811.041 429.478 811.102 429.537 811.162 429.599C811.231 429.669 811.32 429.769 811.398 429.865C811.476 429.96 811.549 430.017 811.61 430.082C811.672 430.147 811.729 430.229 811.841 430.353C811.937 430.458 812.007 430.528 812.077 430.59C812.143 430.648 812.221 430.699 812.308 430.748C812.384 430.79 812.454 430.843 812.532 430.885C812.61 430.926 812.688 430.967 812.778 430.993C812.857 431.016 812.936 431.019 813.033 431.05C813.202 431.104 813.286 431.081 813.391 431.089C813.487 431.096 813.564 431.127 813.693 431.135C813.794 431.141 813.909 431.164 814.065 431.176C814.376 431.202 814.609 431.195 814.877 431.207C815.515 431.238 815.593 431.184 815.734 431.177C815.843 431.171 815.958 431.148 816.055 431.122C816.155 431.096 816.274 431.102 816.372 431.086C816.464 431.072 816.581 431.05 816.666 431.027C816.754 431.003 816.834 430.993 816.924 430.965C817.012 430.937 817.111 430.926 817.202 430.911C817.286 430.896 817.389 430.849 817.498 430.833C817.606 430.818 817.681 430.782 817.759 430.761C817.837 430.74 817.934 430.72 818.046 430.684C818.136 430.655 818.231 430.617 818.314 430.591C818.398 430.564 818.493 430.508 818.591 430.475C818.756 430.405 818.863 430.363 818.941 430.34C818.961 430.332 818.98 430.322 819 430.312" stroke="#FFCBAE" stroke-width="2" stroke-linecap="round"/>
<path d="M822.491 430C822.497 429.957 822.519 429.817 822.57 429.606C822.612 429.431 822.7 429.261 822.748 429.128C822.814 428.947 822.858 428.839 822.878 428.75C822.901 428.646 822.915 428.269 822.932 428.034C822.941 427.904 822.96 427.775 822.98 427.664C823.012 427.485 823 427.011 822.986 426.726C822.981 426.64 822.966 426.468 822.952 426.316C822.94 426.186 822.932 425.993 822.918 425.846C822.906 425.727 822.898 425.427 822.881 425.233C822.869 425.095 822.853 424.912 822.844 424.663C822.84 424.532 822.813 424.329 822.796 424.166C822.786 424.061 822.762 423.891 822.746 423.707C822.732 423.561 822.717 423.356 822.709 423.258C822.7 423.159 822.667 423.042 822.647 422.902C822.628 422.767 822.604 422.648 822.587 422.488C822.575 422.369 822.526 422.243 822.503 422.107C822.481 421.982 822.452 421.875 822.424 421.77C822.4 421.681 822.378 421.594 822.356 421.508C822.332 421.415 822.305 421.308 822.26 421.173C822.225 421.066 822.209 420.957 822.172 420.846C822.143 420.758 822.136 420.67 822.107 420.568C822.085 420.443 822.051 420.292 822.023 420.168C822.017 420.13 822.017 420.082 822 420" stroke="#FFCBAE" stroke-width="2" stroke-linecap="round"/>
<path d="M819 430.952C819.021 430.972 819.104 430.992 819.186 431C819.286 431.009 819.314 430.847 819.367 430.775C819.423 430.698 819.503 430.652 819.558 430.582C819.621 430.502 819.749 430.522 819.833 430.487C819.917 430.452 820.001 430.422 820.085 430.395C820.172 430.366 820.263 430.317 820.349 430.287C820.433 430.258 820.52 430.212 820.606 430.172C820.7 430.129 820.828 430.088 820.934 430.04C821.018 430.002 821.117 429.963 821.201 429.917C821.281 429.874 821.353 429.813 821.424 429.753C821.503 429.685 821.589 429.608 821.67 429.515C821.743 429.433 821.799 429.338 821.848 429.258C821.9 429.175 821.945 429.098 822.029 429.005C822.099 428.928 822.144 428.843 822.207 428.763C822.269 428.685 822.328 428.603 822.386 428.52C822.456 428.421 822.522 428.343 822.572 428.255C822.624 428.163 822.695 428.058 822.758 427.928C822.807 427.826 822.842 427.748 822.881 427.668C822.921 427.587 822.941 427.483 822.962 427.371C822.983 427.262 823.01 427.134 822.997 427.029C822.992 426.991 822.958 426.993 822.944 427.02C822.874 427.164 822.905 427.257 822.897 427.362C822.89 427.449 822.847 427.527 822.818 427.607C822.811 427.628 822.8 427.647 822.795 427.667C822.789 427.688 822.789 427.707 822.789 427.728" stroke="#FFCBAE" stroke-width="2" stroke-linecap="round"/>
<path d="M537 178C537 177.814 537.021 177.421 537.05 177.311C537.072 177.228 537.121 177.162 537.16 177.077C537.202 176.987 537.267 176.912 537.328 176.812C537.379 176.727 537.414 176.654 537.464 176.58C537.529 176.484 537.614 176.435 537.677 176.368C537.742 176.299 537.834 176.261 537.913 176.208C537.993 176.153 538.081 176.123 538.162 176.074C538.234 176.03 538.306 175.994 538.385 175.942C538.461 175.893 538.563 175.851 538.721 175.775C538.832 175.721 539.009 175.686 539.125 175.659C539.209 175.64 539.303 175.623 539.422 175.605C539.582 175.581 539.802 175.543 539.92 175.527C540.1 175.504 540.28 175.485 540.421 175.463C540.541 175.444 540.679 175.431 540.778 175.418C540.884 175.404 541.009 175.391 541.143 175.376C541.335 175.354 541.545 175.342 541.746 175.327C542.371 175.278 542.51 175.311 542.641 175.3C542.783 175.288 542.961 175.284 543.129 175.273C543.276 175.264 543.735 175.258 544.032 175.269C544.19 175.275 544.295 175.293 544.449 175.3C544.584 175.306 544.741 175.32 544.88 175.327C545.05 175.335 545.271 175.347 545.514 175.353C545.681 175.358 545.93 175.378 546.121 175.389C546.258 175.397 546.394 175.414 546.585 175.42C546.689 175.424 546.793 175.44 546.89 175.447C546.989 175.454 547.164 175.472 547.312 175.487C547.471 175.504 547.669 175.521 547.79 175.536C548.008 175.565 548.147 175.565 548.291 175.576C548.435 175.587 548.561 175.592 548.794 175.603C549.338 175.629 549.443 175.628 549.572 175.643C549.788 175.67 549.884 175.668 550.005 175.674C550.122 175.681 550.204 175.708 550.356 175.715C550.473 175.72 550.587 175.739 550.695 175.75C550.813 175.762 550.944 175.779 550.979 175.77C551.089 175.742 550.741 175.57 550.627 175.512C550.485 175.439 550.269 175.369 549.824 175.196C549.555 175.091 549.07 174.918 548.801 174.822C548.417 174.687 548.3 174.647 548.145 174.593C548.08 174.571 547.981 174.54 547.785 174.493C547.589 174.447 547.298 174.385 546.779 174.309C546.26 174.233 545.522 174.145 545.033 174.095C544.544 174.045 544.326 174.036 544.198 174.029C544.07 174.022 544.039 174.018 543.776 174.011C543.513 174.005 543.019 173.996 542.781 174.002C542.542 174.009 542.573 174.031 542.607 174.049C542.793 174.146 543.066 174.178 543.35 174.218C543.567 174.254 543.931 174.32 544.134 174.358C544.337 174.397 544.368 174.406 544.4 174.415" stroke="#FFCBAE" stroke-width="2" stroke-linecap="round"/>
<path d="M537 181C537.071 180.796 537.183 180.373 537.211 180.273C537.235 180.185 537.269 180.1 537.287 180.024C537.305 179.948 537.305 179.842 537.32 179.748C537.335 179.655 537.346 179.569 537.376 179.485C537.415 179.378 537.422 179.287 537.445 179.198C537.474 179.084 537.518 178.99 537.564 178.899C537.62 178.789 537.656 178.65 537.719 178.545C537.778 178.447 537.839 178.368 537.91 178.25C537.965 178.161 538.037 178.066 538.096 177.984C538.149 177.911 538.245 177.774 538.34 177.668C538.406 177.594 538.51 177.511 538.622 177.405C538.76 177.276 538.982 177.143 539.176 177.003C539.366 176.867 539.476 176.821 539.644 176.747C539.931 176.62 540.3 176.572 540.417 176.555C540.578 176.532 540.667 176.51 540.768 176.481C540.866 176.453 541.002 176.443 541.147 176.407C541.291 176.371 541.435 176.347 541.567 176.309C541.673 176.278 541.786 176.261 541.897 176.225C542.005 176.191 542.091 176.18 542.185 176.17C542.272 176.161 542.35 176.127 542.434 176.105C542.555 176.074 542.711 176.074 542.937 176.038C543.111 176.011 543.245 176.017 543.813 176.005C544.259 175.995 545.11 176.002 545.559 176.005C546.119 176.008 546.332 176.026 546.505 176.033C546.597 176.037 546.749 176.045 546.967 176.053C547.377 176.066 547.608 176.107 547.772 176.12C547.99 176.136 548.255 176.141 548.699 176.144C548.917 176.145 549.31 176.094 549.557 176.072C549.588 176.069 549.618 176.065 549.691 176.062C549.765 176.06 549.881 176.06 550 176.06" stroke="#FFCBAE" stroke-width="2" stroke-linecap="round"/>
<path d="M537.217 180C537.205 180.059 537.165 180.155 537.147 180.241C537.128 180.329 537.121 180.46 537.109 180.562C537.096 180.669 537.088 180.797 537.082 181.139C537.08 181.297 537.06 181.392 537.04 181.494C537.021 181.593 537.016 181.681 537.01 181.873C537.009 181.917 537.004 181.938 537.002 182.132C536.996 182.691 537.004 183.089 537.012 183.135C537.03 183.238 537.048 183.378 537.062 183.486C537.075 183.581 537.08 183.7 537.094 183.807C537.108 183.913 537.108 184.053 537.12 184.163C537.134 184.283 537.14 184.412 537.143 184.604C537.144 184.723 537.125 184.84 537.119 185.078C537.114 185.274 537.124 185.52 537.135 185.627C537.147 185.761 537.16 185.879 537.173 186.016C537.181 186.114 537.221 186.195 537.241 186.281C537.261 186.367 537.285 186.452 537.319 186.527C537.356 186.608 537.377 186.693 537.42 186.765C537.464 186.842 537.506 186.955 537.558 187.071C537.618 187.204 537.674 187.314 537.731 187.477C537.806 187.623 537.883 187.78 537.935 187.897C537.96 187.946 537.98 187.973 538 188" stroke="#FFCBAE" stroke-width="2" stroke-linecap="round"/>
<path d="M536.039 183C536.039 183.093 536.029 183.3 536.012 183.417C535.972 183.688 536.044 183.771 536.073 183.848C536.102 183.924 536.132 183.991 536.186 184.061C536.235 184.125 536.288 184.184 536.342 184.243C536.402 184.307 536.431 184.382 536.501 184.467C536.563 184.542 536.602 184.611 536.629 184.696C536.661 184.798 536.675 184.907 536.727 184.996C536.785 185.098 536.808 185.176 536.859 185.239C536.922 185.316 537.003 185.391 537.084 185.454C537.176 185.525 537.244 185.571 537.302 185.638C537.366 185.711 537.439 185.804 537.496 185.901C537.537 185.971 537.611 186.033 537.67 186.107C537.724 186.176 537.778 186.262 537.831 186.338C537.885 186.414 537.939 186.482 537.993 186.551C538.041 186.613 538.081 186.675 538.147 186.731C538.206 186.781 538.243 186.859 538.289 186.931C538.338 187.006 538.419 187.061 538.48 187.121C538.549 187.189 538.62 187.231 538.689 187.285C538.781 187.357 538.855 187.406 538.933 187.453C539.013 187.501 539.105 187.541 539.198 187.577C539.294 187.614 539.384 187.635 539.482 187.673C539.599 187.719 539.688 187.743 539.774 187.774C539.859 187.806 539.942 187.815 540.04 187.848C540.169 187.892 540.266 187.922 540.344 187.945C540.43 187.969 540.54 188.03 540.65 188.068C540.82 188.127 540.956 188.174 541.093 188.212C541.241 188.253 541.338 188.281 541.536 188.342C541.689 188.388 541.871 188.456 542.019 188.494C542.129 188.523 542.322 188.564 542.448 188.607C542.543 188.639 542.753 188.662 542.916 188.696C543.024 188.719 543.102 188.739 543.21 188.753C543.319 188.766 543.435 188.802 543.557 188.838C543.656 188.867 543.788 188.887 543.949 188.921C544.072 188.946 544.189 188.972 544.283 188.988C544.361 189.001 544.449 189.017 544.542 189.044C544.682 189.084 544.802 189.102 544.905 189.127C545.036 189.159 545.261 189.21 545.426 189.248C545.532 189.273 545.649 189.291 545.769 189.316C545.889 189.34 545.977 189.349 546.09 189.376C546.229 189.409 546.418 189.439 546.516 189.453C546.599 189.464 546.673 189.488 546.756 189.511C546.88 189.544 547.04 189.556 547.143 189.578C547.273 189.606 547.364 189.61 547.444 189.634C547.537 189.662 547.647 189.659 547.765 189.686C547.87 189.71 547.971 189.722 548.11 189.767C548.209 189.798 548.338 189.829 548.441 189.852C548.521 189.869 548.608 189.91 548.711 189.935C548.74 189.942 548.774 189.95 548.818 189.959C548.862 189.969 548.916 189.977 549 190" stroke="#FFCBAE" stroke-width="2" stroke-linecap="round"/>
<path d="M807 424.13C807 424.248 807.041 424.504 807.099 424.663C807.159 424.828 807.281 424.978 807.401 425.136C807.51 425.279 807.605 425.422 807.714 425.556C807.826 425.691 807.939 425.817 808.059 425.941C808.175 426.059 808.273 426.162 808.367 426.32C808.454 426.468 808.472 426.636 808.549 426.843C808.614 427.016 808.68 427.199 808.748 427.357C808.812 427.506 808.92 427.662 809.029 427.811C809.156 427.983 809.274 428.176 809.405 428.309C809.534 428.441 809.609 428.639 809.718 428.783C809.835 428.935 809.901 429.142 809.979 429.315C810.065 429.506 810.224 429.626 810.329 429.784C810.442 429.956 810.579 430.09 810.751 430.278C810.909 430.45 811.122 430.603 811.263 430.727C811.396 430.843 811.56 430.9 811.722 430.998C811.882 431.095 812.04 431.205 812.192 431.299C812.341 431.392 812.499 431.501 812.682 431.6C812.953 431.747 813.188 431.818 813.449 431.877C813.591 431.909 813.752 431.916 814.13 431.961C814.926 432.054 815.546 431.956 815.755 431.926C816.251 431.856 816.611 431.818 816.825 431.793C817.122 431.758 817.289 431.729 817.519 431.685C817.795 431.631 818.093 431.63 818.276 431.611C818.478 431.589 818.656 431.512 818.845 431.468C819.112 431.405 819.397 431.266 819.612 431.172C819.792 431.093 819.951 431.019 820.087 430.886C820.228 430.747 820.389 430.546 820.655 430.294C820.927 430.036 821.274 429.777 821.527 429.593C821.721 429.452 822.017 429.312 822.283 429.169C822.642 428.975 823.122 428.779 823.364 428.577C823.522 428.444 823.666 428.227 823.792 427.97C823.892 427.765 823.938 427.428 823.985 426.932C824.013 426.632 824.001 426.23 823.954 425.721C823.908 425.212 823.815 424.606 823.726 424.148C823.578 423.391 823.458 423.016 823.396 422.751C823.195 421.893 823.041 421.694 822.963 421.511C822.862 421.275 822.749 421.121 822.629 420.963C822.509 420.805 822.321 420.628 822.185 420.435C822.072 420.274 821.935 420.144 821.805 420.025C821.774 419.998 821.727 419.996 821.69 420.005C821.653 420.015 821.622 420.044 821.606 420.098C821.534 420.341 821.653 420.508 821.689 420.666C821.727 420.833 821.819 421.001 821.872 421.174C821.928 421.359 822.018 421.514 822.065 421.677C822.126 421.889 822.237 422.077 822.305 422.235C822.37 422.387 822.414 422.551 822.446 422.714C822.484 422.912 822.55 423.083 822.566 423.266C822.573 423.351 822.592 423.654 822.597 424.083C822.6 424.307 822.623 424.914 822.618 425.768C822.615 426.223 822.571 426.419 822.555 426.71C822.545 426.898 822.446 427.07 822.399 427.238C822.351 427.412 822.269 427.603 822.19 427.771C822.12 427.921 822.102 428.087 822.034 428.274C821.964 428.468 821.893 428.669 821.804 428.837C821.715 429.006 821.591 429.133 821.403 429.31C821.184 429.518 820.975 429.695 820.813 429.814C820.668 429.921 820.474 430.011 820.302 430.086C820.112 430.168 819.963 430.277 819.811 430.406C819.681 430.517 819.504 430.584 819.31 430.688C819.157 430.77 818.971 430.781 818.804 430.826C818.585 430.91 818.355 430.979 818.272 431.003C818.23 431.018 818.189 431.038 818.146 431.058" stroke="#FFCBAE" stroke-width="2" stroke-linecap="round"/>
<path d="M821 419C821.037 419.038 821.081 419.192 821.129 419.347C821.176 419.496 821.178 419.675 821.218 419.84C821.256 419.991 821.274 420.168 821.329 420.357C821.376 420.514 821.415 420.671 821.466 420.826C821.518 420.98 821.563 421.134 821.6 421.294C821.642 421.474 821.704 421.627 821.73 421.782C821.755 421.935 821.792 422.091 821.804 422.246C821.815 422.404 821.844 422.746 821.867 422.999C821.881 423.167 821.926 423.337 821.952 423.516C821.963 423.792 821.985 423.908 821.996 424.133C822 424.32 822 424.655 822 425" stroke="#FFCBAE" stroke-width="2" stroke-linecap="round"/>
<path d="M798 409C798.02 408.869 798.062 408.381 798.185 407.982C798.283 407.665 798.453 407.379 798.566 407.077C798.691 406.745 798.844 406.417 798.927 406.114C799.008 405.816 799.071 405.511 799.164 405.199C799.265 404.861 799.236 404.437 799.298 404.077C799.35 403.769 799.463 403.473 799.504 403.171C799.557 402.786 799.689 402.341 799.741 401.757C799.783 401.284 799.874 400.757 799.988 400.454C800.107 400.139 800.307 399.851 800.503 399.586C800.707 399.311 800.842 399.039 801.039 398.747C801.265 398.41 801.522 398.19 801.76 397.954C801.988 397.727 802.264 397.568 802.522 397.35C802.798 397.118 803.17 397.02 803.501 396.888C803.881 396.736 804.283 396.567 804.665 396.482C805.046 396.397 805.396 396.227 805.726 396.105C805.886 396.045 806.199 396.038 806.58 396.029C806.82 396.023 807.983 395.982 809.652 396.01C810.464 396.023 810.774 396.283 811.104 396.443C811.449 396.611 811.701 396.849 811.98 397.075C812.208 397.26 812.464 397.452 812.712 397.688C812.981 397.945 813.165 398.225 813.433 398.528C813.667 398.792 813.886 399.037 814.123 399.329C814.379 399.645 814.525 399.98 814.7 400.292C814.752 400.377 814.813 400.47 814.875 400.546C814.938 400.622 814.999 400.678 815 400.68" stroke="#FFCBAE" stroke-width="2" stroke-linecap="round"/>
<path d="M806.03 383C806.008 383.009 805.985 383.158 806.013 383.303C806.042 383.45 806.177 383.578 806.24 383.727C806.304 383.88 806.337 384.044 806.427 384.203C806.508 384.345 806.53 384.501 806.609 384.655C806.698 384.829 806.79 384.977 806.91 385.155C807.029 385.332 807.052 385.527 807.092 385.696C807.141 385.906 807.233 386.069 807.268 386.218C807.304 386.375 807.403 386.535 807.483 386.694C807.558 386.843 807.585 387.039 807.631 387.203C807.683 387.391 807.687 387.599 807.727 387.809C807.783 388.1 807.767 388.344 807.795 388.541C807.818 388.7 807.835 389.053 807.864 389.325C807.894 389.614 807.903 389.93 807.937 390.169C807.981 390.48 807.994 390.911 808 391.409C808.003 391.632 807.937 391.779 807.904 391.928C807.869 392.082 807.801 392.3 807.739 392.488C807.68 392.666 807.564 392.852 807.495 392.992C807.424 393.137 807.325 393.272 807.189 393.458C807.052 393.608 806.939 393.738 806.809 393.855C806.769 393.879 806.724 393.897 806.643 394" stroke="#FFCBAE" stroke-width="2" stroke-linecap="round"/>
<path d="M792 387C792.04 387.038 792.119 387.189 792.239 387.313C792.354 387.432 792.508 387.531 792.628 387.655C792.739 387.77 792.787 387.931 792.867 388.083C792.945 388.232 792.996 388.387 793.071 388.563C793.137 388.716 793.166 388.871 793.226 389.024C793.288 389.183 793.346 389.328 793.415 389.466C793.466 389.567 793.287 389.206 793.212 389.053C793.123 388.873 792.977 388.731 792.947 388.375C792.936 388.243 792.887 388.16 792.892 388.107C792.894 388.087 792.946 388.102 792.981 388.121C793.12 388.196 793.146 388.406 793.231 388.586C793.3 388.734 793.366 388.871 793.435 389.047C793.501 389.215 793.644 389.337 793.69 389.475C793.739 389.625 793.943 389.793 794.068 389.965C794.181 390.118 794.282 390.268 794.362 390.425C794.458 390.613 794.562 390.782 794.636 390.934C794.717 391.099 794.841 391.238 794.911 391.39C794.986 391.554 795.07 391.713 795.145 391.87C795.215 392.018 795.349 392.131 795.474 392.326C795.596 392.517 795.718 392.635 795.833 392.763C795.965 392.912 796.077 393.034 796.216 393.139C796.382 393.264 796.525 393.433 796.665 393.585C796.796 393.727 796.914 393.861 797.029 394.008C797.146 394.16 797.313 394.232 797.423 394.346C797.539 394.466 797.701 394.536 797.861 394.636C798.016 394.733 798.2 394.84 798.35 394.954C798.518 395.082 798.688 395.163 798.848 395.263C798.996 395.355 799.167 395.391 799.336 395.472C799.542 395.57 799.705 395.6 799.865 395.662C800.034 395.728 800.243 395.733 800.403 395.809C800.559 395.884 800.722 395.895 800.882 395.947C801.258 396.07 801.918 395.943 802.425 395.919C802.834 395.9 803.354 395.876 803.662 395.857C803.861 395.845 804.012 395.744 804.206 395.71C804.43 395.672 804.58 395.601 804.745 395.501C804.935 395.386 805.148 395.335 805.288 395.245C805.453 395.139 805.607 395.05 805.786 394.95C805.975 394.845 806.085 394.698 806.235 394.537C806.375 394.386 806.583 394.167 806.699 393.99C806.763 393.929 806.902 393.834 807.2 393.668C807.399 393.568 807.695 393.437 808 393.301" stroke="#FFCBAE" stroke-width="2" stroke-linecap="round"/>
<path d="M812 390.006C811.918 389.978 811.706 390.053 811.469 390.167C811.161 390.317 811.021 390.576 810.837 390.719C810.663 390.854 810.584 391.033 810.471 391.18C810.331 391.363 810.1 391.612 809.846 391.883C809.647 392.095 809.485 392.268 809.326 392.44C809.122 392.659 809.013 392.82 809 393.237C808.994 393.448 809.106 393.619 809.195 393.747C809.3 393.901 809.566 393.905 809.885 393.924C809.956 393.933 810.003 393.952 810.051 393.966C810.098 393.981 810.145 393.99 810.193 394" stroke="#FFCBAE" stroke-width="2" stroke-linecap="round"/>
<path d="M797.924 398.201C797.863 398.192 797.705 398.119 797.481 398.009C797.146 397.844 797.063 397.688 797.005 397.601C796.963 397.536 797.184 397.394 797.347 397.265C797.481 397.16 797.659 397.091 797.84 397.022C797.978 396.969 798.143 397.017 798.288 397.104C798.506 397.234 798.626 397.329 798.763 397.453C798.882 397.561 798.96 397.878 798.996 398.241C799.021 398.49 798.909 398.632 798.852 398.779C798.838 398.816 798.83 398.852 798.816 398.889C798.803 398.926 798.786 398.963 798.689 399" stroke="#FFCBAE" stroke-width="2" stroke-linecap="round"/>
<path d="M791.595 387C791.595 386.839 791.518 386.474 791.42 386.148C791.313 385.795 791.322 385.377 791.205 385.052C791.088 384.726 791.088 384.341 791.049 383.814C790.975 382.822 790.99 381.234 791.058 380.899C791.138 380.51 791.127 380.138 791.195 379.812C791.266 379.469 791.4 379.123 791.487 378.777C791.58 378.412 791.79 378.026 791.955 377.63C792.108 377.265 792.394 377.01 792.658 376.725C792.894 376.471 793.193 376.218 793.526 375.933C793.798 375.7 794.091 375.527 794.442 375.385C794.937 375.184 795.359 375.242 795.701 375.181C796.084 375.113 796.819 375.059 797.379 375.009C797.934 374.959 798.247 375.14 798.56 375.201C798.9 375.268 799.204 375.424 799.496 375.546C799.791 375.67 800.082 375.728 800.374 375.891C800.652 376.046 800.998 376.053 801.311 376.287C801.709 376.584 802.013 377.048 802.297 377.322C802.58 377.597 802.794 377.901 803.087 378.277C803.301 378.553 803.438 378.875 803.653 379.201C803.865 379.523 804.121 379.749 804.346 380.003C804.55 380.258 804.746 380.379 804.833 380.541C804.882 380.623 804.94 380.703 805 380.847" stroke="#FFCBAE" stroke-width="2" stroke-linecap="round"/>
<path d="M791 385.615C791 385.656 791 385.761 791 385.909C791 385.983 791 386.014 791 385.994C791 385.877 791 385.385 791 385.047C791 384.709 791 383.873 791 383.267C791 382.835 791 382.121 791 381.497C791 381.36 791 381.214 791 381" stroke="#FFCBAE" stroke-width="2" stroke-linecap="round"/>
<path d="M793.519 359C793.568 359.038 793.647 359.19 793.751 359.347C793.857 359.508 793.885 359.676 793.964 359.857C794.042 360.035 794.092 360.19 794.127 360.343C794.166 360.511 794.27 360.666 794.349 360.857C794.425 361.04 794.527 361.209 794.621 361.372C794.718 361.538 794.824 361.724 794.918 361.924C795.024 362.148 795.052 362.305 795.116 362.458C795.182 362.615 795.249 362.791 795.304 362.943C795.359 363.099 795.408 363.248 795.496 363.424C795.59 363.61 795.645 363.848 795.739 364.001C795.835 364.158 795.862 364.382 795.946 364.544C796.021 364.688 796.08 364.867 796.149 365.03C796.211 365.173 796.258 365.334 796.312 365.492C796.375 365.672 796.446 365.839 796.49 366.03C796.534 366.217 796.575 366.363 796.599 366.544C796.625 366.735 796.683 366.906 796.698 367.154C796.709 367.329 796.772 367.478 796.807 367.654C796.861 367.931 796.842 368.163 796.866 368.345C796.888 368.506 796.901 368.81 796.93 369.055C796.953 369.241 796.98 369.45 796.995 370.105C797.006 370.611 797 371.241 796.96 371.412C796.912 371.622 796.852 371.812 796.783 371.975C796.717 372.129 796.654 372.279 796.501 372.456C796.382 372.593 796.298 372.737 796.17 372.842C796.029 372.957 795.903 373.099 795.769 373.199C795.634 373.3 795.488 373.404 795.329 373.537C795.174 373.668 794.944 373.804 794.766 373.918C794.601 374.024 794.449 374.147 794.291 374.237C794.125 374.332 793.945 374.423 793.787 374.49C793.64 374.552 793.48 374.642 793.282 374.695C793.091 374.746 792.936 374.795 792.744 374.828C792.417 374.885 792.254 374.881 791.475 374.895C791.155 374.901 790.959 374.938 790.667 374.952C790.453 374.963 790.237 374.995 789.684 375C789.434 375.002 789.258 374.938 789.035 374.886C788.794 374.829 788.635 374.795 788.476 374.748C788.321 374.7 788.16 374.653 788.002 374.576C787.843 374.5 787.686 374.424 787.522 374.338C787.321 374.232 787.201 374.091 787.048 374C786.871 373.895 786.736 373.795 786.607 373.69C786.478 373.586 786.34 373.491 786.202 373.333C786 373.105 785.885 372.986 785.752 372.833C785.626 372.689 785.52 372.529 785.416 372.381C785.32 372.246 785.213 372.119 785.119 371.976C785.014 371.817 784.906 371.671 784.793 371.519C784.66 371.339 784.531 371.157 784.412 371.033C784.298 370.913 784.224 370.757 784.115 370.604C784.007 370.451 783.908 370.299 783.823 370.123C783.747 369.964 783.69 369.766 783.586 369.604C783.49 369.453 783.453 369.252 783.359 369.028C783.205 368.661 783.107 368.47 783.013 368.313C782.903 368.13 782.81 367.975 782.711 367.832C782.575 367.635 782.395 367.46 782.281 367.317C782.171 367.179 782.039 367.041 781.895 366.775C781.789 366.577 781.624 366.384 781.544 366.227C781.44 366.021 781.327 365.869 781.257 365.722C781.158 365.593 781.119 365.469 781.099 365.365C781.08 365.307 781.04 365.241 781 365.173" stroke="#FFCBAE" stroke-width="2" stroke-linecap="round"/>
<path d="M786 374.232C786.059 374.297 786.177 374.449 786.354 374.785C786.67 375.384 786.848 376.015 786.952 376.277C787.031 376.476 787.173 376.679 787.302 376.87C787.408 377.028 787.558 377.169 787.746 377.349C787.911 377.507 788.101 377.561 788.313 377.762C788.751 378.178 788.782 378.464 788.876 378.665C788.968 378.863 789.117 379.202 789.211 379.519C789.273 379.725 789.325 379.901 789.345 379.961C789.427 380.211 789.394 379.195 789.414 378.945C789.444 378.561 789.502 378.194 789.532 377.987C789.561 377.785 789.729 377.628 789.803 377.47C789.893 377.278 790.123 377.171 790.345 377.04C790.572 376.907 790.785 376.746 791.114 376.529C791.419 376.328 791.613 376.278 791.796 376.164C791.949 376.068 792.117 376.05 792.324 375.941C792.501 375.847 792.845 375.745 793.084 375.641C793.294 375.55 793.517 375.462 793.676 375.348C793.848 375.224 794.119 375.147 794.302 375.016C794.511 374.868 794.692 374.765 794.884 374.673C795.231 374.507 795.432 374.45 795.722 374.352C796.095 374.227 796.31 374.135 796.527 374.069C796.699 374.017 796.872 373.917 797.114 373.819C797.286 373.75 797.484 373.645 797.731 373.514C797.916 373.416 798.076 373.232 798.214 373.042C798.466 372.695 798.491 372.481 798.531 372.28C798.603 371.916 798.639 371.288 798.664 370.877C798.692 370.403 798.639 370.207 798.595 369.957C798.497 369.404 798.363 369.152 798.294 369.004C798.265 368.942 798.44 369.603 798.692 370.332C798.848 370.784 799.131 371.064 799.329 371.331C799.576 371.665 799.987 372.344 800.301 372.822C800.474 373.086 800.72 373.533 800.884 373.791C800.948 373.892 800.977 374.014 800.997 374.079C801.045 374.234 800.458 373.885 800.051 373.694C799.814 373.601 799.636 373.492 799.557 373.454C799.518 373.438 799.479 373.427 799.438 373.416" stroke="#FFCBAE" stroke-width="2" stroke-linecap="round"/>
<path d="M656 232C655.939 231.969 655.795 231.866 655.631 231.784C655.47 231.703 655.333 231.609 655.168 231.562C654.997 231.514 654.85 231.372 654.675 231.289C654.504 231.209 654.326 231.033 654.176 230.888C654.019 230.736 653.791 230.62 653.631 230.512C653.486 230.413 653.349 230.301 653.179 230.157C652.932 229.946 652.784 229.766 652.639 229.595C652.524 229.459 652.393 229.322 652.264 229.183C652.072 228.975 651.838 228.715 651.689 228.591C651.54 228.467 651.437 228.282 651.339 228.107C651.243 227.934 651.128 227.798 651.005 227.617C650.884 227.442 650.789 227.252 650.727 227.087C650.666 226.925 650.614 226.757 650.552 226.592C650.49 226.426 650.46 226.211 650.419 226.036C650.377 225.858 650.326 225.635 650.295 225.413C650.264 225.189 650.234 224.884 650.203 224.589C650.169 224.265 650.152 223.832 650.136 223.466C650.125 223.212 650.09 223.028 650.074 222.504C650.068 222.307 650.038 222.193 650.023 221.902C649.958 220.67 650.049 220.463 650.084 220.288C650.119 220.117 650.182 219.938 650.238 219.731C650.293 219.535 650.336 219.371 650.393 219.175C650.454 218.964 650.552 218.763 650.629 218.557C650.696 218.361 650.788 218.237 650.845 218.155C650.871 218.114 650.891 218.073 651.004 218" stroke="#FFCBAE" stroke-width="2" stroke-linecap="round"/>
<path d="M650 223C650.041 222.822 650.095 222.423 650.13 222.144C650.152 221.967 650.192 221.798 650.212 221.071C650.22 220.793 650.274 220.624 650.294 220.425C650.313 220.244 650.41 220.074 650.472 219.932C650.544 219.768 650.698 219.611 650.828 219.431C650.935 219.283 651.15 219.194 651.349 219.08C651.591 218.941 651.876 218.739 652.225 218.508C652.465 218.341 652.671 218.199 652.76 218.147C652.808 218.123 652.862 218.105 653 218" stroke="#FFCBAE" stroke-width="2" stroke-linecap="round"/>
<path d="M667 222C666.932 221.962 666.758 221.886 666.568 221.799C666.406 221.726 666.214 221.627 666.01 221.536C665.798 221.442 665.612 221.33 665.456 221.235C665.312 221.146 665.145 221.091 664.99 221.024C664.834 220.957 664.679 220.9 664.523 220.823C664.363 220.744 664.184 220.699 664.028 220.622C663.865 220.542 663.669 220.469 663.45 220.369C663.262 220.282 663.067 220.192 662.896 220.101C662.745 220.02 662.61 219.895 662.478 219.794C662.339 219.688 662.173 219.608 662.041 219.507C661.905 219.404 661.716 219.33 661.551 219.225C661.404 219.131 661.172 219.072 660.997 219.009C660.839 218.953 660.696 218.833 660.429 218.732C660.195 218.644 659.968 218.536 659.826 218.455C659.691 218.377 659.521 218.335 659.336 218.292C659.137 218.245 658.948 218.191 658.758 218.177C658.592 218.164 658.192 218.095 657.705 218.048C657.492 218.027 657.344 218.028 657.065 218.014C656.382 217.979 655.887 218.019 655.761 218.033C655.365 218.078 654.938 218.067 654.619 218.095C654.455 218.11 654.304 218.191 654.124 218.263C653.967 218.325 653.808 218.392 653.653 218.468C653.489 218.549 653.294 218.64 653.027 218.774C652.825 218.876 652.672 218.995 652.511 219.124C652.333 219.267 652.166 219.387 652.021 219.478C651.86 219.578 651.758 219.731 651.666 219.87C651.57 220.013 651.467 220.162 651.355 220.305C651.25 220.44 651.205 220.612 651.141 220.765C651.087 220.918 651.049 221.071 651.005 221.224C651 221.263 651 221.301 651 221.34" stroke="#FFCBAE" stroke-width="2" stroke-linecap="round"/>
<path d="M650 221.272C650.05 221.238 650.171 221.135 650.303 221.041C650.434 220.947 650.525 220.801 650.636 220.68C650.747 220.56 650.879 220.448 651.005 220.349C651.135 220.248 651.233 220.147 651.349 220.022C651.531 219.827 651.698 219.709 651.819 219.597C651.941 219.485 652.112 219.391 652.254 219.279C652.433 219.138 652.567 219.013 652.729 218.879C652.868 218.765 653.033 218.72 653.184 218.686C653.355 218.646 653.507 218.574 653.71 218.535C653.974 218.485 654.175 218.445 654.342 218.381C654.554 218.299 654.751 218.222 654.913 218.174C654.954 218.162 654.994 218.144 654.999 218.123C655.005 218.101 654.975 218.076 654.934 218.058C654.742 217.975 654.46 218.007 654.101 218.002C653.888 217.999 653.691 218.126 653.464 218.234C653.241 218.339 653.074 218.461 652.912 218.56C652.759 218.654 652.589 218.728 652.477 218.844C652.352 218.974 652.164 219.072 652.028 219.188C651.885 219.309 651.82 219.458 651.729 219.596C651.64 219.73 651.547 219.854 651.507 220.004C651.466 220.154 651.335 220.266 651.239 220.391C651.14 220.519 651.042 220.644 650.926 220.889C650.851 221.046 650.759 221.169 650.678 221.319C650.607 221.45 650.587 221.615 650.521 221.783C650.466 221.923 650.415 222.062 650.359 222.213C650.303 222.415 650.243 222.62 650.207 222.819C650.202 222.862 650.192 222.905 650.182 223" stroke="#FFCBAE" stroke-width="2" stroke-linecap="round"/>
<path d="M640.289 205C640.379 205.059 640.579 205.259 640.73 205.42C640.873 205.572 640.991 205.77 641.097 205.905C641.208 206.049 641.332 206.2 641.453 206.351C641.56 206.483 641.653 206.641 641.764 206.771C641.883 206.912 642.054 207.041 642.16 207.186C642.257 207.319 642.426 207.391 642.576 207.552C642.727 207.712 642.847 207.852 642.993 207.947C643.136 208.041 643.239 208.182 643.429 208.337C643.684 208.545 643.941 208.663 644.137 208.828C644.281 208.949 644.433 209.033 644.598 209.168C644.768 209.306 644.944 209.403 645.15 209.538C645.323 209.652 645.466 209.773 645.637 209.849C645.809 209.925 645.918 210.074 646.064 210.169C646.202 210.26 646.359 210.324 646.57 210.509C646.73 210.649 646.901 210.714 647.032 210.825C647.163 210.935 647.323 211.035 647.458 211.155C647.606 211.285 647.754 211.395 647.93 211.505C648.075 211.596 648.226 211.675 648.392 211.82C648.579 211.984 648.717 212.205 648.838 212.386C648.936 212.531 649.029 212.696 649.139 212.866C649.245 213.03 649.33 213.186 649.435 213.347C649.533 213.495 649.611 213.637 649.651 213.797C649.692 213.96 649.762 214.117 649.802 214.277C649.844 214.445 649.852 214.627 649.892 214.788C649.935 214.957 649.953 215.296 649.978 215.538C649.994 215.699 650.013 216.235 649.988 216.654C649.959 217.139 649.933 217.32 649.888 217.53C649.836 217.771 649.792 217.95 649.717 218.146C649.654 218.308 649.582 218.471 649.481 218.666C649.307 219.005 649.24 219.161 649.145 219.322C649.037 219.505 648.93 219.732 648.809 219.912C648.71 220.061 648.599 220.192 648.503 220.342C648.4 220.504 648.258 220.682 648.122 220.833C647.991 220.978 647.886 221.103 647.75 221.208C647.593 221.331 647.374 221.404 647.189 221.434C647.008 221.463 646.833 221.504 646.672 221.544C646.511 221.584 646.291 221.644 646.1 221.719C645.944 221.78 645.779 221.804 645.613 221.869C645.435 221.939 645.267 221.954 645.106 221.974C644.795 222.013 644.334 222.005 644.099 221.97C643.686 221.908 643.422 221.934 643.125 221.91C642.539 221.86 642.377 221.855 642.211 221.81C642.021 221.758 641.865 221.724 641.5 221.595C641.282 221.517 641.143 221.454 640.982 221.389C640.742 221.293 640.481 221.134 640.32 221.089C640.149 221.041 639.999 220.954 639.803 220.899C639.452 220.8 639.257 220.704 639.081 220.634C638.868 220.549 638.615 220.434 638.423 220.353C638.273 220.29 638.043 220.224 637.851 220.133C637.693 220.058 637.51 220.003 637.34 219.928C637.184 219.86 637.019 219.773 636.858 219.688C636.708 219.608 636.537 219.553 636.356 219.488C636.063 219.382 635.875 219.253 635.709 219.167C635.511 219.066 635.333 218.963 635.147 218.902C634.979 218.847 634.821 218.762 634.665 218.712C634.515 218.664 634.369 218.592 634.209 218.537C634.032 218.476 633.858 218.402 633.592 218.302C633.381 218.223 633.225 218.152 633.065 218.111C632.895 218.068 632.744 217.961 632.533 217.911C632.36 217.87 632.202 217.781 631.991 217.706C631.822 217.646 631.64 217.551 631.419 217.466C631.252 217.401 631.028 217.311 630.812 217.201C630.646 217.116 630.456 217.061 630.295 217.01C630.113 216.954 629.894 216.851 629.723 216.825C629.542 216.77 629.302 216.67 629.121 216.595C629.081 216.58 629.041 216.57 629 216.56" stroke="#FFCBAE" stroke-width="2" stroke-linecap="round"/>
<path d="M649.937 228C649.898 227.921 649.769 227.791 649.375 227.52C649.028 227.281 648.391 226.824 648.038 226.566C647.628 226.267 647.565 226.158 647.525 226.064C647.45 225.885 647.485 225.68 647.539 225.432C647.633 225.002 647.773 224.754 647.827 224.59C647.889 224.404 647.951 224.246 648.026 224.062C648.118 223.835 648.219 223.529 648.373 223.221C648.428 223.111 648.458 223.031 648.497 222.981C648.517 222.956 648.576 222.99 648.616 223.015C648.823 223.144 648.885 223.528 648.974 223.747C649.061 223.962 649.033 224.314 649.049 224.514C649.067 224.753 649.093 224.991 649.108 225.186C649.115 225.272 649.133 225.39 649.113 225.51C649.106 225.554 649.054 225.55 649.014 225.54C648.85 225.5 648.658 225.401 648.192 225.257C648.01 225.201 647.873 225.152 647.262 224.979C646.718 224.825 645.709 224.501 645.163 224.333C644.478 224.124 644.319 224.086 644.12 224.061C644.061 224.054 643.992 224.056 644.001 224.051C644.087 224.003 644.228 224.026 644.322 224.022C644.447 224.015 645.077 223.997 645.955 223.992C646.443 223.989 646.64 223.897 646.829 223.728C647.015 223.563 647.137 223.35 647.33 223.151C647.556 222.919 647.653 222.633 647.763 222.498C647.882 222.351 647.971 222.185 648.09 222.05C648.228 221.895 648.536 221.668 648.745 221.408C648.887 221.233 649.161 221.011 649.865 220.195C650.133 219.886 650.244 219.646 650.383 219.406C650.54 219.137 650.741 218.68 650.894 218.341C651.166 217.743 651.465 217.058 651.59 216.748C651.765 216.311 651.793 215.981 651.848 215.432C651.887 215.042 651.853 214.419 651.838 214.059C651.814 213.465 651.675 213.252 651.571 213.102C651.421 212.887 650.96 213.071 650.688 213.121C650.445 213.166 650.612 213.668 650.726 214.026C650.796 214.248 651.116 214.652 651.503 215.15C651.825 215.564 652.061 215.611 652.264 215.671C652.602 215.77 652.805 215.79 653.073 215.86C653.248 215.906 653.43 215.92 653.699 215.94C653.896 215.955 654.086 216.039 654.28 216.084C654.444 216.149 654.573 216.179 654.686 216.213C654.751 216.238 654.83 216.278 655 216.378" stroke="#FFCBAE" stroke-width="2" stroke-linecap="round"/>
<path d="M622.181 198C622.289 198.038 622.524 198.173 622.686 198.265C622.869 198.368 622.994 198.501 623.176 198.65C623.317 198.766 623.465 198.847 623.622 198.949C623.779 199.05 623.936 199.165 624.088 199.271C624.272 199.4 624.475 199.589 624.622 199.681C624.781 199.78 624.955 199.916 625.117 200.004C625.274 200.088 625.435 200.225 625.592 200.317C625.752 200.41 625.877 200.543 626.058 200.654C626.221 200.754 626.377 200.89 626.529 201.006C626.674 201.116 626.818 201.266 626.945 201.386C627.089 201.521 627.249 201.708 627.45 201.892C627.698 202.117 627.828 202.296 627.955 202.431C628.12 202.607 628.278 202.759 628.416 202.918C628.579 203.106 628.71 203.318 628.842 203.491C629.061 203.778 629.239 204.096 629.391 204.348C629.541 204.595 629.651 204.868 629.759 205.129C629.828 205.296 629.848 205.495 629.911 205.731C629.978 205.98 629.985 206.371 630 207.299C630.006 207.654 629.917 207.942 629.877 208.169C629.842 208.369 629.789 208.578 629.72 208.824C629.674 208.989 629.632 209.166 629.564 209.33C629.499 209.486 629.456 209.638 629.387 209.816C629.325 209.978 629.241 210.129 629.142 210.303C628.993 210.567 628.829 210.774 628.691 210.948C628.575 211.096 628.33 211.352 628.099 211.531C627.913 211.675 627.751 211.825 627.618 211.974C627.5 212.107 627.348 212.181 627.206 212.278C627.015 212.408 626.78 212.471 626.618 212.534C626.442 212.602 626.28 212.625 626.123 212.649C625.967 212.673 625.693 212.683 625.461 212.707C625.231 212.731 624.938 212.77 624.638 212.799C624.33 212.828 623.898 212.847 623.155 212.861C622.712 212.87 622.163 212.866 621.581 212.852C621.307 212.845 621.094 212.799 620.903 212.775C620.674 212.746 620.477 212.703 620.3 212.645C619.933 212.525 619.448 212.106 619.198 211.923C618.831 211.655 618.653 211.643 618.438 211.551C618.165 211.435 617.948 211.344 617.766 211.262C617.576 211.177 617.398 211.142 617.231 211.108C616.999 211.061 616.81 210.997 616.599 210.949C616.198 210.857 615.556 210.603 615.139 210.424C614.914 210.328 614.615 210.208 614.345 210.034C614.163 209.918 614.035 209.851 614.01 209.817C613.935 209.714 614.289 209.918 614.446 209.995C614.599 210.07 614.76 210.12 614.99 210.221C615.181 210.305 615.435 210.399 615.647 210.486C615.861 210.574 616.171 210.717 616.533 210.823C616.758 210.889 616.936 210.939 617.122 210.954C617.325 210.97 617.514 211.103 617.827 211.213C618.137 211.323 618.347 211.411 618.563 211.498C618.764 211.579 618.965 211.623 619.318 211.772C619.518 211.857 619.671 211.922 619.877 212.018C620.057 212.102 620.2 212.22 620.392 212.336C620.594 212.458 620.779 212.538 621.112 212.697C621.379 212.825 621.592 212.818 621.803 212.88C622.01 212.942 622.229 212.943 622.45 212.991C622.504 213.003 622.563 213.001 622.568 212.996C622.784 212.817 621.81 212.751 621.623 212.712C621.465 212.68 621.252 212.654 621.031 212.606C620.699 212.534 620.496 212.548 620.344 212.481C620.533 212.423 620.799 212.452 620.862 212.495C620.897 212.51 620.936 212.51 620.976 212.51" stroke="#FFCBAE" stroke-width="2" stroke-linecap="round"/>
<path d="M629.29 201C629.299 201.019 629.434 201.354 629.594 201.794C629.724 202.15 629.948 202.423 630.184 202.733C630.608 203.288 630.994 203.836 631.256 204.108C631.457 204.316 631.587 204.44 631.708 204.618C631.844 204.817 632.013 205.003 632.135 205.157C632.188 205.224 632.236 205.32 632.362 205.502C632.596 205.842 632.827 206.317 632.987 206.805C633.137 207.262 633.032 207.604 632.96 207.811C632.743 208.432 632.336 208.808 632.078 209.121C631.948 209.279 631.869 209.433 631.715 209.62C631.392 210.01 631.017 210.47 630.702 210.767C630.45 211.004 630.289 211.124 629.962 211.438C629.679 211.709 629.174 212.222 628.849 212.533C628.411 212.954 628.128 213.121 627.842 213.269C627.395 213.501 627.206 213.527 627.06 213.64C626.991 213.694 626.992 213.823 627.011 213.971C627.034 214.147 627.252 214.366 627.672 214.677C627.934 214.871 628.351 215.056 628.712 215.22C629.372 215.521 629.812 215.653 630.054 215.726C630.57 215.884 631.138 216.116 631.514 216.221C631.753 216.288 632.08 216.394 632.439 216.522C632.664 216.603 632.914 216.701 633.185 216.794C633.465 216.891 633.738 217.027 634.21 217.199C634.543 217.32 635.048 217.557 635.415 217.707C635.988 217.941 636.365 218.074 636.713 218.237C637.128 218.432 637.586 218.608 638.016 218.81C638.444 219.012 638.876 219.172 639.579 219.506C640.085 219.746 640.916 220.075 641.48 220.325C642.045 220.575 642.323 220.722 642.639 220.905C642.955 221.089 643.301 221.304 643.709 221.498C644.559 221.902 645.091 222.05 645.169 222.079C645.343 222.146 645.623 222.168 646.03 222.154C646.363 222.142 646.563 221.273 646.71 220.83C646.78 220.62 646.826 220.224 646.861 219.891C646.875 219.757 646.885 219.432 646.899 218.812C646.908 218.446 646.943 217.976 647.005 217.514C647.068 217.051 647.164 216.611 647.262 216.257C647.431 215.641 647.602 215.298 647.699 215.096C647.93 214.613 648 214.329 648 214.303C648 214.278 647.962 214.425 647.453 215.205C646.944 215.984 645.955 217.443 645.388 218.311C644.821 219.18 644.706 219.415 644.608 219.659C644.299 220.43 644.307 220.596 644.268 220.636C644.253 220.651 644.229 220.558 644.229 220.362C644.229 220.165 644.248 219.842 644.541 218.266C644.834 216.69 645.4 213.871 645.692 212.394C645.984 210.917 645.983 210.868 645.979 210.868C645.974 210.867 645.964 210.916 645.537 211.631C645.11 212.347 644.265 213.727 643.657 214.829C643.05 215.932 642.704 216.715 642.488 217.314C642.137 218.285 642.115 218.806 642.144 218.984C642.17 219.146 642.338 219.202 642.483 219.237C642.718 219.293 642.996 219.242 643.689 218.992C644.262 218.785 645.265 218.36 645.866 218.1C646.64 217.764 646.836 217.601 646.904 217.566C646.968 217.533 646.972 218.012 646.848 219.197C646.758 220.044 646.473 221.371 646.326 222.1C646.178 222.83 646.139 222.918 646.086 222.964C646.033 223.009 645.965 223.009 645.921 222.98C645.831 222.92 645.771 222.498 645.66 221.475C645.585 220.788 645.596 219.747 645.754 218.234C645.912 216.721 646.248 214.763 646.479 213.564C646.709 212.364 646.825 211.983 646.889 211.761C646.953 211.54 646.962 211.491 646.963 211.51C646.966 211.967 646.45 212.586 646.189 212.926C646.051 213.107 645.871 213.276 644.515 214.16C643.159 215.044 640.625 216.629 639.306 217.417C637.986 218.204 637.957 218.146 637.942 218.057C637.908 217.853 637.966 217.543 638.082 217.129C638.146 216.897 638.274 216.637 638.559 216.173C638.844 215.709 639.295 215.053 640.199 214.035C641.103 213.017 642.447 211.656 643.163 210.965C643.879 210.274 643.927 210.294 643.976 210.49C644.025 210.686 644.073 211.058 644.083 211.607C644.093 212.155 644.065 212.87 643.863 214.055C643.661 215.241 643.286 216.876 643.036 217.879C642.703 219.215 642.532 219.578 642.499 219.593C642.473 219.604 642.474 219.481 642.609 218.814C642.743 218.147 643.021 216.904 643.174 216.185C643.36 215.313 643.366 215.031 643.28 214.946C643.213 214.881 643.02 215.165 642.485 215.676C641.95 216.188 641.057 217.02 640.564 217.473C640.071 217.926 640.003 217.975 639.964 217.957C639.859 217.906 639.915 217.612 639.963 217.277C639.99 217.087 640.069 216.864 640.511 215.97C640.954 215.075 641.769 213.519 642.204 212.747C642.639 211.974 642.667 212.033 642.687 212.195C642.707 212.358 642.716 212.622 642.678 213.111C642.64 213.599 642.553 214.304 642.509 214.706C642.464 215.108 642.464 215.187 642.388 215.129C642.115 214.925 641.97 214.625 641.912 214.595C641.881 214.579 641.854 214.702 641.787 215.496C641.719 216.29 641.613 217.788 641.549 218.54C641.485 219.292 641.466 219.253 641.442 219.213C641.392 219.132 641.234 218.839 640.959 218.204C640.586 217.345 640.41 216.722 640.299 216.544C640.178 216.352 639.878 216.158 639.477 215.951C639.104 215.758 638.743 215.722 638.352 215.693C637.32 215.614 637.094 215.781 637.026 215.742C636.792 215.609 637.122 215.091 637.517 214.511C637.8 214.095 638.315 213.48 639.138 212.59C639.961 211.7 641.094 210.564 641.701 209.945C642.309 209.326 642.357 209.257 642.391 209.271C642.425 209.285 642.445 209.382 642.416 209.56C642.388 209.738 642.311 209.992 641.71 211.073C641.109 212.153 639.986 214.052 639.177 215.339C638.368 216.626 637.908 217.242 637.368 217.829C636.828 218.416 636.224 218.954 635.744 219.339C635.265 219.724 634.929 219.94 634.741 220.031C634.554 220.122 634.525 220.083 634.501 220.034C634.449 219.929 634.437 219.444 634.524 218.483C634.573 217.939 634.783 217.297 635.131 216.431C635.479 215.565 635.997 214.498 636.888 213.043C637.779 211.588 639.027 209.777 639.732 208.712C640.437 207.647 640.562 207.383 640.616 207.271C640.671 207.159 640.652 207.208 639.865 208.359C639.077 209.51 637.523 211.761 636.328 213.386C635.134 215.011 634.347 215.941 633.984 216.371C633.622 216.801 633.709 216.703 633.883 216.54C634.057 216.377 634.316 216.152 635.169 215.561C636.022 214.97 637.462 214.021 638.223 213.556C638.984 213.092 639.022 213.141 639.056 213.215C639.133 213.381 639.158 213.889 639.159 214.649C639.159 215.007 639.12 215.311 639.053 215.638C638.913 216.316 638.675 216.887 638.505 217.311C638.252 217.946 638.131 218.213 638.083 218.248C637.825 218.434 637.657 217.316 637.381 217.092C637.282 217.012 637.162 217.037 637.099 216.998C636.889 216.867 636.939 216.494 636.953 216.366C636.962 216.286 636.996 216.179 637.64 215.204C638.283 214.228 639.54 212.388 640.202 211.386C640.923 210.296 640.961 210.087 641.029 209.924C641.15 209.634 641.252 209.151 641.234 208.807C641.221 208.566 640.789 208.505 640.449 208.426C640.316 208.394 640.033 208.513 639.305 208.95C638.783 209.264 638.011 209.867 636.68 211.041C635.348 212.214 633.496 213.966 632.417 214.972C631.338 215.977 631.088 216.183 630.945 216.249C630.802 216.316 630.773 216.238 630.792 216.06C630.811 215.883 630.878 215.609 631.225 215.037C631.571 214.465 632.195 213.604 633.414 212.279C634.633 210.954 636.427 209.193 637.347 208.358C638.267 207.524 638.257 207.671 638.161 208.026C638.065 208.38 637.883 208.938 637.582 209.627C637.282 210.316 636.869 211.118 636.532 211.693C636.195 212.268 635.945 212.591 635.399 213.144C634.853 213.697 634.018 214.471 633.468 214.942C632.706 215.596 632.296 215.771 632.049 215.87C631.857 215.947 631.704 215.95 631.583 215.886C631.381 215.779 631.144 215.221 630.742 214.658C630.417 214.204 630.269 214.092 630.23 213.84C630.186 213.554 630.297 213.222 630.466 212.823C630.731 212.196 631.101 211.709 631.386 211.399C631.718 211.038 632.071 210.779 632.37 210.582C632.973 210.185 633.321 210.195 633.53 210.136C633.747 210.075 633.865 209.741 633.909 209.504C633.969 209.181 633.672 208.842 633.435 208.599C633.108 208.265 632.597 208.011 632.349 207.808C632.177 207.667 631.995 207.704 631.922 207.703C631.87 207.703 631.821 207.82 631.58 208.796C631.339 209.771 630.917 211.631 630.613 212.834C630.309 214.036 630.137 214.526 630.028 214.812C629.843 215.304 629.668 215.523 629.383 215.997C629.183 216.33 628.893 216.62 628.676 216.813C628.6 216.88 628.563 216.84 628.5 216.732C628.332 216.443 628.223 216.109 628.199 215.706C628.16 215.049 628.271 214.468 628.373 214.177C628.47 213.897 628.755 213.707 628.955 213.488C629.03 213.406 629.153 213.183 629.375 212.921C629.522 212.749 629.907 212.413 630.641 211.753C631.06 211.375 631.644 210.994 631.998 210.729C632.488 210.361 632.749 210.117 633.231 209.641C633.587 209.289 634.097 208.646 634.513 208.112C634.929 207.579 635.217 207.158 635.394 206.883C635.739 206.345 635.717 205.829 635.669 205.421C635.65 205.263 635.36 205.006 634.94 204.587C634.096 203.745 633.682 203.709 633.571 203.689C633.518 203.68 633.469 203.709 633.435 203.782C633.347 203.971 633.361 204.32 633.385 204.783C633.415 205.348 633.612 205.872 633.859 206.292C634.113 206.724 634.523 207 634.871 207.232C635.041 207.346 635.219 207.415 635.606 207.509C635.992 207.604 636.587 207.711 636.942 207.781C637.394 207.871 637.53 207.921 637.631 207.843C638.11 207.473 637.927 206.738 637.836 206.375C637.769 206.109 637.415 205.964 636.926 205.776C636.755 205.711 636.629 205.726 636.537 205.741C636.393 205.763 636.405 206.091 636.405 206.425C636.405 206.879 636.531 207.355 636.676 207.824C636.845 208.372 637.102 208.809 637.32 209.081C637.667 209.514 638.139 209.483 638.328 209.464C638.395 209.457 638.393 209.405 638.388 209.355C638.374 209.247 638.335 209.138 638.291 209.039C638.276 208.989 638.276 208.94 638.276 208.89" stroke="#FFCBAE" stroke-width="2" stroke-linecap="round"/>
<path d="M818.764 446.184C818.764 445.833 818.598 445.047 818.408 444.34C818.141 443.346 818.178 442.689 817.989 442.06C817.788 441.39 817.506 440.803 817.381 440.173C817.254 439.535 817.128 438.682 817.024 437.757C816.93 436.923 817.127 436.281 817.399 436.045C818.003 435.522 818.719 435.258 819.39 435.101C820.652 434.805 822.536 435.216 823.144 435.61C823.797 436.032 824.046 436.749 824.424 437.338C824.803 437.928 825.055 438.555 825.368 439.419C825.923 440.951 825.641 441.661 825.705 442.682C825.749 443.404 826.018 444.019 825.999 447.096C825.995 447.757 825.812 447.91 825.686 448.049C825.208 448.572 824.262 448.698 823.547 448.896C822.458 449.197 820.905 448.781 820.297 448.485C819.608 448.149 819.395 447.288 819.121 446.56C818.873 445.902 818.681 445.283 818.388 444.654C818.094 444.024 817.926 443.397 817.737 442.748C817.674 442.57 817.591 442.376 817.528 442.178C817.464 441.981 817.423 441.786 817.38 441.35" stroke="#492110" stroke-width="2" stroke-linecap="round"/>
<path d="M821.257 446.484C821.128 446.404 820.904 446.08 820.7 445.704C820.498 445.334 820.253 444.985 819.992 444.438C819.783 443.998 819.732 443.646 819.592 443.321C819.462 443.02 819.453 442.633 819.396 442.277C819.302 441.681 819.266 440.788 819.201 440.159C819.138 439.552 819.135 438.863 819.08 438.383C819.02 437.867 818.987 437.218 819.005 436.589C819.011 436.386 819.247 436.324 819.367 436.213C819.919 435.704 821.384 436.241 821.86 436.455C822.269 436.638 822.595 437.173 822.894 437.599C823.329 438.22 823.489 438.775 823.565 439.121C823.64 439.466 823.88 439.85 824.094 440.277C824.317 440.719 824.42 441.23 824.513 441.585C824.64 442.07 824.736 442.426 824.784 442.973C824.819 443.388 824.942 444.347 824.988 445.082C825.021 445.604 824.979 446.017 824.933 446.178C824.885 446.347 824.757 446.463 824.617 446.554C824.482 446.643 824.108 446.727 823.568 446.697C823.088 446.67 822.877 446.141 822.654 445.876C822.43 445.612 822.207 445.249 821.947 444.752C821.888 444.64 821.853 444.559 821.834 444.929C821.815 445.299 821.815 446.122 821.871 446.567C821.926 447.011 822.036 447.051 822.167 446.961C822.813 446.517 822.782 445.897 823.033 445.411C823.568 444.376 823.137 442.695 823.016 442.065C822.86 441.251 822.598 440.706 822.375 440.058C822.172 439.47 821.909 439.043 821.695 438.728C821.647 438.657 821.556 438.656 821.491 438.676C820.966 438.834 820.941 440.234 820.94 442.359C820.94 443.086 821.126 443.481 821.303 443.705C821.402 443.832 821.406 443.08 821.323 442.202C821.129 440.155 820.793 439.25 820.653 438.647C820.56 438.249 820.475 437.565 820.66 437.318C821.881 435.68 821.852 439.648 821.918 439.983C821.935 440.073 821.927 440.175 821.89 440.176C821.548 440.19 821.518 439.49 821.388 438.608C821.344 438.316 821.406 438.009 821.489 437.664C821.594 437.233 821.926 437.095 822.047 437.023C822.112 437.032 822.186 437.133 822.233 437.235C822.28 437.336 822.299 437.437 822.318 437.662" stroke="#492110" stroke-width="2" stroke-linecap="round"/>
<path d="M802.098 410C802.098 409.971 802.057 409.774 801.975 409.616C801.892 409.458 801.83 409.301 801.763 409.143C801.695 408.983 801.676 408.799 801.634 408.641C801.593 408.483 801.572 408.326 801.542 408.168C801.511 408.01 801.47 407.853 801.423 407.69C801.369 407.503 801.295 407.242 801.232 407.02C801.178 406.826 801.088 406.591 801.021 406.369C800.963 406.177 800.903 406.02 800.836 405.857C800.751 405.651 800.625 405.311 800.516 405.064C800.433 404.874 800.388 404.719 800.31 404.556C800.228 404.383 800.192 404.216 800.125 404.029C800.056 403.838 800.057 403.635 800.032 403.428C799.987 403.065 799.996 402.847 800.021 402.625C800.053 402.354 800.088 402.098 800.145 401.871C800.194 401.674 800.232 401.496 800.279 401.314C800.322 401.144 800.387 400.994 800.474 400.831C800.579 400.637 800.696 400.286 800.82 400.067C800.932 399.87 801.097 399.526 801.232 399.289C801.383 399.022 801.53 398.777 801.675 398.614C801.843 398.425 801.994 398.294 802.159 398.175C802.324 398.057 802.53 397.939 802.772 397.85C802.984 397.772 803.189 397.673 803.401 397.603C803.628 397.529 803.808 397.456 804.009 397.382C804.177 397.32 804.344 397.288 804.535 397.254C804.714 397.221 804.89 397.15 805.147 397.13C805.264 397.121 805.364 397.071 805.467 397.047C805.573 397.021 806.296 396.992 807.372 397.002C808.219 397.01 808.734 397.071 808.94 397.105C809.217 397.152 809.445 397.199 809.61 397.253C809.785 397.31 810.114 397.444 810.45 397.588C810.759 397.72 811.001 397.849 811.218 397.943C811.427 398.033 811.64 398.194 811.867 398.381C812.215 398.668 812.331 398.854 812.465 399.017C812.591 399.169 812.774 399.307 812.944 399.475C813.085 399.613 813.217 399.799 813.372 400.08C813.486 400.288 813.578 400.49 813.686 400.736C813.775 400.938 813.867 401.091 813.97 401.288C814.097 401.533 814.217 401.77 814.336 401.963C814.44 402.133 814.495 402.342 814.588 402.574C814.684 402.813 814.846 403.042 814.903 403.2C814.983 403.423 815.186 403.663 815.279 403.84C815.415 404.101 815.526 404.254 815.634 404.412C815.739 404.566 815.835 404.727 815.912 404.91C815.981 405.072 816.082 405.23 816.139 405.422C816.206 405.647 816.299 405.821 816.356 405.979C816.415 406.144 816.495 406.294 816.562 406.457C816.635 406.634 816.721 406.836 816.789 407.014C816.824 407.092 816.876 407.162 816.933 407.225C816.959 407.26 816.979 407.299 817 407.339" stroke="#FFCBAE" stroke-width="2" stroke-linecap="round"/>
<path d="M802.627 410C802.627 409.913 802.607 409.72 802.541 409.56C802.465 409.378 802.404 409.178 802.373 409.009C802.34 408.823 802.272 408.656 802.231 408.486C802.186 408.296 802.14 408.104 802.084 407.939C802.032 407.786 801.998 407.63 801.937 407.475C801.875 407.318 801.845 407.136 801.785 406.957C801.731 406.801 801.663 406.624 801.551 406.213C801.488 405.981 801.46 405.801 801.434 405.612C801.403 405.384 801.338 405.153 801.287 404.949C801.229 404.719 801.155 404.35 801.104 404.102C801.06 403.885 801.023 403.691 801.008 403.189C800.99 402.61 801.003 401.736 801.043 401.581C801.086 401.417 801.124 401.243 801.2 401.049C801.297 400.803 801.368 400.633 801.464 400.454C801.55 400.294 801.652 400.14 801.753 399.98C801.872 399.794 802.017 399.675 802.129 399.511C802.293 399.269 802.474 399.143 802.621 399.051C802.766 398.96 802.961 398.852 803.199 398.746C803.394 398.659 803.631 398.62 803.864 398.533C804.039 398.468 804.26 398.407 804.453 398.358C804.627 398.315 804.808 398.252 804.976 398.189C805.154 398.122 805.346 398.117 805.549 398.068C806.03 397.953 806.818 398.02 807.441 398.015C807.754 398.012 808.136 398.068 808.523 398.121C808.886 398.171 809.254 398.193 809.432 398.237C809.674 398.297 809.904 398.339 810.112 398.392C810.357 398.455 810.655 398.552 810.818 398.595C810.986 398.64 811.112 398.774 811.28 398.885C811.469 399.011 811.659 399.18 812.202 399.682C812.418 399.882 812.543 400.051 812.685 400.245C812.851 400.47 813.05 400.728 813.269 401.014C813.428 401.221 813.569 401.396 813.731 401.648C813.845 401.825 813.965 401.967 814.076 402.132C814.186 402.295 814.36 402.518 814.503 402.732C814.603 402.883 814.726 403.022 814.843 403.206C814.971 403.409 815.102 403.564 815.228 403.753C815.341 403.922 815.457 404.067 815.538 404.27C815.621 404.477 815.731 404.725 815.868 405.078C815.985 405.38 816.055 405.577 816.127 405.765C816.209 405.982 816.309 406.128 816.416 406.283C816.515 406.427 816.614 406.564 816.72 406.772C816.807 406.961 816.868 407.077 816.908 407.159C816.929 407.203 816.949 407.251 817 407.358" stroke="#FFCBAE" stroke-width="2" stroke-linecap="round"/>
<path d="M778 360.543C778.031 360.614 778.136 360.776 778.246 360.938C778.348 361.089 778.429 361.232 778.482 361.394C778.542 361.581 778.618 361.749 778.696 361.916C778.79 362.117 778.859 362.317 778.948 362.489C779.058 362.703 779.225 362.935 779.325 363.103C779.441 363.297 779.54 363.463 779.613 363.62C779.708 363.822 779.822 364.02 779.891 364.193C779.972 364.398 780.147 364.628 780.273 364.836C780.47 365.162 780.545 365.338 780.645 365.506C780.761 365.7 780.86 365.906 781.027 366.154C781.385 366.684 781.468 366.859 781.583 367.021C781.71 367.2 781.865 367.396 781.976 367.599C782.099 367.827 782.346 368.065 782.536 368.299C782.705 368.508 782.882 368.623 782.992 368.76C783.114 368.913 783.238 369.09 783.369 369.272C783.497 369.449 783.594 369.667 783.757 369.86C783.943 370.082 784.149 370.326 784.369 370.514C784.517 370.64 784.704 370.803 784.904 370.971C785.043 371.087 785.218 371.178 785.386 371.28C785.584 371.4 785.867 371.503 786.077 371.584C786.284 371.664 786.496 371.696 786.701 371.736C786.883 371.773 787.093 371.787 787.303 371.823C787.511 371.858 787.888 371.889 788.558 371.964C789.508 372.072 789.681 371.909 789.891 371.828C790.149 371.728 790.341 371.656 790.624 371.585C790.891 371.518 791.137 371.423 791.405 371.296C791.685 371.163 792.153 370.937 792.452 370.789C792.721 370.657 792.949 370.42 793.144 370.302C793.302 370.207 793.432 370.044 793.563 369.882C793.703 369.709 793.82 369.558 793.93 369.395C794.032 369.244 794.114 369.081 794.218 368.873C794.343 368.624 794.449 368.402 794.527 368.214C794.601 368.039 794.679 367.834 794.81 367.313C794.974 366.66 794.931 366.243 794.947 365.863C794.953 365.715 794.973 365.392 794.978 364.972C794.981 364.762 795.004 364.138 794.999 363.241C794.996 362.723 794.942 362.441 794.884 362.167C794.841 361.962 794.795 361.781 794.748 361.598C794.691 361.379 794.607 361.223 794.538 361.056C794.464 360.874 794.418 360.706 794.298 360.443C794.198 360.224 794.083 359.956 793.978 359.784C793.889 359.637 793.842 359.479 793.753 359.262C793.587 358.859 793.454 358.628 793.349 358.395C793.256 358.186 793.119 357.898 792.967 357.559C792.845 357.286 792.731 357.026 792.611 356.803C792.471 356.543 792.354 356.326 792.265 356.134C792.164 355.915 791.988 355.668 791.851 355.429C791.711 355.184 791.558 355.018 791.422 354.851C791.282 354.679 791.202 354.501 791.029 354.339C790.868 354.188 790.762 353.974 790.61 353.782C790.353 353.538 790.186 353.356 790.039 353.133C790.007 353.082 789.976 353.041 789.944 353" stroke="#FFCBAE" stroke-width="2" stroke-linecap="round"/>
<path d="M789 351C789.036 351.093 789.158 351.306 789.299 351.519C789.453 351.753 789.622 351.919 789.763 352.119C789.896 352.307 789.977 352.453 789.996 352.513C790.044 352.668 789.673 352.374 789.544 352.207C789.51 352.163 789.477 352.121 789.465 352.133C789.513 352.359 789.635 352.626 789.702 352.839C789.721 352.893 789.745 352.946 789.806 353" stroke="#FFCBAE" stroke-width="2" stroke-linecap="round"/>
<path d="M797 367C797 367.159 796.958 367.648 796.93 368.326C796.918 368.643 796.882 368.877 796.845 369.063C796.795 369.311 796.775 369.527 796.695 369.788C796.612 370.062 796.594 370.327 796.577 370.519C796.563 370.694 796.497 370.903 796.444 371.154C796.381 371.448 796.187 371.788 796.08 372.05C795.983 372.286 795.781 372.567 795.54 372.861C795.261 373.2 794.296 373.622 793.86 373.842C793.224 374.163 792.86 374.242 792.431 374.402C792.107 374.523 791.63 374.669 791.27 374.797C790.946 374.913 790.528 374.904 789.699 374.984C789.03 375.048 788.729 374.905 788.476 374.809C788.215 374.709 788 374.606 787.78 374.537C787.423 374.424 787.1 374.254 787.031 374.217C786.997 374.199 786.993 374.148 787.009 374.115C787.096 373.935 787.484 373.976 787.715 373.939C787.912 373.907 788.094 373.848 788.612 373.769C788.896 373.725 789.26 373.688 789.566 373.609C789.828 373.54 790.404 373.327 790.823 373.161C791.167 373.025 791.626 372.857 791.83 372.814C792.017 372.774 792.193 372.643 792.45 372.558C792.833 372.431 793.189 372.281 793.392 372.153C793.672 371.977 793.885 371.865 794.157 371.647C794.949 371.013 795.009 370.809 795.132 370.559C795.202 370.318 795.223 370.148 795.261 369.913C795.287 369.807 795.34 369.638 795.395 369.464" stroke="#FFCBAE" stroke-width="2" stroke-linecap="round"/>
<path d="M648.9 212.538C648.9 212.571 648.9 213.149 648.809 214.419C648.758 215.133 648.537 215.971 648.443 216.594C648.206 218.174 648.2 218.852 648.117 219.369C648.088 219.55 648.1 219.816 648.108 219.91C648.249 219.706 648.582 219.306 648.923 218.881C649.032 218.756 649.164 218.624 649.3 218.488" stroke="#FFCBAE" stroke-width="2" stroke-linecap="round"/>
<path d="M651.5 217.287C651.716 217.238 652.082 217.071 652.374 216.963C652.797 216.806 653.181 216.605 653.582 216.405C653.663 216.364 653.732 216.354 653.741 216.321C653.908 215.722 652.07 215.256 651.328 214.889C650.751 214.603 650.435 214.338 650.151 214.146C649.905 213.98 649.668 213.788 649.26 213.505C648.657 213.087 648.302 212.838 647.943 212.729C647.822 212.693 647.637 212.671 645.225 212.547C642.814 212.423 638.177 212.208 635.64 212.131C633.103 212.053 632.806 212.119 632.579 212.186C631.912 212.383 631.221 212.602 630.353 212.754C630.231 212.776 630.266 212.606 630.308 212.506C630.386 212.317 630.879 211.808 631.595 211.109C632.408 210.315 633.182 209.688 633.35 209.438C633.524 209.178 633.583 208.855 633.666 208.58C633.785 208.188 634.017 207.921 634.009 207.788C633.988 207.453 633.435 207.388 632.672 206.783C632.239 206.44 631.449 205.931 630.901 205.544C630.056 204.925 629.684 204.654 629.559 204.58C629.501 204.538 629.451 204.488 629.45 204.337" stroke="#FFCBAE" stroke-width="2" stroke-linecap="round"/>
<path d="M630.65 205.237C630.95 205.72 631.314 206.382 631.516 206.894C631.662 207.263 631.767 207.453 631.833 207.562C631.908 207.685 632.892 207.654 634.2 207.687C634.733 207.701 634.866 207.787 635.007 207.903C635.376 208.207 635.583 208.685 635.658 209.01C635.384 209.287 635.168 209.404 635.001 209.437C634.918 209.454 634.835 209.47 634.6 209.487" stroke="#FFCBAE" stroke-width="2" stroke-linecap="round"/>
<path d="M797.25 366.425C797.234 366.541 797.134 366.873 797.017 367.182C796.901 367.488 796.917 367.807 796.85 368.074C796.834 368.141 796.817 368.207 796.767 368.241C796.635 368.275 796.484 368.291 796.368 368.349C796.317 368.391 796.284 368.457 796.25 368.575" stroke="#FFCBAE" stroke-width="2" stroke-linecap="round"/>
<path d="M797.7 372.825C797.832 372.99 797.95 373.158 798.074 373.332C798.248 373.523 798.631 373.856 799.089 374.231C799.266 374.375 799.332 374.424 799.4 374.475" stroke="#FFCBAE" stroke-width="2" stroke-linecap="round"/>
<path d="M787.85 372.975C787.85 373.008 787.801 373.075 787.726 373.183C787.528 373.466 788.148 374.32 788.682 375.314C788.884 375.69 789.082 375.891 789.349 376.091C789.55 376.241 789.931 375.975 790.357 376.157C790.84 376.364 790.849 376.873 790.942 377.298C790.901 377.775 790.767 378.007 790.659 378.316C790.634 378.391 790.617 378.457 790.55 378.575" stroke="#FFCBAE" stroke-width="2" stroke-linecap="round"/>
<path d="M810.7 393.3C810.667 393.416 810.369 393.781 810.051 394.049C809.796 394.264 809.551 394.449 809.052 394.774C808.736 394.979 808.518 395.166 808.218 395.283C807.806 395.444 807.452 395.698 806.271 396.613C805.796 396.982 805.452 397.166 805.101 397.324C804.81 397.456 804.122 397.598 803.643 397.716C803.301 397.801 802.968 397.833 802.701 397.9C802.434 397.966 802.102 398.033 800.888 398.033C800.423 398.034 800.135 397.867 799.843 397.759C799.768 397.731 799.685 397.717 799.708 397.692C799.822 397.571 800.363 397.6 800.88 397.592C801.034 397.589 800.968 397.567 800.901 397.558C800.619 397.523 800.318 397.434 800.001 397.383C799.835 397.334 799.684 397.283 799.551 397.25C799.484 397.233 799.418 397.217 799.3 397.2" stroke="#FFCBAE" stroke-width="2" stroke-linecap="round"/>
<path d="M821.975 446.15C821.859 446.366 821.726 446.632 821.526 446.891C821.478 446.952 821.426 446.999 821.409 447.058C821.392 447.116 821.408 447.182 821.499 447.216C822.008 447.406 822.473 447.366 822.899 447.417C823.196 447.452 823.391 447.434 823.442 447.392C823.882 447.03 822.01 447.267 821.726 447.159C821.467 447.06 821.16 446.885 820.884 446.692C820.776 446.601 820.708 446.468 820.675 446.285C820.659 446.185 820.642 446.069 820.625 445.95" stroke="#492110" stroke-width="2" stroke-linecap="round"/>
<path d="M800.025 402.05C799.885 402.124 799.744 402.198 796.809 403.94C793.874 405.682 788.149 409.089 782.225 412.575" stroke="#FFCBAE" stroke-width="2" stroke-linecap="round"/>
<path d="M821.012 422.375C821.062 422.4 821.145 422.516 821.191 422.65C821.238 422.786 821.295 422.933 821.358 423.075C821.417 423.209 821.429 423.383 821.462 423.525C821.535 423.832 821.504 424.341 821.517 424.495C821.546 424.855 821.554 425.441 821.567 425.595C821.579 425.744 821.612 425.908 821.654 426.074C821.694 426.237 821.72 426.408 821.729 427.38C821.732 427.697 821.604 427.874 821.554 428.025C821.505 428.174 821.338 428.324 821.234 428.475C821.13 428.623 821.004 428.766 820.913 428.9C820.822 429.032 820.713 429.141 820.592 429.27C820.459 429.412 820.271 429.558 820.138 429.625C820.004 429.692 819.871 429.775 819.759 429.871C819.731 429.894 819.696 429.908 819.696 429.921C819.695 429.933 819.728 429.942 819.762 429.938C819.913 429.92 820.037 429.801 820.162 429.721C820.295 429.637 820.403 429.509 820.508 429.371C820.609 429.239 820.67 429.093 820.762 428.951C820.848 428.818 820.912 428.701 820.987 428.576C821.068 428.441 821.137 428.284 821.212 428.146C821.291 428.002 821.337 427.859 821.387 427.726C821.446 427.57 821.504 427.384 821.537 427.251C821.575 427.099 821.612 426.934 821.658 426.759C821.697 426.611 821.704 426.459 821.708 426.176C821.711 425.99 821.646 425.843 821.592 425.701C821.542 425.571 821.521 425.434 821.463 425.28C821.41 425.14 821.371 425.009 821.317 424.851C821.262 424.689 821.262 424.534 821.233 424.396C821.2 424.236 821.146 424.109 821.125 423.967C821.098 423.783 821.046 423.659 820.992 423.501C820.936 423.337 820.896 423.168 820.842 423.021C820.786 422.87 820.746 422.718 820.713 422.571C820.677 422.416 820.621 422.284 820.579 422.146C820.528 421.975 820.471 421.818 820.4 421.676C820.339 421.553 820.304 421.393 820.263 421.23C820.225 421.083 820.171 420.934 820.117 420.73C820.064 420.53 820.071 420.343 820.013 420.089C819.966 419.883 819.929 419.652 819.904 419.447C819.88 419.254 819.837 419.093 819.813 418.93C819.787 418.767 819.771 418.584 819.758 418.417C819.754 418.367 819.746 418.31 819.737 418.2" stroke="#FFCBAE" stroke-width="2" stroke-linecap="round"/>
</g>
<defs>
<clipPath id="clip0_0_1">
<rect width="1042" height="990" fill="white"/>
</clipPath>
</defs>
</svg>
