<svg width="1060" height="1024" viewBox="0 0 1060 1024" fill="none" xmlns="http://www.w3.org/2000/svg">
<rect width="1060" height="1024" fill="#1E1E1E"/>
<g clip-path="url(#clip0_0_1)">
<rect width="1060" height="1024" fill="#FFE8D6"/>
<path d="M475 141C773.295 141 1015 379.693 1015 674C1015 968.307 773.295 1207 475 1207C176.705 1207 -65 968.307 -65 674C-65 379.693 176.705 141 475 141Z" fill="#FFB082" stroke="#492110" stroke-width="10"/>
<path d="M475 261C706.475 261 894 445.973 894 674C894 902.027 706.475 1087 475 1087C243.525 1087 56 902.027 56 674C56 445.973 243.525 261 475 261Z" fill="#FFCBAE" stroke="#492110" stroke-width="10"/>
<path d="M542 314C711.091 337.942 798.455 489.976 821 563" stroke="#492110" stroke-width="10"/>
<path d="M815.759 565C815.759 564.99 815.759 564.944 815.752 564.874C815.742 564.783 815.628 564.752 815.567 564.693C815.503 564.63 815.438 564.567 815.379 564.502C815.313 564.429 815.272 564.34 815.219 564.257C815.164 564.172 815.112 564.092 815.046 564.009C814.982 563.928 814.942 563.839 814.895 563.761C814.845 563.678 814.805 563.586 814.74 563.452C814.676 563.321 814.645 563.224 814.594 563.139C814.537 563.045 814.47 562.884 814.392 562.744C814.334 562.641 814.255 562.538 814.173 562.411C814.116 562.324 814.017 562.182 813.946 562.073C813.881 561.973 813.817 561.836 813.749 561.704C813.658 561.528 813.574 561.304 813.513 561.164C813.44 560.997 813.37 560.706 813.311 560.517C813.277 560.407 813.262 560.312 813.231 560.202C813.184 560.035 813.17 559.93 813.143 559.83C813.101 559.67 813.082 559.543 813.068 559.417C813.05 559.263 813.024 559.141 813.002 559.037C812.998 559.017 813 558.996 813.014 559.001C813.126 559.038 813.16 559.145 813.218 559.207C813.277 559.269 813.32 559.356 813.352 559.442C813.387 559.535 813.442 559.604 813.469 559.687C813.497 559.773 813.544 559.852 813.583 559.935C813.622 560.018 813.661 560.1 813.688 560.183C813.716 560.269 813.763 560.348 813.781 560.43C813.801 560.527 813.871 560.596 813.917 560.678C813.962 560.759 814.007 560.843 814.053 560.924C814.098 561.002 814.158 561.086 814.209 561.161C814.258 561.234 814.313 561.339 814.401 561.496C814.541 561.75 814.566 561.845 814.62 561.92C814.675 561.998 814.737 562.067 814.783 562.152C814.841 562.258 814.926 562.346 814.985 562.413C815.041 562.478 815.102 562.537 815.162 562.599C815.231 562.669 815.32 562.769 815.398 562.865C815.476 562.96 815.549 563.017 815.61 563.082C815.672 563.147 815.729 563.229 815.841 563.353C815.937 563.458 816.007 563.528 816.077 563.59C816.143 563.648 816.221 563.699 816.308 563.748C816.384 563.79 816.454 563.843 816.532 563.885C816.61 563.926 816.688 563.967 816.778 563.993C816.857 564.016 816.936 564.019 817.033 564.05C817.202 564.104 817.286 564.081 817.391 564.089C817.487 564.096 817.564 564.127 817.693 564.135C817.794 564.141 817.909 564.164 818.065 564.176C818.376 564.202 818.609 564.195 818.877 564.207C819.515 564.238 819.593 564.184 819.734 564.177C819.843 564.171 819.958 564.148 820.055 564.122C820.155 564.096 820.274 564.102 820.372 564.086C820.464 564.072 820.581 564.05 820.666 564.027C820.754 564.003 820.834 563.993 820.924 563.965C821.012 563.937 821.111 563.926 821.202 563.911C821.286 563.896 821.389 563.849 821.498 563.833C821.606 563.818 821.681 563.782 821.759 563.761C821.837 563.74 821.934 563.72 822.046 563.684C822.136 563.655 822.231 563.617 822.314 563.591C822.398 563.564 822.493 563.508 822.591 563.475C822.756 563.405 822.863 563.363 822.941 563.34C822.961 563.332 822.98 563.322 823 563.312" stroke="#FFCBAE" stroke-width="2" stroke-linecap="round"/>
<path d="M826.491 563C826.497 562.957 826.519 562.817 826.57 562.606C826.612 562.431 826.7 562.261 826.748 562.128C826.814 561.947 826.858 561.839 826.878 561.75C826.901 561.646 826.915 561.269 826.932 561.034C826.941 560.904 826.96 560.775 826.98 560.664C827.012 560.485 827 560.011 826.986 559.726C826.981 559.64 826.966 559.468 826.952 559.316C826.94 559.186 826.932 558.993 826.918 558.846C826.906 558.727 826.898 558.427 826.881 558.233C826.869 558.095 826.853 557.912 826.844 557.663C826.84 557.532 826.813 557.329 826.796 557.166C826.786 557.061 826.762 556.891 826.746 556.707C826.732 556.561 826.717 556.356 826.709 556.258C826.7 556.159 826.667 556.042 826.647 555.902C826.628 555.767 826.604 555.648 826.587 555.488C826.575 555.369 826.526 555.243 826.503 555.107C826.481 554.982 826.452 554.875 826.424 554.77C826.4 554.681 826.378 554.594 826.356 554.508C826.332 554.415 826.305 554.308 826.26 554.173C826.225 554.066 826.209 553.957 826.172 553.846C826.143 553.758 826.136 553.67 826.107 553.568C826.085 553.443 826.051 553.292 826.023 553.168C826.017 553.13 826.017 553.082 826 553" stroke="#FFCBAE" stroke-width="2" stroke-linecap="round"/>
<path d="M823 563.952C823.021 563.972 823.104 563.992 823.186 564C823.286 564.009 823.314 563.847 823.367 563.775C823.423 563.698 823.503 563.652 823.558 563.582C823.621 563.502 823.749 563.522 823.833 563.487C823.917 563.452 824.001 563.422 824.085 563.395C824.172 563.366 824.263 563.317 824.349 563.287C824.433 563.258 824.52 563.212 824.606 563.172C824.7 563.129 824.828 563.088 824.934 563.04C825.018 563.002 825.117 562.963 825.201 562.917C825.281 562.874 825.353 562.813 825.424 562.753C825.503 562.685 825.589 562.608 825.67 562.515C825.743 562.433 825.799 562.338 825.848 562.258C825.9 562.175 825.945 562.098 826.029 562.005C826.099 561.928 826.144 561.843 826.207 561.763C826.269 561.685 826.328 561.603 826.386 561.52C826.456 561.421 826.522 561.343 826.572 561.255C826.624 561.163 826.695 561.058 826.758 560.928C826.807 560.826 826.842 560.748 826.881 560.668C826.921 560.587 826.941 560.483 826.962 560.371C826.983 560.262 827.01 560.134 826.997 560.029C826.992 559.991 826.958 559.993 826.944 560.02C826.874 560.164 826.905 560.257 826.897 560.362C826.89 560.449 826.847 560.527 826.818 560.607C826.811 560.628 826.8 560.647 826.795 560.667C826.789 560.688 826.789 560.707 826.789 560.728" stroke="#FFCBAE" stroke-width="2" stroke-linecap="round"/>
<path d="M541 311C541 310.814 541.021 310.421 541.05 310.311C541.072 310.228 541.121 310.162 541.16 310.077C541.202 309.987 541.267 309.912 541.328 309.812C541.379 309.727 541.414 309.654 541.464 309.58C541.529 309.484 541.614 309.435 541.677 309.368C541.742 309.299 541.834 309.261 541.913 309.208C541.993 309.153 542.081 309.123 542.162 309.074C542.234 309.03 542.306 308.994 542.385 308.942C542.461 308.893 542.563 308.851 542.721 308.775C542.832 308.721 543.009 308.686 543.125 308.659C543.209 308.64 543.303 308.623 543.422 308.605C543.582 308.581 543.802 308.543 543.92 308.527C544.1 308.504 544.28 308.485 544.421 308.463C544.541 308.444 544.679 308.431 544.778 308.418C544.884 308.404 545.009 308.391 545.143 308.376C545.335 308.354 545.545 308.342 545.746 308.327C546.371 308.278 546.51 308.311 546.641 308.3C546.783 308.288 546.961 308.284 547.129 308.273C547.276 308.264 547.735 308.258 548.032 308.269C548.19 308.275 548.295 308.293 548.449 308.3C548.584 308.306 548.741 308.32 548.88 308.327C549.05 308.335 549.271 308.347 549.514 308.353C549.681 308.358 549.93 308.378 550.121 308.389C550.258 308.397 550.394 308.414 550.585 308.42C550.689 308.424 550.793 308.44 550.89 308.447C550.989 308.454 551.164 308.472 551.312 308.487C551.471 308.504 551.669 308.521 551.79 308.536C552.008 308.565 552.147 308.565 552.291 308.576C552.435 308.587 552.561 308.592 552.794 308.603C553.338 308.629 553.443 308.628 553.572 308.643C553.788 308.67 553.884 308.668 554.005 308.674C554.122 308.681 554.204 308.708 554.356 308.715C554.473 308.72 554.587 308.739 554.695 308.75C554.813 308.762 554.944 308.779 554.979 308.77C555.089 308.742 554.741 308.57 554.627 308.512C554.485 308.439 554.269 308.369 553.824 308.196C553.555 308.091 553.07 307.918 552.801 307.822C552.417 307.687 552.3 307.647 552.145 307.593C552.08 307.571 551.981 307.54 551.785 307.493C551.589 307.447 551.298 307.385 550.779 307.309C550.26 307.233 549.522 307.145 549.033 307.095C548.544 307.045 548.326 307.036 548.198 307.029C548.07 307.022 548.039 307.018 547.776 307.011C547.513 307.005 547.019 306.996 546.781 307.002C546.542 307.009 546.573 307.031 546.607 307.049C546.793 307.146 547.066 307.178 547.35 307.218C547.567 307.254 547.931 307.32 548.134 307.358C548.337 307.397 548.368 307.406 548.4 307.415" stroke="#FFCBAE" stroke-width="2" stroke-linecap="round"/>
<path d="M541 314C541.071 313.796 541.183 313.373 541.211 313.273C541.235 313.185 541.269 313.1 541.287 313.024C541.305 312.948 541.305 312.842 541.32 312.748C541.335 312.655 541.346 312.569 541.376 312.485C541.415 312.378 541.422 312.287 541.445 312.198C541.474 312.084 541.518 311.99 541.564 311.899C541.62 311.789 541.656 311.65 541.719 311.545C541.778 311.447 541.839 311.368 541.91 311.25C541.965 311.161 542.037 311.066 542.096 310.984C542.149 310.911 542.245 310.774 542.34 310.668C542.406 310.594 542.51 310.511 542.622 310.405C542.76 310.276 542.982 310.143 543.176 310.003C543.366 309.867 543.476 309.821 543.644 309.747C543.931 309.62 544.3 309.572 544.417 309.555C544.578 309.532 544.667 309.51 544.768 309.481C544.866 309.453 545.002 309.443 545.147 309.407C545.291 309.371 545.435 309.347 545.567 309.309C545.673 309.278 545.786 309.261 545.897 309.225C546.005 309.191 546.091 309.18 546.185 309.17C546.272 309.161 546.35 309.127 546.434 309.105C546.555 309.074 546.711 309.074 546.937 309.038C547.111 309.011 547.245 309.017 547.813 309.005C548.259 308.995 549.11 309.002 549.559 309.005C550.119 309.008 550.332 309.026 550.505 309.033C550.597 309.037 550.749 309.045 550.967 309.053C551.377 309.066 551.608 309.107 551.772 309.12C551.99 309.136 552.255 309.141 552.699 309.144C552.917 309.145 553.31 309.094 553.557 309.072C553.588 309.069 553.618 309.065 553.691 309.062C553.765 309.06 553.881 309.06 554 309.06" stroke="#FFCBAE" stroke-width="2" stroke-linecap="round"/>
<path d="M541.217 313C541.205 313.059 541.165 313.155 541.147 313.241C541.128 313.329 541.121 313.46 541.109 313.562C541.096 313.669 541.088 313.797 541.082 314.139C541.08 314.297 541.06 314.392 541.04 314.494C541.021 314.593 541.016 314.681 541.01 314.873C541.009 314.917 541.004 314.938 541.002 315.132C540.996 315.691 541.004 316.089 541.012 316.135C541.03 316.238 541.048 316.378 541.062 316.486C541.075 316.581 541.08 316.7 541.094 316.807C541.108 316.913 541.108 317.053 541.12 317.163C541.134 317.283 541.14 317.412 541.143 317.604C541.144 317.723 541.125 317.84 541.119 318.078C541.114 318.274 541.124 318.52 541.135 318.627C541.147 318.761 541.16 318.879 541.173 319.016C541.181 319.114 541.221 319.195 541.241 319.281C541.261 319.367 541.285 319.452 541.319 319.527C541.356 319.608 541.377 319.693 541.42 319.765C541.464 319.842 541.506 319.955 541.558 320.071C541.618 320.204 541.674 320.314 541.731 320.477C541.806 320.623 541.883 320.78 541.935 320.897C541.96 320.946 541.98 320.973 542 321" stroke="#FFCBAE" stroke-width="2" stroke-linecap="round"/>
<path d="M540.039 316C540.039 316.093 540.029 316.3 540.012 316.417C539.972 316.688 540.044 316.771 540.073 316.848C540.102 316.924 540.132 316.991 540.186 317.061C540.235 317.125 540.288 317.184 540.342 317.243C540.402 317.307 540.431 317.382 540.501 317.467C540.563 317.542 540.602 317.611 540.629 317.696C540.661 317.798 540.675 317.907 540.727 317.996C540.785 318.098 540.808 318.176 540.859 318.239C540.922 318.316 541.003 318.391 541.084 318.454C541.176 318.525 541.244 318.571 541.302 318.638C541.366 318.711 541.439 318.804 541.496 318.901C541.537 318.971 541.611 319.033 541.67 319.107C541.724 319.176 541.778 319.262 541.831 319.338C541.885 319.414 541.939 319.482 541.993 319.551C542.041 319.613 542.081 319.675 542.147 319.731C542.206 319.781 542.243 319.859 542.289 319.931C542.338 320.006 542.419 320.061 542.48 320.121C542.549 320.189 542.62 320.231 542.689 320.285C542.781 320.357 542.855 320.406 542.933 320.453C543.013 320.501 543.105 320.541 543.198 320.577C543.294 320.614 543.384 320.635 543.482 320.673C543.599 320.719 543.688 320.743 543.774 320.774C543.859 320.806 543.942 320.815 544.04 320.848C544.169 320.892 544.266 320.922 544.344 320.945C544.43 320.969 544.54 321.03 544.65 321.068C544.82 321.127 544.956 321.174 545.093 321.212C545.241 321.253 545.338 321.281 545.536 321.342C545.689 321.388 545.871 321.456 546.019 321.494C546.129 321.523 546.322 321.564 546.448 321.607C546.543 321.639 546.753 321.662 546.916 321.696C547.024 321.719 547.102 321.739 547.21 321.753C547.319 321.766 547.435 321.802 547.557 321.838C547.656 321.867 547.788 321.887 547.949 321.921C548.072 321.946 548.189 321.972 548.283 321.988C548.361 322.001 548.449 322.017 548.542 322.044C548.682 322.084 548.802 322.102 548.905 322.127C549.036 322.159 549.261 322.21 549.426 322.248C549.532 322.273 549.649 322.291 549.769 322.316C549.889 322.34 549.977 322.349 550.09 322.376C550.229 322.409 550.418 322.439 550.516 322.453C550.599 322.464 550.673 322.488 550.756 322.511C550.88 322.544 551.04 322.556 551.143 322.578C551.273 322.606 551.364 322.61 551.444 322.634C551.537 322.662 551.647 322.659 551.765 322.686C551.87 322.71 551.971 322.722 552.11 322.767C552.209 322.798 552.338 322.829 552.441 322.852C552.521 322.869 552.608 322.91 552.711 322.935C552.74 322.942 552.774 322.95 552.818 322.959C552.862 322.969 552.916 322.977 553 323" stroke="#FFCBAE" stroke-width="2" stroke-linecap="round"/>
<path d="M811 557.13C811 557.248 811.041 557.504 811.099 557.663C811.159 557.828 811.281 557.978 811.401 558.136C811.51 558.279 811.605 558.422 811.714 558.556C811.826 558.691 811.939 558.817 812.059 558.941C812.175 559.059 812.273 559.162 812.367 559.32C812.454 559.468 812.472 559.636 812.549 559.843C812.614 560.016 812.68 560.199 812.748 560.357C812.812 560.506 812.92 560.662 813.029 560.811C813.156 560.983 813.274 561.176 813.405 561.309C813.534 561.441 813.609 561.639 813.718 561.783C813.835 561.935 813.901 562.142 813.979 562.315C814.065 562.506 814.224 562.626 814.329 562.784C814.442 562.956 814.579 563.09 814.751 563.278C814.909 563.45 815.122 563.603 815.263 563.727C815.396 563.843 815.56 563.9 815.722 563.998C815.882 564.095 816.04 564.205 816.192 564.299C816.341 564.392 816.499 564.501 816.682 564.6C816.953 564.747 817.188 564.818 817.449 564.877C817.591 564.909 817.752 564.916 818.13 564.961C818.926 565.054 819.546 564.956 819.755 564.926C820.251 564.856 820.611 564.818 820.825 564.793C821.122 564.758 821.289 564.729 821.519 564.685C821.795 564.631 822.093 564.63 822.276 564.611C822.478 564.589 822.656 564.512 822.845 564.468C823.112 564.405 823.397 564.266 823.612 564.172C823.792 564.093 823.951 564.019 824.087 563.886C824.228 563.747 824.389 563.546 824.655 563.294C824.927 563.036 825.274 562.777 825.527 562.593C825.721 562.452 826.017 562.312 826.283 562.169C826.642 561.975 827.122 561.779 827.364 561.577C827.522 561.444 827.666 561.227 827.792 560.97C827.892 560.765 827.938 560.428 827.985 559.932C828.013 559.632 828.001 559.23 827.954 558.721C827.908 558.212 827.815 557.606 827.726 557.148C827.578 556.391 827.458 556.016 827.396 555.751C827.195 554.893 827.041 554.694 826.963 554.511C826.862 554.275 826.749 554.121 826.629 553.963C826.509 553.805 826.321 553.628 826.185 553.435C826.072 553.274 825.935 553.144 825.805 553.025C825.774 552.998 825.727 552.996 825.69 553.005C825.653 553.015 825.622 553.044 825.606 553.098C825.534 553.341 825.653 553.508 825.689 553.666C825.727 553.833 825.819 554.001 825.872 554.174C825.928 554.359 826.018 554.514 826.065 554.677C826.126 554.889 826.237 555.077 826.305 555.235C826.37 555.387 826.414 555.551 826.446 555.714C826.484 555.912 826.55 556.083 826.566 556.266C826.573 556.351 826.592 556.654 826.597 557.083C826.6 557.307 826.623 557.914 826.618 558.768C826.615 559.223 826.571 559.419 826.555 559.71C826.545 559.898 826.446 560.07 826.399 560.238C826.351 560.412 826.269 560.603 826.19 560.771C826.12 560.921 826.102 561.087 826.034 561.274C825.964 561.468 825.893 561.669 825.804 561.837C825.715 562.006 825.591 562.133 825.403 562.31C825.184 562.518 824.975 562.695 824.813 562.814C824.668 562.921 824.474 563.011 824.302 563.086C824.112 563.168 823.963 563.277 823.811 563.406C823.681 563.517 823.504 563.584 823.31 563.688C823.157 563.77 822.971 563.781 822.804 563.826C822.585 563.91 822.355 563.979 822.272 564.003C822.23 564.018 822.189 564.038 822.146 564.058" stroke="#FFCBAE" stroke-width="2" stroke-linecap="round"/>
<path d="M825 552C825.037 552.038 825.081 552.192 825.129 552.347C825.176 552.496 825.178 552.675 825.218 552.84C825.256 552.991 825.274 553.168 825.329 553.357C825.376 553.514 825.415 553.671 825.466 553.826C825.518 553.98 825.563 554.134 825.6 554.294C825.642 554.474 825.704 554.627 825.73 554.782C825.755 554.935 825.792 555.091 825.804 555.246C825.815 555.404 825.844 555.746 825.867 555.999C825.881 556.167 825.926 556.337 825.952 556.516C825.963 556.792 825.985 556.908 825.996 557.133C826 557.32 826 557.655 826 558" stroke="#FFCBAE" stroke-width="2" stroke-linecap="round"/>
<path d="M802 542C802.02 541.869 802.062 541.381 802.185 540.982C802.283 540.665 802.453 540.379 802.566 540.077C802.691 539.745 802.844 539.417 802.927 539.114C803.008 538.816 803.071 538.511 803.164 538.199C803.265 537.861 803.236 537.437 803.298 537.077C803.35 536.769 803.463 536.473 803.504 536.171C803.557 535.786 803.689 535.341 803.741 534.757C803.783 534.284 803.874 533.757 803.988 533.454C804.107 533.139 804.307 532.851 804.503 532.586C804.707 532.311 804.842 532.039 805.039 531.747C805.265 531.41 805.522 531.19 805.76 530.954C805.988 530.727 806.264 530.568 806.522 530.35C806.798 530.118 807.17 530.02 807.501 529.888C807.881 529.736 808.283 529.567 808.665 529.482C809.046 529.397 809.396 529.227 809.726 529.105C809.886 529.045 810.199 529.038 810.58 529.029C810.82 529.023 811.983 528.982 813.652 529.01C814.464 529.023 814.774 529.283 815.104 529.443C815.449 529.611 815.701 529.849 815.98 530.075C816.208 530.26 816.464 530.452 816.712 530.688C816.981 530.945 817.165 531.225 817.433 531.528C817.667 531.792 817.886 532.037 818.123 532.329C818.379 532.645 818.525 532.98 818.7 533.292C818.752 533.377 818.813 533.47 818.875 533.546C818.938 533.622 818.999 533.678 819 533.68" stroke="#FFCBAE" stroke-width="2" stroke-linecap="round"/>
<path d="M810.03 516C810.008 516.009 809.985 516.158 810.013 516.303C810.042 516.45 810.177 516.578 810.24 516.727C810.304 516.88 810.337 517.044 810.427 517.203C810.508 517.345 810.53 517.501 810.609 517.655C810.698 517.829 810.79 517.977 810.91 518.155C811.029 518.332 811.052 518.527 811.092 518.696C811.141 518.906 811.233 519.069 811.268 519.218C811.304 519.375 811.403 519.535 811.483 519.694C811.558 519.843 811.585 520.039 811.631 520.203C811.683 520.391 811.687 520.599 811.727 520.809C811.783 521.1 811.767 521.344 811.795 521.541C811.818 521.7 811.835 522.053 811.864 522.325C811.894 522.614 811.903 522.93 811.937 523.169C811.981 523.48 811.994 523.911 812 524.409C812.003 524.632 811.937 524.779 811.904 524.928C811.869 525.082 811.801 525.3 811.739 525.488C811.68 525.666 811.564 525.852 811.495 525.992C811.424 526.137 811.325 526.272 811.189 526.458C811.052 526.608 810.939 526.738 810.809 526.855C810.769 526.879 810.724 526.897 810.643 527" stroke="#FFCBAE" stroke-width="2" stroke-linecap="round"/>
<path d="M796 520C796.04 520.038 796.119 520.189 796.239 520.313C796.354 520.432 796.508 520.531 796.628 520.655C796.739 520.77 796.787 520.931 796.867 521.083C796.945 521.232 796.996 521.387 797.071 521.563C797.137 521.716 797.166 521.871 797.226 522.024C797.288 522.183 797.346 522.328 797.415 522.466C797.466 522.567 797.287 522.206 797.212 522.053C797.123 521.873 796.977 521.731 796.947 521.375C796.936 521.243 796.887 521.16 796.892 521.107C796.894 521.087 796.946 521.102 796.981 521.121C797.12 521.196 797.146 521.406 797.231 521.586C797.3 521.734 797.366 521.871 797.435 522.047C797.501 522.215 797.644 522.337 797.69 522.475C797.739 522.625 797.943 522.793 798.068 522.965C798.181 523.118 798.282 523.268 798.362 523.425C798.458 523.613 798.562 523.782 798.636 523.934C798.717 524.099 798.841 524.238 798.911 524.39C798.986 524.554 799.07 524.713 799.145 524.87C799.215 525.018 799.349 525.131 799.474 525.326C799.596 525.517 799.718 525.635 799.833 525.763C799.965 525.912 800.077 526.034 800.216 526.139C800.382 526.264 800.525 526.433 800.665 526.585C800.796 526.727 800.914 526.861 801.029 527.008C801.146 527.16 801.313 527.232 801.423 527.346C801.539 527.466 801.701 527.536 801.861 527.636C802.016 527.733 802.2 527.84 802.35 527.954C802.518 528.082 802.688 528.163 802.848 528.263C802.996 528.355 803.167 528.391 803.336 528.472C803.542 528.57 803.705 528.6 803.865 528.662C804.034 528.728 804.243 528.733 804.403 528.809C804.559 528.884 804.722 528.895 804.882 528.947C805.258 529.07 805.918 528.943 806.425 528.919C806.834 528.9 807.354 528.876 807.662 528.857C807.861 528.845 808.012 528.744 808.206 528.71C808.43 528.672 808.58 528.601 808.745 528.501C808.935 528.386 809.148 528.335 809.288 528.245C809.453 528.139 809.607 528.05 809.786 527.95C809.975 527.845 810.085 527.698 810.235 527.537C810.375 527.386 810.583 527.167 810.699 526.99C810.763 526.929 810.902 526.834 811.2 526.668C811.399 526.568 811.695 526.437 812 526.301" stroke="#FFCBAE" stroke-width="2" stroke-linecap="round"/>
<path d="M816 523.006C815.918 522.978 815.706 523.053 815.469 523.167C815.161 523.317 815.021 523.576 814.837 523.719C814.663 523.854 814.584 524.033 814.471 524.18C814.331 524.363 814.1 524.612 813.846 524.883C813.647 525.095 813.485 525.268 813.326 525.44C813.122 525.659 813.013 525.82 813 526.237C812.994 526.448 813.106 526.619 813.195 526.747C813.3 526.901 813.566 526.905 813.885 526.924C813.956 526.933 814.003 526.952 814.051 526.966C814.098 526.981 814.145 526.99 814.193 527" stroke="#FFCBAE" stroke-width="2" stroke-linecap="round"/>
<path d="M801.924 531.201C801.863 531.192 801.705 531.119 801.481 531.009C801.146 530.844 801.063 530.688 801.005 530.601C800.963 530.536 801.184 530.394 801.347 530.265C801.481 530.16 801.659 530.091 801.84 530.022C801.978 529.969 802.143 530.017 802.288 530.104C802.506 530.234 802.626 530.329 802.763 530.453C802.882 530.561 802.96 530.878 802.996 531.241C803.021 531.49 802.909 531.632 802.852 531.779C802.838 531.816 802.83 531.852 802.816 531.889C802.803 531.926 802.786 531.963 802.689 532" stroke="#FFCBAE" stroke-width="2" stroke-linecap="round"/>
<path d="M795.595 520C795.595 519.839 795.518 519.474 795.42 519.148C795.313 518.795 795.322 518.377 795.205 518.052C795.088 517.726 795.088 517.341 795.049 516.814C794.975 515.822 794.99 514.234 795.058 513.899C795.138 513.51 795.127 513.138 795.195 512.812C795.266 512.469 795.4 512.123 795.487 511.777C795.58 511.412 795.79 511.026 795.955 510.63C796.108 510.265 796.394 510.01 796.658 509.725C796.894 509.471 797.193 509.218 797.526 508.933C797.798 508.7 798.091 508.527 798.442 508.385C798.937 508.184 799.359 508.242 799.701 508.181C800.084 508.113 800.819 508.059 801.379 508.009C801.934 507.959 802.247 508.14 802.56 508.201C802.9 508.268 803.204 508.424 803.496 508.546C803.791 508.67 804.082 508.728 804.374 508.891C804.652 509.046 804.998 509.053 805.311 509.287C805.709 509.584 806.013 510.048 806.297 510.322C806.58 510.597 806.794 510.901 807.087 511.277C807.301 511.553 807.438 511.875 807.653 512.201C807.865 512.523 808.121 512.749 808.346 513.003C808.55 513.258 808.746 513.379 808.833 513.541C808.882 513.623 808.94 513.703 809 513.847" stroke="#FFCBAE" stroke-width="2" stroke-linecap="round"/>
<path d="M795 518.615C795 518.656 795 518.761 795 518.909C795 518.983 795 519.014 795 518.994C795 518.877 795 518.385 795 518.047C795 517.709 795 516.873 795 516.267C795 515.835 795 515.121 795 514.497C795 514.36 795 514.214 795 514" stroke="#FFCBAE" stroke-width="2" stroke-linecap="round"/>
<path d="M797.519 492C797.568 492.038 797.647 492.19 797.751 492.347C797.857 492.508 797.885 492.676 797.964 492.857C798.042 493.035 798.092 493.19 798.127 493.343C798.166 493.511 798.27 493.666 798.349 493.857C798.425 494.04 798.527 494.209 798.621 494.372C798.718 494.538 798.824 494.724 798.918 494.924C799.024 495.148 799.052 495.305 799.116 495.458C799.182 495.615 799.249 495.791 799.304 495.943C799.359 496.099 799.408 496.248 799.496 496.424C799.59 496.61 799.645 496.848 799.739 497.001C799.835 497.158 799.862 497.382 799.946 497.544C800.021 497.688 800.08 497.867 800.149 498.03C800.211 498.173 800.258 498.334 800.312 498.492C800.375 498.672 800.446 498.839 800.49 499.03C800.534 499.217 800.575 499.363 800.599 499.544C800.625 499.735 800.683 499.906 800.698 500.154C800.709 500.329 800.772 500.478 800.807 500.654C800.861 500.931 800.842 501.163 800.866 501.345C800.888 501.506 800.901 501.81 800.93 502.055C800.953 502.241 800.98 502.45 800.995 503.105C801.006 503.611 801 504.241 800.96 504.412C800.912 504.622 800.852 504.812 800.783 504.975C800.717 505.129 800.654 505.279 800.501 505.456C800.382 505.593 800.298 505.737 800.17 505.842C800.029 505.957 799.903 506.099 799.769 506.199C799.634 506.3 799.488 506.404 799.329 506.537C799.174 506.668 798.944 506.804 798.766 506.918C798.601 507.024 798.449 507.147 798.291 507.237C798.125 507.332 797.945 507.423 797.787 507.49C797.64 507.552 797.48 507.642 797.282 507.695C797.091 507.746 796.936 507.795 796.744 507.828C796.417 507.885 796.254 507.881 795.475 507.895C795.155 507.901 794.959 507.938 794.667 507.952C794.453 507.963 794.237 507.995 793.684 508C793.434 508.002 793.258 507.938 793.035 507.886C792.794 507.829 792.635 507.795 792.476 507.748C792.321 507.7 792.16 507.653 792.002 507.576C791.843 507.5 791.686 507.424 791.522 507.338C791.321 507.232 791.201 507.091 791.048 507C790.871 506.895 790.736 506.795 790.607 506.69C790.478 506.586 790.34 506.491 790.202 506.333C790 506.105 789.885 505.986 789.752 505.833C789.626 505.689 789.52 505.529 789.416 505.381C789.32 505.246 789.213 505.119 789.119 504.976C789.014 504.817 788.906 504.671 788.793 504.519C788.66 504.339 788.531 504.157 788.412 504.033C788.298 503.913 788.224 503.757 788.115 503.604C788.007 503.451 787.908 503.299 787.823 503.123C787.747 502.964 787.69 502.766 787.586 502.604C787.49 502.453 787.453 502.252 787.359 502.028C787.205 501.661 787.107 501.47 787.013 501.313C786.903 501.13 786.81 500.975 786.711 500.832C786.575 500.635 786.395 500.46 786.281 500.317C786.171 500.179 786.039 500.041 785.895 499.775C785.789 499.577 785.624 499.384 785.544 499.227C785.44 499.021 785.327 498.869 785.257 498.722C785.158 498.593 785.119 498.469 785.099 498.365C785.08 498.307 785.04 498.241 785 498.173" stroke="#FFCBAE" stroke-width="2" stroke-linecap="round"/>
<path d="M790 507.232C790.059 507.297 790.177 507.449 790.354 507.785C790.67 508.384 790.848 509.015 790.952 509.277C791.031 509.476 791.173 509.679 791.302 509.87C791.408 510.028 791.558 510.169 791.746 510.349C791.911 510.507 792.101 510.561 792.313 510.762C792.751 511.178 792.782 511.464 792.876 511.665C792.968 511.863 793.117 512.202 793.211 512.519C793.273 512.725 793.325 512.901 793.345 512.961C793.427 513.211 793.394 512.195 793.414 511.945C793.444 511.561 793.502 511.194 793.532 510.987C793.561 510.785 793.729 510.628 793.803 510.47C793.893 510.278 794.123 510.171 794.345 510.04C794.572 509.907 794.785 509.746 795.114 509.529C795.419 509.328 795.613 509.278 795.796 509.164C795.949 509.068 796.117 509.05 796.324 508.941C796.501 508.847 796.845 508.745 797.084 508.641C797.294 508.55 797.517 508.462 797.676 508.348C797.848 508.224 798.119 508.147 798.302 508.016C798.511 507.868 798.692 507.765 798.884 507.673C799.231 507.507 799.432 507.45 799.722 507.352C800.095 507.227 800.31 507.135 800.527 507.069C800.699 507.017 800.872 506.917 801.114 506.819C801.286 506.75 801.484 506.645 801.731 506.514C801.916 506.416 802.076 506.232 802.214 506.042C802.466 505.695 802.491 505.481 802.531 505.28C802.603 504.916 802.639 504.288 802.664 503.877C802.692 503.403 802.639 503.207 802.595 502.957C802.497 502.404 802.363 502.152 802.294 502.004C802.265 501.942 802.44 502.603 802.692 503.332C802.848 503.784 803.131 504.064 803.329 504.331C803.576 504.665 803.987 505.344 804.301 505.822C804.474 506.086 804.72 506.533 804.884 506.791C804.948 506.892 804.977 507.014 804.997 507.079C805.045 507.234 804.458 506.885 804.051 506.694C803.814 506.601 803.636 506.492 803.557 506.454C803.518 506.438 803.479 506.427 803.438 506.416" stroke="#FFCBAE" stroke-width="2" stroke-linecap="round"/>
<path d="M660 365C659.939 364.969 659.795 364.866 659.631 364.784C659.47 364.703 659.333 364.609 659.168 364.562C658.997 364.514 658.85 364.372 658.675 364.289C658.504 364.209 658.326 364.033 658.176 363.888C658.019 363.736 657.791 363.62 657.631 363.512C657.486 363.413 657.349 363.301 657.179 363.157C656.932 362.946 656.784 362.766 656.639 362.595C656.524 362.459 656.393 362.322 656.264 362.183C656.072 361.975 655.838 361.715 655.689 361.591C655.54 361.467 655.437 361.282 655.339 361.107C655.243 360.934 655.128 360.798 655.005 360.617C654.884 360.442 654.789 360.252 654.727 360.087C654.666 359.925 654.614 359.757 654.552 359.592C654.49 359.426 654.46 359.211 654.419 359.036C654.377 358.858 654.326 358.635 654.295 358.413C654.264 358.189 654.234 357.884 654.203 357.589C654.169 357.265 654.152 356.832 654.136 356.466C654.125 356.212 654.09 356.028 654.074 355.504C654.068 355.307 654.038 355.193 654.023 354.902C653.958 353.67 654.049 353.463 654.084 353.288C654.119 353.117 654.182 352.938 654.238 352.731C654.293 352.535 654.336 352.371 654.393 352.175C654.454 351.964 654.552 351.763 654.629 351.557C654.696 351.361 654.788 351.237 654.845 351.155C654.871 351.114 654.891 351.073 655.004 351" stroke="#FFCBAE" stroke-width="2" stroke-linecap="round"/>
<path d="M654 356C654.041 355.822 654.095 355.423 654.13 355.144C654.152 354.967 654.192 354.798 654.212 354.071C654.22 353.793 654.274 353.624 654.294 353.425C654.313 353.244 654.41 353.074 654.472 352.932C654.544 352.768 654.698 352.611 654.828 352.431C654.935 352.283 655.15 352.194 655.349 352.08C655.591 351.941 655.876 351.739 656.225 351.508C656.465 351.341 656.671 351.199 656.76 351.147C656.808 351.123 656.862 351.105 657 351" stroke="#FFCBAE" stroke-width="2" stroke-linecap="round"/>
<path d="M671 355C670.932 354.962 670.758 354.886 670.568 354.799C670.406 354.726 670.214 354.627 670.01 354.536C669.798 354.442 669.612 354.33 669.456 354.235C669.312 354.146 669.145 354.091 668.99 354.024C668.834 353.957 668.679 353.9 668.523 353.823C668.363 353.744 668.184 353.699 668.028 353.622C667.865 353.542 667.669 353.469 667.45 353.369C667.262 353.282 667.067 353.192 666.896 353.101C666.745 353.02 666.61 352.895 666.478 352.794C666.339 352.688 666.173 352.608 666.041 352.507C665.905 352.404 665.716 352.33 665.551 352.225C665.404 352.131 665.172 352.072 664.997 352.009C664.839 351.953 664.696 351.833 664.429 351.732C664.195 351.644 663.968 351.536 663.826 351.455C663.691 351.377 663.521 351.335 663.336 351.292C663.137 351.245 662.948 351.191 662.758 351.177C662.592 351.164 662.192 351.095 661.705 351.048C661.492 351.027 661.344 351.028 661.065 351.014C660.382 350.979 659.887 351.019 659.761 351.033C659.365 351.078 658.938 351.067 658.619 351.095C658.455 351.11 658.304 351.191 658.124 351.263C657.967 351.325 657.808 351.392 657.653 351.468C657.489 351.549 657.294 351.64 657.027 351.774C656.825 351.876 656.672 351.995 656.511 352.124C656.333 352.267 656.166 352.387 656.021 352.478C655.86 352.578 655.758 352.731 655.666 352.87C655.57 353.013 655.467 353.162 655.355 353.305C655.25 353.44 655.205 353.612 655.141 353.765C655.087 353.918 655.049 354.071 655.005 354.224C655 354.263 655 354.301 655 354.34" stroke="#FFCBAE" stroke-width="2" stroke-linecap="round"/>
<path d="M654 354.272C654.05 354.238 654.171 354.135 654.303 354.041C654.434 353.947 654.525 353.801 654.636 353.68C654.747 353.56 654.879 353.448 655.005 353.349C655.135 353.248 655.233 353.147 655.349 353.022C655.531 352.827 655.698 352.709 655.819 352.597C655.941 352.485 656.112 352.391 656.254 352.279C656.433 352.138 656.567 352.013 656.729 351.879C656.868 351.765 657.033 351.72 657.184 351.686C657.355 351.646 657.507 351.574 657.71 351.535C657.974 351.485 658.175 351.445 658.342 351.381C658.554 351.299 658.751 351.222 658.913 351.174C658.954 351.162 658.994 351.144 658.999 351.123C659.005 351.101 658.975 351.076 658.934 351.058C658.742 350.975 658.46 351.007 658.101 351.002C657.888 350.999 657.691 351.126 657.464 351.234C657.241 351.339 657.074 351.461 656.912 351.56C656.759 351.654 656.589 351.728 656.477 351.844C656.352 351.974 656.164 352.072 656.028 352.188C655.885 352.309 655.82 352.458 655.729 352.596C655.64 352.73 655.547 352.854 655.507 353.004C655.466 353.154 655.335 353.266 655.239 353.391C655.14 353.519 655.042 353.644 654.926 353.889C654.851 354.046 654.759 354.169 654.678 354.319C654.607 354.45 654.587 354.615 654.521 354.783C654.466 354.923 654.415 355.062 654.359 355.213C654.303 355.415 654.243 355.62 654.207 355.819C654.202 355.862 654.192 355.905 654.182 356" stroke="#FFCBAE" stroke-width="2" stroke-linecap="round"/>
<path d="M644.289 338C644.379 338.059 644.579 338.259 644.73 338.42C644.873 338.572 644.991 338.77 645.097 338.905C645.208 339.049 645.332 339.2 645.453 339.351C645.56 339.483 645.653 339.641 645.764 339.771C645.883 339.912 646.054 340.041 646.16 340.186C646.257 340.319 646.426 340.391 646.576 340.552C646.727 340.712 646.847 340.852 646.993 340.947C647.136 341.041 647.239 341.182 647.429 341.337C647.684 341.545 647.941 341.663 648.137 341.828C648.281 341.949 648.433 342.033 648.598 342.168C648.768 342.306 648.944 342.403 649.15 342.538C649.323 342.652 649.466 342.773 649.637 342.849C649.809 342.925 649.918 343.074 650.064 343.169C650.202 343.26 650.359 343.324 650.57 343.509C650.73 343.649 650.901 343.714 651.032 343.825C651.163 343.935 651.323 344.035 651.458 344.155C651.606 344.285 651.754 344.395 651.93 344.505C652.075 344.596 652.226 344.675 652.392 344.82C652.579 344.984 652.717 345.205 652.838 345.386C652.936 345.531 653.029 345.696 653.139 345.866C653.245 346.03 653.33 346.186 653.435 346.347C653.533 346.495 653.611 346.637 653.651 346.797C653.692 346.96 653.762 347.117 653.802 347.277C653.844 347.445 653.852 347.627 653.892 347.788C653.935 347.957 653.953 348.296 653.978 348.538C653.994 348.699 654.013 349.235 653.988 349.654C653.959 350.139 653.933 350.32 653.888 350.53C653.836 350.771 653.792 350.95 653.717 351.146C653.654 351.308 653.582 351.471 653.481 351.666C653.307 352.005 653.24 352.161 653.145 352.322C653.037 352.505 652.93 352.732 652.809 352.912C652.71 353.061 652.599 353.192 652.503 353.342C652.4 353.504 652.258 353.682 652.122 353.833C651.991 353.978 651.886 354.103 651.75 354.208C651.593 354.331 651.374 354.404 651.189 354.434C651.008 354.463 650.833 354.504 650.672 354.544C650.511 354.584 650.291 354.644 650.1 354.719C649.944 354.78 649.779 354.804 649.613 354.869C649.435 354.939 649.267 354.954 649.106 354.974C648.795 355.013 648.334 355.005 648.099 354.97C647.686 354.908 647.422 354.934 647.125 354.91C646.539 354.86 646.377 354.855 646.211 354.81C646.021 354.758 645.865 354.724 645.5 354.595C645.282 354.517 645.143 354.454 644.982 354.389C644.742 354.293 644.481 354.134 644.32 354.089C644.149 354.041 643.999 353.954 643.803 353.899C643.452 353.8 643.257 353.704 643.081 353.634C642.868 353.549 642.615 353.434 642.423 353.353C642.273 353.29 642.043 353.224 641.851 353.133C641.693 353.058 641.51 353.003 641.34 352.928C641.184 352.86 641.019 352.773 640.858 352.688C640.708 352.608 640.537 352.553 640.356 352.488C640.063 352.382 639.875 352.253 639.709 352.167C639.511 352.066 639.333 351.963 639.147 351.902C638.979 351.847 638.821 351.762 638.665 351.712C638.515 351.664 638.369 351.592 638.209 351.537C638.032 351.476 637.858 351.402 637.592 351.302C637.381 351.223 637.225 351.152 637.065 351.111C636.895 351.068 636.744 350.961 636.533 350.911C636.36 350.87 636.202 350.781 635.991 350.706C635.822 350.646 635.64 350.551 635.419 350.466C635.252 350.401 635.028 350.311 634.812 350.201C634.646 350.116 634.456 350.061 634.295 350.01C634.113 349.954 633.894 349.851 633.723 349.825C633.542 349.77 633.302 349.67 633.121 349.595C633.081 349.58 633.041 349.57 633 349.56" stroke="#FFCBAE" stroke-width="2" stroke-linecap="round"/>
<path d="M653.937 361C653.898 360.921 653.769 360.791 653.375 360.52C653.028 360.281 652.391 359.824 652.038 359.566C651.628 359.267 651.565 359.158 651.525 359.064C651.45 358.885 651.485 358.68 651.539 358.432C651.633 358.002 651.773 357.754 651.827 357.59C651.889 357.404 651.951 357.246 652.026 357.062C652.118 356.835 652.219 356.529 652.373 356.221C652.428 356.111 652.458 356.031 652.497 355.981C652.517 355.956 652.576 355.99 652.616 356.015C652.823 356.144 652.885 356.528 652.974 356.747C653.061 356.962 653.033 357.314 653.049 357.514C653.067 357.753 653.093 357.991 653.108 358.186C653.115 358.272 653.133 358.39 653.113 358.51C653.106 358.554 653.054 358.55 653.014 358.54C652.85 358.5 652.658 358.401 652.192 358.257C652.01 358.201 651.873 358.152 651.262 357.979C650.718 357.825 649.709 357.501 649.163 357.333C648.478 357.124 648.319 357.086 648.12 357.061C648.061 357.054 647.992 357.056 648.001 357.051C648.087 357.003 648.228 357.026 648.322 357.022C648.447 357.015 649.077 356.997 649.955 356.992C650.443 356.989 650.64 356.897 650.829 356.728C651.015 356.563 651.137 356.35 651.33 356.151C651.556 355.919 651.653 355.633 651.763 355.498C651.882 355.351 651.971 355.185 652.09 355.05C652.228 354.895 652.536 354.668 652.745 354.408C652.887 354.233 653.161 354.011 653.865 353.195C654.133 352.886 654.244 352.646 654.383 352.406C654.54 352.137 654.741 351.68 654.894 351.341C655.166 350.743 655.465 350.058 655.59 349.748C655.765 349.311 655.793 348.981 655.848 348.432C655.887 348.042 655.853 347.419 655.838 347.059C655.814 346.465 655.675 346.252 655.571 346.102C655.421 345.887 654.96 346.071 654.688 346.121C654.445 346.166 654.612 346.668 654.726 347.026C654.796 347.248 655.116 347.652 655.503 348.15C655.825 348.564 656.061 348.611 656.264 348.671C656.602 348.77 656.805 348.79 657.073 348.86C657.248 348.906 657.43 348.92 657.699 348.94C657.896 348.955 658.086 349.039 658.28 349.084C658.444 349.149 658.573 349.179 658.686 349.213C658.751 349.238 658.83 349.278 659 349.378" stroke="#FFCBAE" stroke-width="2" stroke-linecap="round"/>
<path d="M626.181 331C626.289 331.038 626.524 331.173 626.686 331.265C626.869 331.368 626.994 331.501 627.176 331.65C627.317 331.766 627.465 331.847 627.622 331.949C627.779 332.05 627.936 332.165 628.088 332.271C628.272 332.4 628.475 332.589 628.622 332.681C628.781 332.78 628.955 332.916 629.117 333.004C629.274 333.088 629.435 333.225 629.592 333.317C629.752 333.41 629.877 333.543 630.058 333.654C630.221 333.754 630.377 333.89 630.529 334.006C630.674 334.116 630.818 334.266 630.945 334.386C631.089 334.521 631.249 334.708 631.45 334.892C631.698 335.117 631.828 335.296 631.955 335.431C632.12 335.607 632.278 335.759 632.416 335.918C632.579 336.106 632.71 336.318 632.842 336.491C633.061 336.778 633.239 337.096 633.391 337.348C633.541 337.595 633.651 337.868 633.759 338.129C633.828 338.296 633.848 338.495 633.911 338.731C633.978 338.98 633.985 339.371 634 340.299C634.006 340.654 633.917 340.942 633.877 341.169C633.842 341.369 633.789 341.578 633.72 341.824C633.674 341.989 633.632 342.166 633.564 342.33C633.499 342.486 633.456 342.638 633.387 342.816C633.325 342.978 633.241 343.129 633.142 343.303C632.993 343.567 632.829 343.774 632.691 343.948C632.575 344.096 632.33 344.352 632.099 344.531C631.913 344.675 631.751 344.825 631.618 344.974C631.5 345.107 631.348 345.181 631.206 345.278C631.015 345.408 630.78 345.471 630.618 345.534C630.442 345.602 630.28 345.625 630.123 345.649C629.967 345.673 629.693 345.683 629.461 345.707C629.231 345.731 628.938 345.77 628.638 345.799C628.33 345.828 627.898 345.847 627.155 345.861C626.712 345.87 626.163 345.866 625.581 345.852C625.307 345.845 625.094 345.799 624.903 345.775C624.674 345.746 624.477 345.703 624.3 345.645C623.933 345.525 623.448 345.106 623.198 344.923C622.831 344.655 622.653 344.643 622.438 344.551C622.165 344.435 621.948 344.344 621.766 344.262C621.576 344.177 621.398 344.142 621.231 344.108C620.999 344.061 620.81 343.997 620.599 343.949C620.198 343.857 619.556 343.603 619.139 343.424C618.914 343.328 618.615 343.208 618.345 343.034C618.163 342.918 618.035 342.851 618.01 342.817C617.935 342.714 618.289 342.918 618.446 342.995C618.599 343.07 618.76 343.12 618.99 343.221C619.181 343.305 619.435 343.399 619.647 343.486C619.861 343.574 620.171 343.717 620.533 343.823C620.758 343.889 620.936 343.939 621.122 343.954C621.325 343.97 621.514 344.103 621.827 344.213C622.137 344.323 622.347 344.411 622.563 344.498C622.764 344.579 622.965 344.623 623.318 344.772C623.518 344.857 623.671 344.922 623.877 345.018C624.057 345.102 624.2 345.22 624.392 345.336C624.594 345.458 624.779 345.538 625.112 345.697C625.379 345.825 625.592 345.818 625.803 345.88C626.01 345.942 626.229 345.943 626.45 345.991C626.504 346.003 626.563 346.001 626.568 345.996C626.784 345.817 625.81 345.751 625.623 345.712C625.465 345.68 625.252 345.654 625.031 345.606C624.699 345.534 624.496 345.548 624.344 345.481C624.533 345.423 624.799 345.452 624.862 345.495C624.897 345.51 624.936 345.51 624.976 345.51" stroke="#FFCBAE" stroke-width="2" stroke-linecap="round"/>
<path d="M633.29 334C633.299 334.019 633.434 334.354 633.594 334.794C633.724 335.15 633.948 335.423 634.184 335.733C634.608 336.288 634.994 336.836 635.256 337.108C635.457 337.316 635.587 337.44 635.708 337.618C635.844 337.817 636.013 338.003 636.135 338.157C636.188 338.224 636.236 338.32 636.362 338.502C636.596 338.842 636.827 339.317 636.987 339.805C637.137 340.262 637.032 340.604 636.96 340.811C636.743 341.432 636.336 341.808 636.078 342.121C635.948 342.279 635.869 342.433 635.715 342.62C635.392 343.01 635.017 343.47 634.702 343.767C634.45 344.004 634.289 344.124 633.962 344.438C633.679 344.709 633.174 345.222 632.849 345.533C632.411 345.954 632.128 346.121 631.842 346.269C631.395 346.501 631.206 346.527 631.06 346.64C630.991 346.694 630.992 346.823 631.011 346.971C631.034 347.147 631.252 347.366 631.672 347.677C631.934 347.871 632.351 348.056 632.712 348.22C633.372 348.521 633.812 348.653 634.054 348.726C634.57 348.884 635.138 349.116 635.514 349.221C635.753 349.288 636.08 349.394 636.439 349.522C636.664 349.603 636.914 349.701 637.185 349.794C637.465 349.891 637.738 350.027 638.21 350.199C638.543 350.32 639.048 350.557 639.415 350.707C639.988 350.941 640.365 351.074 640.713 351.237C641.128 351.432 641.586 351.608 642.016 351.81C642.444 352.012 642.876 352.172 643.579 352.506C644.085 352.746 644.916 353.075 645.48 353.325C646.045 353.575 646.323 353.722 646.639 353.905C646.955 354.089 647.301 354.304 647.709 354.498C648.559 354.902 649.091 355.05 649.169 355.079C649.343 355.146 649.623 355.168 650.03 355.154C650.363 355.142 650.563 354.273 650.71 353.83C650.78 353.62 650.826 353.224 650.861 352.891C650.875 352.757 650.885 352.432 650.899 351.812C650.908 351.446 650.943 350.976 651.005 350.514C651.068 350.051 651.164 349.611 651.262 349.257C651.431 348.641 651.602 348.298 651.699 348.096C651.93 347.613 652 347.329 652 347.303C652 347.278 651.962 347.425 651.453 348.205C650.944 348.984 649.955 350.443 649.388 351.311C648.821 352.18 648.706 352.415 648.608 352.659C648.299 353.43 648.307 353.596 648.268 353.636C648.253 353.651 648.229 353.558 648.229 353.362C648.229 353.165 648.248 352.842 648.541 351.266C648.834 349.69 649.4 346.871 649.692 345.394C649.984 343.917 649.983 343.868 649.979 343.868C649.974 343.867 649.964 343.916 649.537 344.631C649.11 345.347 648.265 346.727 647.657 347.829C647.05 348.932 646.704 349.715 646.488 350.314C646.137 351.285 646.115 351.806 646.144 351.984C646.17 352.146 646.338 352.202 646.483 352.237C646.718 352.293 646.996 352.242 647.689 351.992C648.262 351.785 649.265 351.36 649.866 351.1C650.64 350.764 650.836 350.601 650.904 350.566C650.968 350.533 650.972 351.012 650.848 352.197C650.758 353.044 650.473 354.371 650.326 355.1C650.178 355.83 650.139 355.918 650.086 355.964C650.033 356.009 649.965 356.009 649.921 355.98C649.831 355.92 649.771 355.498 649.66 354.475C649.585 353.788 649.596 352.747 649.754 351.234C649.912 349.721 650.248 347.763 650.479 346.564C650.709 345.364 650.825 344.983 650.889 344.761C650.953 344.54 650.962 344.491 650.963 344.51C650.966 344.967 650.45 345.586 650.189 345.926C650.051 346.107 649.871 346.276 648.515 347.16C647.159 348.044 644.625 349.629 643.306 350.417C641.986 351.204 641.957 351.146 641.942 351.057C641.908 350.853 641.966 350.543 642.082 350.129C642.146 349.897 642.274 349.637 642.559 349.173C642.844 348.709 643.295 348.053 644.199 347.035C645.103 346.017 646.447 344.656 647.163 343.965C647.879 343.274 647.927 343.294 647.976 343.49C648.025 343.686 648.073 344.058 648.083 344.607C648.093 345.155 648.065 345.87 647.863 347.055C647.661 348.241 647.286 349.876 647.036 350.879C646.703 352.215 646.532 352.578 646.499 352.593C646.473 352.604 646.474 352.481 646.609 351.814C646.743 351.147 647.021 349.904 647.174 349.185C647.36 348.313 647.366 348.031 647.28 347.946C647.213 347.881 647.02 348.165 646.485 348.676C645.95 349.188 645.057 350.02 644.564 350.473C644.071 350.926 644.003 350.975 643.964 350.957C643.859 350.906 643.915 350.612 643.963 350.277C643.99 350.087 644.069 349.864 644.511 348.97C644.954 348.075 645.769 346.519 646.204 345.747C646.639 344.974 646.667 345.033 646.687 345.195C646.707 345.358 646.716 345.622 646.678 346.111C646.64 346.599 646.553 347.304 646.509 347.706C646.464 348.108 646.464 348.187 646.388 348.129C646.115 347.925 645.97 347.625 645.912 347.595C645.881 347.579 645.854 347.702 645.787 348.496C645.719 349.29 645.613 350.788 645.549 351.54C645.485 352.292 645.466 352.253 645.442 352.213C645.392 352.132 645.234 351.839 644.959 351.204C644.586 350.345 644.41 349.722 644.299 349.544C644.178 349.352 643.878 349.158 643.477 348.951C643.104 348.758 642.743 348.722 642.352 348.693C641.32 348.614 641.094 348.781 641.026 348.742C640.792 348.609 641.122 348.091 641.517 347.511C641.8 347.095 642.315 346.48 643.138 345.59C643.961 344.7 645.094 343.564 645.701 342.945C646.309 342.326 646.357 342.257 646.391 342.271C646.425 342.285 646.445 342.382 646.416 342.56C646.388 342.738 646.311 342.992 645.71 344.073C645.109 345.153 643.986 347.052 643.177 348.339C642.368 349.626 641.908 350.242 641.368 350.829C640.828 351.416 640.224 351.954 639.744 352.339C639.265 352.724 638.929 352.94 638.741 353.031C638.554 353.122 638.525 353.083 638.501 353.034C638.449 352.929 638.437 352.444 638.524 351.483C638.573 350.939 638.783 350.297 639.131 349.431C639.479 348.565 639.997 347.498 640.888 346.043C641.779 344.588 643.027 342.777 643.732 341.712C644.437 340.647 644.562 340.383 644.616 340.271C644.671 340.159 644.652 340.208 643.865 341.359C643.077 342.51 641.523 344.761 640.328 346.386C639.134 348.011 638.347 348.941 637.984 349.371C637.622 349.801 637.709 349.703 637.883 349.54C638.057 349.377 638.316 349.152 639.169 348.561C640.022 347.97 641.462 347.021 642.223 346.556C642.984 346.092 643.022 346.141 643.056 346.215C643.133 346.381 643.158 346.889 643.159 347.649C643.159 348.007 643.12 348.311 643.053 348.638C642.913 349.316 642.675 349.887 642.505 350.311C642.252 350.946 642.131 351.213 642.083 351.248C641.825 351.434 641.657 350.316 641.381 350.092C641.282 350.012 641.162 350.037 641.099 349.998C640.889 349.867 640.939 349.494 640.953 349.366C640.962 349.286 640.996 349.179 641.64 348.204C642.283 347.228 643.54 345.388 644.202 344.386C644.923 343.296 644.961 343.087 645.029 342.924C645.15 342.634 645.252 342.151 645.234 341.807C645.221 341.566 644.789 341.505 644.449 341.426C644.316 341.394 644.033 341.513 643.305 341.95C642.783 342.264 642.011 342.867 640.68 344.041C639.348 345.214 637.496 346.966 636.417 347.972C635.338 348.977 635.088 349.183 634.945 349.249C634.802 349.316 634.773 349.238 634.792 349.06C634.811 348.883 634.878 348.609 635.225 348.037C635.571 347.465 636.195 346.604 637.414 345.279C638.633 343.954 640.427 342.193 641.347 341.358C642.267 340.524 642.257 340.671 642.161 341.026C642.065 341.38 641.883 341.938 641.582 342.627C641.282 343.316 640.869 344.118 640.532 344.693C640.195 345.268 639.945 345.591 639.399 346.144C638.853 346.697 638.018 347.471 637.468 347.942C636.706 348.596 636.296 348.771 636.049 348.87C635.857 348.947 635.704 348.95 635.583 348.886C635.381 348.779 635.144 348.221 634.742 347.658C634.417 347.204 634.269 347.092 634.23 346.84C634.186 346.554 634.297 346.222 634.466 345.823C634.731 345.196 635.101 344.709 635.386 344.399C635.718 344.038 636.071 343.779 636.37 343.582C636.973 343.185 637.321 343.195 637.53 343.136C637.747 343.075 637.865 342.741 637.909 342.504C637.969 342.181 637.672 341.842 637.435 341.599C637.108 341.265 636.597 341.011 636.349 340.808C636.177 340.667 635.995 340.704 635.922 340.703C635.87 340.703 635.821 340.82 635.58 341.796C635.339 342.771 634.917 344.631 634.613 345.834C634.309 347.036 634.137 347.526 634.028 347.812C633.843 348.304 633.668 348.523 633.383 348.997C633.183 349.33 632.893 349.62 632.676 349.813C632.6 349.88 632.563 349.84 632.5 349.732C632.332 349.443 632.223 349.109 632.199 348.706C632.16 348.049 632.271 347.468 632.373 347.177C632.47 346.897 632.755 346.707 632.955 346.488C633.03 346.406 633.153 346.183 633.375 345.921C633.522 345.749 633.907 345.413 634.641 344.753C635.06 344.375 635.644 343.994 635.998 343.729C636.488 343.361 636.749 343.117 637.231 342.641C637.587 342.289 638.097 341.646 638.513 341.112C638.929 340.579 639.217 340.158 639.394 339.883C639.739 339.345 639.717 338.829 639.669 338.421C639.65 338.263 639.36 338.006 638.94 337.587C638.096 336.745 637.682 336.709 637.571 336.689C637.518 336.68 637.469 336.709 637.435 336.782C637.347 336.971 637.361 337.32 637.385 337.783C637.415 338.348 637.612 338.872 637.859 339.292C638.113 339.724 638.523 340 638.871 340.232C639.041 340.346 639.219 340.415 639.606 340.509C639.992 340.604 640.587 340.711 640.942 340.781C641.394 340.871 641.53 340.921 641.631 340.843C642.11 340.473 641.927 339.738 641.836 339.375C641.769 339.109 641.415 338.964 640.926 338.776C640.755 338.711 640.629 338.726 640.537 338.741C640.393 338.763 640.405 339.091 640.405 339.425C640.405 339.879 640.531 340.355 640.676 340.824C640.845 341.372 641.102 341.809 641.32 342.081C641.667 342.514 642.139 342.483 642.328 342.464C642.395 342.457 642.393 342.405 642.388 342.355C642.374 342.247 642.335 342.138 642.291 342.039C642.276 341.989 642.276 341.94 642.276 341.89" stroke="#FFCBAE" stroke-width="2" stroke-linecap="round"/>
<path d="M822.764 579.184C822.764 578.833 822.598 578.047 822.408 577.34C822.141 576.346 822.178 575.689 821.989 575.06C821.788 574.39 821.506 573.803 821.381 573.173C821.254 572.535 821.128 571.682 821.024 570.757C820.93 569.923 821.127 569.281 821.399 569.045C822.003 568.522 822.719 568.258 823.39 568.101C824.652 567.805 826.536 568.216 827.144 568.61C827.797 569.032 828.046 569.749 828.424 570.338C828.803 570.928 829.055 571.555 829.368 572.419C829.923 573.951 829.641 574.661 829.705 575.682C829.749 576.404 830.018 577.019 829.999 580.096C829.995 580.757 829.812 580.91 829.686 581.049C829.208 581.572 828.262 581.698 827.547 581.896C826.458 582.197 824.905 581.781 824.297 581.485C823.608 581.149 823.395 580.288 823.121 579.56C822.873 578.902 822.681 578.283 822.388 577.654C822.094 577.024 821.926 576.397 821.737 575.748C821.674 575.57 821.591 575.376 821.528 575.178C821.464 574.981 821.423 574.786 821.38 574.35" stroke="#492110" stroke-width="2" stroke-linecap="round"/>
<path d="M825.257 579.484C825.128 579.404 824.904 579.08 824.7 578.704C824.498 578.334 824.253 577.985 823.992 577.438C823.783 576.998 823.732 576.646 823.592 576.321C823.462 576.02 823.453 575.633 823.396 575.277C823.302 574.681 823.266 573.788 823.201 573.159C823.138 572.552 823.135 571.863 823.08 571.383C823.02 570.867 822.987 570.218 823.005 569.589C823.011 569.386 823.247 569.324 823.367 569.213C823.919 568.704 825.384 569.241 825.86 569.455C826.269 569.638 826.595 570.173 826.894 570.599C827.329 571.22 827.489 571.775 827.565 572.121C827.64 572.466 827.88 572.85 828.094 573.277C828.317 573.719 828.42 574.23 828.513 574.585C828.64 575.07 828.736 575.426 828.784 575.973C828.819 576.388 828.942 577.347 828.988 578.082C829.021 578.604 828.979 579.017 828.933 579.178C828.885 579.347 828.757 579.463 828.617 579.554C828.482 579.643 828.108 579.727 827.568 579.697C827.088 579.67 826.877 579.141 826.654 578.876C826.43 578.612 826.207 578.249 825.947 577.752C825.888 577.64 825.853 577.559 825.834 577.929C825.815 578.299 825.815 579.122 825.871 579.567C825.926 580.011 826.036 580.051 826.167 579.961C826.813 579.517 826.782 578.897 827.033 578.411C827.568 577.376 827.137 575.695 827.016 575.065C826.86 574.251 826.598 573.706 826.375 573.058C826.172 572.47 825.909 572.043 825.695 571.728C825.647 571.657 825.556 571.656 825.491 571.676C824.966 571.834 824.941 573.234 824.94 575.359C824.94 576.086 825.126 576.481 825.303 576.705C825.402 576.832 825.406 576.08 825.323 575.202C825.129 573.155 824.793 572.25 824.653 571.647C824.56 571.249 824.475 570.565 824.66 570.318C825.881 568.68 825.852 572.648 825.918 572.983C825.935 573.073 825.927 573.175 825.89 573.176C825.548 573.19 825.518 572.49 825.388 571.608C825.344 571.316 825.406 571.009 825.489 570.664C825.594 570.233 825.926 570.095 826.047 570.023C826.112 570.032 826.186 570.133 826.233 570.235C826.28 570.336 826.299 570.437 826.318 570.662" stroke="#492110" stroke-width="2" stroke-linecap="round"/>
<path d="M806.098 543C806.098 542.971 806.057 542.774 805.975 542.616C805.892 542.458 805.83 542.301 805.763 542.143C805.695 541.983 805.676 541.799 805.634 541.641C805.593 541.483 805.572 541.326 805.542 541.168C805.511 541.01 805.47 540.853 805.423 540.69C805.369 540.503 805.295 540.242 805.232 540.02C805.178 539.826 805.088 539.591 805.021 539.369C804.963 539.177 804.903 539.02 804.836 538.857C804.751 538.651 804.625 538.311 804.516 538.064C804.433 537.874 804.388 537.719 804.31 537.556C804.228 537.383 804.192 537.216 804.125 537.029C804.056 536.838 804.057 536.635 804.032 536.428C803.987 536.065 803.996 535.847 804.021 535.625C804.053 535.354 804.088 535.098 804.145 534.871C804.194 534.674 804.232 534.496 804.279 534.314C804.322 534.144 804.387 533.994 804.474 533.831C804.579 533.637 804.696 533.286 804.82 533.067C804.932 532.87 805.097 532.526 805.232 532.289C805.383 532.022 805.53 531.777 805.675 531.614C805.843 531.425 805.994 531.294 806.159 531.175C806.324 531.057 806.53 530.939 806.772 530.85C806.984 530.772 807.189 530.673 807.401 530.603C807.628 530.529 807.808 530.456 808.009 530.382C808.177 530.32 808.344 530.288 808.535 530.254C808.714 530.221 808.89 530.15 809.147 530.13C809.264 530.121 809.364 530.071 809.467 530.047C809.573 530.021 810.296 529.992 811.372 530.002C812.219 530.01 812.734 530.071 812.94 530.105C813.217 530.152 813.445 530.199 813.61 530.253C813.785 530.31 814.114 530.444 814.45 530.588C814.759 530.72 815.001 530.849 815.218 530.943C815.427 531.033 815.64 531.194 815.867 531.381C816.215 531.668 816.331 531.854 816.465 532.017C816.591 532.169 816.774 532.307 816.944 532.475C817.085 532.613 817.217 532.799 817.372 533.08C817.486 533.288 817.578 533.49 817.686 533.736C817.775 533.938 817.867 534.091 817.97 534.288C818.097 534.533 818.217 534.77 818.336 534.963C818.44 535.133 818.495 535.342 818.588 535.574C818.684 535.813 818.846 536.042 818.903 536.2C818.983 536.423 819.186 536.663 819.279 536.84C819.415 537.101 819.526 537.254 819.634 537.412C819.739 537.566 819.835 537.727 819.912 537.91C819.981 538.072 820.082 538.23 820.139 538.422C820.206 538.647 820.299 538.821 820.356 538.979C820.415 539.144 820.495 539.294 820.562 539.457C820.635 539.634 820.721 539.836 820.789 540.014C820.824 540.092 820.876 540.162 820.933 540.225C820.959 540.26 820.979 540.299 821 540.339" stroke="#FFCBAE" stroke-width="2" stroke-linecap="round"/>
<path d="M806.627 543C806.627 542.913 806.607 542.72 806.541 542.56C806.465 542.378 806.404 542.178 806.373 542.009C806.34 541.823 806.272 541.656 806.231 541.486C806.186 541.296 806.14 541.104 806.084 540.939C806.032 540.786 805.998 540.63 805.937 540.475C805.875 540.318 805.845 540.136 805.785 539.957C805.731 539.801 805.663 539.624 805.551 539.213C805.488 538.981 805.46 538.801 805.434 538.612C805.403 538.384 805.338 538.153 805.287 537.949C805.229 537.719 805.155 537.35 805.104 537.102C805.06 536.885 805.023 536.691 805.008 536.189C804.99 535.61 805.003 534.736 805.043 534.581C805.086 534.417 805.124 534.243 805.2 534.049C805.297 533.803 805.368 533.633 805.464 533.454C805.55 533.294 805.652 533.14 805.753 532.98C805.872 532.794 806.017 532.675 806.129 532.511C806.293 532.269 806.474 532.143 806.621 532.051C806.766 531.96 806.961 531.852 807.199 531.746C807.394 531.659 807.631 531.62 807.864 531.533C808.039 531.468 808.26 531.407 808.453 531.358C808.627 531.315 808.808 531.252 808.976 531.189C809.154 531.122 809.346 531.117 809.549 531.068C810.03 530.953 810.818 531.02 811.441 531.015C811.754 531.012 812.136 531.068 812.523 531.121C812.886 531.171 813.254 531.193 813.432 531.237C813.674 531.297 813.904 531.339 814.112 531.392C814.357 531.455 814.655 531.552 814.818 531.595C814.986 531.64 815.112 531.774 815.28 531.885C815.469 532.011 815.659 532.18 816.202 532.682C816.418 532.882 816.543 533.051 816.685 533.245C816.851 533.47 817.05 533.728 817.269 534.014C817.428 534.221 817.569 534.396 817.731 534.648C817.845 534.825 817.965 534.967 818.076 535.132C818.186 535.295 818.36 535.518 818.503 535.732C818.603 535.883 818.726 536.022 818.843 536.206C818.971 536.409 819.102 536.564 819.228 536.753C819.341 536.922 819.457 537.067 819.538 537.27C819.621 537.477 819.731 537.725 819.868 538.078C819.985 538.38 820.055 538.577 820.127 538.765C820.209 538.982 820.309 539.128 820.416 539.283C820.515 539.427 820.614 539.564 820.72 539.772C820.807 539.961 820.868 540.077 820.908 540.159C820.929 540.203 820.949 540.251 821 540.358" stroke="#FFCBAE" stroke-width="2" stroke-linecap="round"/>
<path d="M782 493.543C782.031 493.614 782.136 493.776 782.246 493.938C782.348 494.089 782.429 494.232 782.482 494.394C782.542 494.581 782.618 494.749 782.696 494.916C782.79 495.117 782.859 495.317 782.948 495.489C783.058 495.703 783.225 495.935 783.325 496.103C783.441 496.297 783.54 496.463 783.613 496.62C783.708 496.822 783.822 497.02 783.891 497.193C783.972 497.398 784.147 497.628 784.273 497.836C784.47 498.162 784.545 498.338 784.645 498.506C784.761 498.7 784.86 498.906 785.027 499.154C785.385 499.684 785.468 499.859 785.583 500.021C785.71 500.2 785.865 500.396 785.976 500.599C786.099 500.827 786.346 501.065 786.536 501.299C786.705 501.508 786.882 501.623 786.992 501.76C787.114 501.913 787.238 502.09 787.369 502.272C787.497 502.449 787.594 502.667 787.757 502.86C787.943 503.082 788.149 503.326 788.369 503.514C788.517 503.64 788.704 503.803 788.904 503.971C789.043 504.087 789.218 504.178 789.386 504.28C789.584 504.4 789.867 504.503 790.077 504.584C790.284 504.664 790.496 504.696 790.701 504.736C790.883 504.773 791.093 504.787 791.303 504.823C791.511 504.858 791.888 504.889 792.558 504.964C793.508 505.072 793.681 504.909 793.891 504.828C794.149 504.728 794.341 504.656 794.624 504.585C794.891 504.518 795.137 504.423 795.405 504.296C795.685 504.163 796.153 503.937 796.452 503.789C796.721 503.657 796.949 503.42 797.144 503.302C797.302 503.207 797.432 503.044 797.563 502.882C797.703 502.709 797.82 502.558 797.93 502.395C798.032 502.244 798.114 502.081 798.218 501.873C798.343 501.624 798.449 501.402 798.527 501.214C798.601 501.039 798.679 500.834 798.81 500.313C798.974 499.66 798.931 499.243 798.947 498.863C798.953 498.715 798.973 498.392 798.978 497.972C798.981 497.762 799.004 497.138 798.999 496.241C798.996 495.723 798.942 495.441 798.884 495.167C798.841 494.962 798.795 494.781 798.748 494.598C798.691 494.379 798.607 494.223 798.538 494.056C798.464 493.874 798.418 493.706 798.298 493.443C798.198 493.224 798.083 492.956 797.978 492.784C797.889 492.637 797.842 492.479 797.753 492.262C797.587 491.859 797.454 491.628 797.349 491.395C797.256 491.186 797.119 490.898 796.967 490.559C796.845 490.286 796.731 490.026 796.611 489.803C796.471 489.543 796.354 489.326 796.265 489.134C796.164 488.915 795.988 488.668 795.851 488.429C795.711 488.184 795.558 488.018 795.422 487.851C795.282 487.679 795.202 487.501 795.029 487.339C794.868 487.188 794.762 486.974 794.61 486.782C794.353 486.538 794.186 486.356 794.039 486.133C794.007 486.082 793.976 486.041 793.944 486" stroke="#FFCBAE" stroke-width="2" stroke-linecap="round"/>
<path d="M793 484C793.036 484.093 793.158 484.306 793.299 484.519C793.453 484.753 793.622 484.919 793.763 485.119C793.896 485.307 793.977 485.453 793.996 485.513C794.044 485.668 793.673 485.374 793.544 485.207C793.51 485.163 793.477 485.121 793.465 485.133C793.513 485.359 793.635 485.626 793.702 485.839C793.721 485.893 793.745 485.946 793.806 486" stroke="#FFCBAE" stroke-width="2" stroke-linecap="round"/>
<path d="M801 500C801 500.159 800.958 500.648 800.93 501.326C800.918 501.643 800.882 501.877 800.845 502.063C800.795 502.311 800.775 502.527 800.695 502.788C800.612 503.062 800.594 503.327 800.577 503.519C800.563 503.694 800.497 503.903 800.444 504.154C800.381 504.448 800.187 504.788 800.08 505.05C799.983 505.286 799.781 505.567 799.54 505.861C799.261 506.2 798.296 506.622 797.86 506.842C797.224 507.163 796.86 507.242 796.431 507.402C796.107 507.523 795.63 507.669 795.27 507.797C794.946 507.913 794.528 507.904 793.699 507.984C793.03 508.048 792.729 507.905 792.476 507.809C792.215 507.709 792 507.606 791.78 507.537C791.423 507.424 791.1 507.254 791.031 507.217C790.997 507.199 790.993 507.148 791.009 507.115C791.096 506.935 791.484 506.976 791.715 506.939C791.912 506.907 792.094 506.848 792.612 506.769C792.896 506.725 793.26 506.688 793.566 506.609C793.828 506.54 794.404 506.327 794.823 506.161C795.167 506.025 795.626 505.857 795.83 505.814C796.017 505.774 796.193 505.643 796.45 505.558C796.833 505.431 797.189 505.281 797.392 505.153C797.672 504.977 797.885 504.865 798.157 504.647C798.949 504.013 799.009 503.809 799.132 503.559C799.202 503.318 799.223 503.148 799.261 502.913C799.287 502.807 799.34 502.638 799.395 502.464" stroke="#FFCBAE" stroke-width="2" stroke-linecap="round"/>
</g>
<defs>
<clipPath id="clip0_0_1">
<rect width="1060" height="1024" fill="white"/>
</clipPath>
</defs>
</svg>
