<svg width="1440" height="1024" viewBox="0 0 1440 1024" fill="none" xmlns="http://www.w3.org/2000/svg">
<rect width="1440" height="1024" fill="#1E1E1E"/>
<rect width="1440" height="1024" fill="#FFE8D6"/>
<circle cx="720" cy="512" r="445" fill="#FFB082" stroke="#492110" stroke-width="10"/>
<circle cx="720" cy="512" r="345" fill="#FFCBAE" stroke="#492110" stroke-width="10"/>
<path d="M775 211C915 231 987.333 358 1006 419" stroke="#492110" stroke-width="10"/>
<path d="M1001.04 420.947C1001.04 420.939 1001.04 420.901 1001.03 420.845C1001.02 420.772 1000.93 420.747 1000.87 420.699C1000.82 420.649 1000.76 420.597 1000.71 420.545C1000.66 420.486 1000.62 420.414 1000.58 420.347C1000.53 420.278 1000.48 420.214 1000.43 420.147C1000.37 420.082 1000.34 420.01 1000.3 419.947C1000.26 419.88 1000.22 419.806 1000.16 419.697C1000.11 419.592 1000.08 419.514 1000.04 419.445C999.991 419.369 999.934 419.239 999.867 419.126C999.817 419.043 999.75 418.96 999.679 418.858C999.631 418.788 999.546 418.673 999.486 418.585C999.43 418.504 999.375 418.393 999.317 418.287C999.239 418.145 999.167 417.964 999.115 417.851C999.053 417.717 998.992 417.481 998.942 417.329C998.913 417.24 998.9 417.164 998.873 417.074C998.833 416.94 998.821 416.856 998.798 416.774C998.761 416.645 998.746 416.543 998.733 416.441C998.718 416.317 998.696 416.218 998.677 416.135C998.673 416.118 998.675 416.101 998.687 416.105C998.783 416.135 998.812 416.222 998.862 416.272C998.913 416.322 998.95 416.392 998.977 416.461C999.007 416.537 999.054 416.592 999.077 416.659C999.101 416.729 999.141 416.792 999.175 416.859C999.208 416.926 999.241 416.992 999.264 417.059C999.289 417.129 999.329 417.192 999.344 417.259C999.361 417.337 999.421 417.392 999.46 417.459C999.499 417.524 999.537 417.592 999.577 417.657C999.616 417.72 999.666 417.788 999.71 417.849C999.753 417.907 999.8 417.992 999.875 418.119C999.995 418.324 1000.02 418.401 1000.06 418.461C1000.11 418.524 1000.16 418.58 1000.2 418.649C1000.25 418.734 1000.32 418.805 1000.37 418.859C1000.42 418.911 1000.47 418.959 1000.53 419.009C1000.59 419.065 1000.66 419.146 1000.73 419.224C1000.8 419.301 1000.86 419.347 1000.91 419.399C1000.96 419.451 1001.01 419.517 1001.11 419.617C1001.19 419.703 1001.25 419.759 1001.31 419.809C1001.37 419.856 1001.43 419.897 1001.51 419.936C1001.57 419.97 1001.63 420.013 1001.7 420.047C1001.77 420.08 1001.83 420.113 1001.91 420.134C1001.98 420.153 1002.05 420.155 1002.13 420.18C1002.27 420.223 1002.35 420.205 1002.44 420.211C1002.52 420.217 1002.58 420.243 1002.69 420.249C1002.78 420.254 1002.88 420.272 1003.01 420.282C1003.28 420.303 1003.48 420.297 1003.71 420.307C1004.25 420.332 1004.32 420.289 1004.44 420.282C1004.53 420.277 1004.63 420.259 1004.72 420.239C1004.8 420.217 1004.9 420.222 1004.99 420.209C1005.07 420.198 1005.17 420.18 1005.24 420.161C1005.31 420.142 1005.38 420.134 1005.46 420.112C1005.54 420.089 1005.62 420.08 1005.7 420.068C1005.77 420.056 1005.86 420.018 1005.95 420.005C1006.04 419.993 1006.11 419.964 1006.17 419.947C1006.24 419.93 1006.32 419.914 1006.42 419.884C1006.5 419.861 1006.58 419.83 1006.65 419.809C1006.72 419.788 1006.8 419.743 1006.89 419.716C1007.03 419.659 1007.12 419.626 1007.19 419.607C1007.2 419.601 1007.22 419.593 1007.24 419.584" stroke="#FFCBAE" stroke-width="2" stroke-linecap="round"/>
<path d="M1010.19 418.784C1010.19 418.751 1010.21 418.643 1010.25 418.481C1010.28 418.346 1010.34 418.214 1010.38 418.112C1010.43 417.972 1010.46 417.889 1010.47 417.82C1010.49 417.74 1010.5 417.449 1010.51 417.268C1010.52 417.167 1010.53 417.068 1010.55 416.983C1010.57 416.845 1010.56 416.479 1010.55 416.26C1010.55 416.193 1010.54 416.06 1010.53 415.943C1010.52 415.843 1010.51 415.694 1010.5 415.58C1010.49 415.489 1010.49 415.257 1010.48 415.108C1010.47 415.001 1010.45 414.86 1010.45 414.668C1010.44 414.567 1010.43 414.411 1010.41 414.285C1010.4 414.204 1010.39 414.073 1010.38 413.931C1010.37 413.818 1010.35 413.66 1010.35 413.585C1010.34 413.508 1010.32 413.418 1010.3 413.31C1010.29 413.206 1010.27 413.114 1010.26 412.991C1010.25 412.899 1010.21 412.802 1010.2 412.697C1010.18 412.6 1010.16 412.518 1010.14 412.437C1010.12 412.368 1010.1 412.301 1010.09 412.235C1010.07 412.163 1010.05 412.081 1010.02 411.976C1009.99 411.894 1009.98 411.81 1009.95 411.724C1009.93 411.656 1009.93 411.589 1009.9 411.51C1009.89 411.414 1009.86 411.297 1009.84 411.201C1009.84 411.172 1009.84 411.135 1009.83 411.072" stroke="#FFCBAE" stroke-width="2" stroke-linecap="round"/>
<path d="M1007.4 419.672C1007.42 419.689 1007.48 419.705 1007.55 419.712C1007.63 419.719 1007.65 419.585 1007.69 419.524C1007.74 419.46 1007.8 419.422 1007.84 419.364C1007.89 419.297 1008 419.314 1008.06 419.285C1008.13 419.255 1008.2 419.23 1008.26 419.207C1008.33 419.183 1008.4 419.143 1008.47 419.118C1008.54 419.094 1008.61 419.055 1008.68 419.022C1008.75 418.986 1008.85 418.951 1008.94 418.912C1009 418.88 1009.08 418.847 1009.15 418.81C1009.21 418.774 1009.27 418.722 1009.33 418.672C1009.39 418.616 1009.46 418.551 1009.52 418.474C1009.58 418.405 1009.62 418.326 1009.66 418.26C1009.71 418.191 1009.74 418.126 1009.81 418.049C1009.86 417.985 1009.9 417.914 1009.95 417.847C1010 417.782 1010.05 417.714 1010.09 417.645C1010.15 417.562 1010.2 417.497 1010.24 417.424C1010.28 417.348 1010.34 417.26 1010.39 417.151C1010.43 417.067 1010.45 417.001 1010.49 416.935C1010.52 416.867 1010.53 416.781 1010.55 416.687C1010.57 416.596 1010.59 416.489 1010.58 416.402C1010.57 416.37 1010.55 416.372 1010.54 416.395C1010.48 416.514 1010.5 416.592 1010.5 416.68C1010.49 416.752 1010.46 416.817 1010.44 416.884C1010.43 416.901 1010.42 416.917 1010.42 416.934C1010.41 416.951 1010.41 416.967 1010.41 416.984" stroke="#FFCBAE" stroke-width="2" stroke-linecap="round"/>
<path d="M774.569 208.694C774.569 208.52 774.585 208.152 774.608 208.05C774.626 207.973 774.664 207.911 774.696 207.832C774.729 207.747 774.781 207.677 774.829 207.584C774.869 207.505 774.898 207.436 774.937 207.367C774.989 207.277 775.056 207.231 775.106 207.169C775.158 207.105 775.231 207.069 775.293 207.019C775.357 206.968 775.427 206.94 775.491 206.894C775.549 206.853 775.606 206.819 775.668 206.771C775.728 206.725 775.81 206.686 775.935 206.615C776.023 206.565 776.164 206.531 776.256 206.506C776.322 206.488 776.397 206.473 776.491 206.456C776.619 206.434 776.793 206.398 776.887 206.383C777.03 206.361 777.172 206.344 777.285 206.323C777.38 206.305 777.489 206.294 777.568 206.281C777.652 206.268 777.751 206.256 777.858 206.242C778.01 206.221 778.177 206.21 778.336 206.196C778.833 206.15 778.943 206.181 779.047 206.171C779.16 206.16 779.301 206.156 779.435 206.146C779.552 206.137 779.915 206.131 780.152 206.142C780.277 206.147 780.36 206.164 780.483 206.171C780.589 206.176 780.714 206.189 780.825 206.196C780.96 206.204 781.135 206.214 781.328 206.221C781.461 206.225 781.659 206.244 781.81 206.254C781.918 206.262 782.026 206.277 782.179 206.283C782.261 206.287 782.343 206.302 782.421 206.308C782.499 206.315 782.638 206.331 782.756 206.346C782.882 206.361 783.039 206.377 783.135 206.392C783.308 206.418 783.418 206.419 783.533 206.429C783.647 206.439 783.747 206.444 783.932 206.454C784.364 206.478 784.447 206.477 784.549 206.492C784.721 206.516 784.797 206.514 784.893 206.521C784.986 206.527 785.052 206.552 785.172 206.558C785.265 206.563 785.356 206.581 785.441 206.592C785.535 206.603 785.639 206.619 785.666 206.61C785.755 206.584 785.478 206.423 785.388 206.369C785.275 206.301 785.103 206.236 784.75 206.074C784.536 205.976 784.151 205.814 783.937 205.725C783.633 205.598 783.54 205.56 783.417 205.511C783.365 205.49 783.287 205.461 783.131 205.417C782.975 205.373 782.744 205.316 782.332 205.245C781.92 205.174 781.335 205.091 780.946 205.045C780.558 204.998 780.385 204.99 780.283 204.983C780.181 204.977 780.157 204.973 779.948 204.967C779.739 204.96 779.347 204.952 779.158 204.958C778.968 204.964 778.993 204.985 779.02 205.002C779.168 205.093 779.385 205.123 779.61 205.16C779.782 205.193 780.071 205.255 780.232 205.291C780.393 205.327 780.418 205.335 780.444 205.344" stroke="#FFCBAE" stroke-width="2" stroke-linecap="round"/>
<path d="M774.469 210.706C774.527 210.529 774.619 210.161 774.642 210.073C774.661 209.997 774.689 209.923 774.704 209.857C774.718 209.791 774.719 209.699 774.731 209.617C774.744 209.536 774.752 209.461 774.777 209.388C774.809 209.294 774.814 209.215 774.833 209.138C774.857 209.039 774.894 208.957 774.931 208.877C774.976 208.782 775.006 208.661 775.058 208.569C775.106 208.484 775.156 208.415 775.214 208.313C775.259 208.235 775.319 208.153 775.367 208.082C775.41 208.017 775.489 207.899 775.566 207.807C775.621 207.742 775.706 207.669 775.798 207.577C775.91 207.465 776.093 207.349 776.252 207.228C776.407 207.109 776.498 207.069 776.635 207.004C776.87 206.894 777.172 206.852 777.268 206.838C777.4 206.817 777.473 206.798 777.556 206.773C777.636 206.749 777.747 206.74 777.866 206.708C777.984 206.677 778.102 206.656 778.21 206.623C778.297 206.596 778.389 206.581 778.481 206.55C778.569 206.52 778.639 206.511 778.716 206.502C778.788 206.494 778.852 206.465 778.921 206.446C779.019 206.419 779.147 206.419 779.333 206.388C779.475 206.364 779.585 206.369 780.05 206.358C780.416 206.35 781.113 206.356 781.48 206.358C781.939 206.361 782.114 206.377 782.256 206.383C782.331 206.387 782.455 206.394 782.634 206.4C782.97 206.412 783.159 206.448 783.293 206.458C783.472 206.472 783.689 206.477 784.053 206.479C784.231 206.48 784.554 206.436 784.756 206.417C784.781 206.415 784.806 206.411 784.866 206.408C784.926 206.406 785.021 206.406 785.119 206.406" stroke="#FFCBAE" stroke-width="2" stroke-linecap="round"/>
<path d="M774.572 210.113C774.56 210.158 774.518 210.233 774.499 210.3C774.48 210.369 774.472 210.47 774.459 210.55C774.446 210.633 774.439 210.733 774.432 210.999C774.429 211.121 774.409 211.196 774.389 211.275C774.368 211.352 774.364 211.421 774.357 211.57C774.356 211.604 774.351 211.621 774.349 211.771C774.343 212.207 774.351 212.517 774.359 212.552C774.378 212.632 774.397 212.741 774.411 212.825C774.425 212.899 774.43 212.991 774.445 213.075C774.459 213.157 774.459 213.266 774.472 213.352C774.485 213.445 774.493 213.546 774.495 213.695C774.496 213.788 774.476 213.879 774.47 214.064C774.465 214.216 774.476 214.408 774.486 214.491C774.5 214.595 774.513 214.687 774.526 214.793C774.535 214.87 774.576 214.933 774.597 215C774.618 215.066 774.643 215.133 774.678 215.191C774.716 215.254 774.738 215.321 774.782 215.377C774.829 215.437 774.872 215.525 774.926 215.614C774.988 215.718 775.047 215.804 775.105 215.931C775.183 216.045 775.263 216.166 775.317 216.258C775.343 216.296 775.363 216.316 775.384 216.338" stroke="#FFCBAE" stroke-width="2" stroke-linecap="round"/>
<path d="M773.734 212.175C773.734 212.262 773.726 212.454 773.711 212.562C773.677 212.814 773.738 212.891 773.763 212.962C773.788 213.033 773.813 213.096 773.859 213.16C773.901 213.219 773.947 213.275 773.993 213.329C774.043 213.389 774.068 213.458 774.128 213.537C774.181 213.606 774.213 213.671 774.236 213.75C774.264 213.844 774.276 213.946 774.32 214.029C774.369 214.123 774.388 214.196 774.432 214.254C774.485 214.325 774.555 214.396 774.624 214.454C774.701 214.52 774.759 214.562 774.809 214.625C774.863 214.692 774.926 214.779 774.974 214.868C775.009 214.934 775.072 214.991 775.122 215.06C775.168 215.124 775.213 215.204 775.259 215.275C775.304 215.345 775.351 215.408 775.397 215.473C775.437 215.53 775.472 215.587 775.528 215.639C775.578 215.686 775.609 215.758 775.649 215.825C775.69 215.895 775.759 215.946 775.811 216.002C775.869 216.065 775.93 216.104 775.988 216.154C776.067 216.221 776.13 216.267 776.197 216.31C776.265 216.355 776.342 216.392 776.422 216.425C776.503 216.459 776.58 216.479 776.663 216.514C776.762 216.557 776.838 216.579 776.911 216.608C776.984 216.637 777.055 216.646 777.138 216.677C777.248 216.718 777.33 216.746 777.397 216.767C777.47 216.789 777.563 216.846 777.657 216.881C777.801 216.936 777.917 216.979 778.034 217.014C778.16 217.053 778.242 217.079 778.411 217.135C778.54 217.178 778.696 217.241 778.822 217.277C778.915 217.303 779.079 217.342 779.186 217.381C779.267 217.411 779.446 217.433 779.584 217.465C779.676 217.486 779.742 217.504 779.834 217.517C779.927 217.529 780.025 217.562 780.13 217.596C780.214 217.623 780.326 217.642 780.463 217.673C780.567 217.697 780.667 217.721 780.747 217.735C780.813 217.748 780.888 217.763 780.967 217.787C781.086 217.825 781.188 217.842 781.276 217.865C781.388 217.894 781.579 217.941 781.719 217.977C781.809 218 781.909 218.017 782.011 218.04C782.113 218.063 782.188 218.071 782.284 218.096C782.402 218.127 782.563 218.154 782.647 218.167C782.717 218.177 782.78 218.2 782.851 218.221C782.956 218.252 783.092 218.263 783.18 218.283C783.29 218.309 783.367 218.313 783.436 218.335C783.515 218.361 783.609 218.358 783.709 218.383C783.798 218.406 783.884 218.417 784.003 218.458C784.087 218.488 784.196 218.517 784.284 218.537C784.352 218.554 784.426 218.592 784.513 218.615C784.538 218.621 784.567 218.629 784.605 218.637C784.642 218.646 784.688 218.654 784.759 218.675" stroke="#FFCBAE" stroke-width="2" stroke-linecap="round"/>
<path d="M997.787 413.931C997.787 414.03 997.82 414.247 997.866 414.381C997.914 414.52 998.012 414.647 998.108 414.781C998.195 414.901 998.27 415.022 998.358 415.135C998.447 415.249 998.537 415.356 998.633 415.46C998.725 415.56 998.804 415.647 998.879 415.781C998.949 415.905 998.962 416.047 999.025 416.222C999.077 416.368 999.129 416.522 999.183 416.656C999.234 416.782 999.32 416.914 999.408 417.039C999.509 417.184 999.603 417.347 999.708 417.46C999.811 417.571 999.87 417.739 999.958 417.86C1000.05 417.989 1000.1 418.164 1000.17 418.31C1000.23 418.471 1000.36 418.572 1000.45 418.706C1000.54 418.851 1000.65 418.964 1000.78 419.122C1000.91 419.268 1001.08 419.397 1001.19 419.502C1001.3 419.6 1001.43 419.648 1001.56 419.731C1001.69 419.813 1001.81 419.906 1001.93 419.985C1002.05 420.063 1002.18 420.156 1002.32 420.239C1002.54 420.363 1002.73 420.423 1002.94 420.473C1003.05 420.5 1003.18 420.506 1003.48 420.543C1004.12 420.622 1004.61 420.54 1004.78 420.515C1005.17 420.455 1005.46 420.423 1005.63 420.402C1005.87 420.373 1006 420.348 1006.19 420.31C1006.41 420.265 1006.64 420.265 1006.79 420.248C1006.95 420.23 1007.09 420.165 1007.25 420.127C1007.46 420.074 1007.69 419.957 1007.86 419.877C1008 419.811 1008.13 419.748 1008.24 419.636C1008.35 419.519 1008.48 419.349 1008.69 419.136C1008.91 418.919 1009.19 418.699 1009.39 418.544C1009.54 418.425 1009.78 418.307 1009.99 418.186C1010.28 418.022 1010.66 417.857 1010.85 417.686C1010.98 417.574 1011.09 417.391 1011.2 417.174C1011.28 417 1011.31 416.716 1011.35 416.297C1011.37 416.044 1011.36 415.705 1011.33 415.275C1011.29 414.845 1011.21 414.333 1011.14 413.946C1011.03 413.307 1010.93 412.99 1010.88 412.766C1010.72 412.042 1010.6 411.874 1010.53 411.719C1010.45 411.52 1010.36 411.39 1010.27 411.257C1010.17 411.123 1010.02 410.974 1009.91 410.811C1009.82 410.675 1009.71 410.565 1009.61 410.465C1009.58 410.441 1009.55 410.44 1009.52 410.448C1009.49 410.456 1009.46 410.481 1009.45 410.526C1009.39 410.731 1009.49 410.872 1009.52 411.006C1009.55 411.147 1009.62 411.289 1009.66 411.435C1009.71 411.591 1009.78 411.722 1009.82 411.86C1009.87 412.038 1009.95 412.197 1010.01 412.331C1010.06 412.459 1010.1 412.597 1010.12 412.735C1010.15 412.902 1010.2 413.047 1010.22 413.201C1010.22 413.273 1010.24 413.529 1010.24 413.891C1010.24 414.081 1010.26 414.593 1010.26 415.314C1010.26 415.698 1010.22 415.864 1010.21 416.109C1010.2 416.268 1010.12 416.414 1010.08 416.556C1010.04 416.702 1009.98 416.864 1009.92 417.006C1009.86 417.133 1009.85 417.272 1009.79 417.431C1009.74 417.594 1009.68 417.764 1009.61 417.906C1009.54 418.049 1009.44 418.156 1009.29 418.306C1009.11 418.481 1008.95 418.631 1008.82 418.731C1008.7 418.821 1008.55 418.897 1008.41 418.96C1008.26 419.03 1008.14 419.122 1008.02 419.231C1007.91 419.325 1007.77 419.381 1007.62 419.468C1007.49 419.538 1007.35 419.548 1007.21 419.585C1007.04 419.656 1006.85 419.714 1006.79 419.735C1006.75 419.748 1006.72 419.764 1006.69 419.781" stroke="#FFCBAE" stroke-width="2" stroke-linecap="round"/>
<path d="M1009.01 409.606C1009.05 409.639 1009.1 409.772 1009.16 409.906C1009.21 410.034 1009.21 410.189 1009.26 410.331C1009.3 410.461 1009.32 410.614 1009.38 410.777C1009.44 410.912 1009.48 411.047 1009.54 411.181C1009.6 411.314 1009.65 411.447 1009.69 411.585C1009.73 411.74 1009.8 411.872 1009.83 412.006C1009.86 412.138 1009.9 412.272 1009.92 412.406C1009.93 412.542 1009.96 412.837 1009.99 413.056C1010 413.2 1010.05 413.347 1010.08 413.501C1010.1 413.739 1010.12 413.839 1010.13 414.034C1010.14 414.195 1010.14 414.484 1010.14 414.781" stroke="#FFCBAE" stroke-width="2" stroke-linecap="round"/>
<path d="M990 401.837C990.016 401.721 990.05 401.29 990.15 400.938C990.229 400.658 990.366 400.405 990.458 400.138C990.559 399.846 990.683 399.555 990.75 399.288C990.816 399.025 990.866 398.755 990.942 398.48C991.023 398.182 991 397.806 991.05 397.488C991.092 397.217 991.183 396.955 991.217 396.688C991.259 396.348 991.366 395.955 991.408 395.439C991.442 395.022 991.516 394.555 991.608 394.288C991.704 394.01 991.866 393.755 992.024 393.522C992.189 393.279 992.299 393.038 992.458 392.78C992.641 392.482 992.849 392.288 993.041 392.08C993.226 391.879 993.449 391.738 993.658 391.546C993.881 391.341 994.182 391.254 994.449 391.138C994.756 391.004 995.082 390.854 995.391 390.779C995.699 390.704 995.982 390.554 996.249 390.446C996.378 390.394 996.632 390.387 996.94 390.379C997.134 390.374 998.075 390.337 999.424 390.362C1000.08 390.374 1000.33 390.603 1000.6 390.745C1000.88 390.893 1001.08 391.103 1001.31 391.303C1001.49 391.467 1001.7 391.636 1001.9 391.845C1002.12 392.072 1002.27 392.319 1002.48 392.586C1002.67 392.82 1002.85 393.036 1003.04 393.295C1003.25 393.573 1003.37 393.869 1003.51 394.145C1003.55 394.22 1003.6 394.302 1003.65 394.37C1003.7 394.437 1003.75 394.486 1003.75 394.487" stroke="#FFCBAE" stroke-width="2" stroke-linecap="round"/>
<path d="M996.763 379.612C996.746 379.62 996.729 379.753 996.75 379.883C996.771 380.014 996.871 380.128 996.917 380.262C996.963 380.398 996.988 380.545 997.054 380.687C997.113 380.814 997.129 380.953 997.187 381.091C997.253 381.246 997.321 381.378 997.408 381.537C997.496 381.696 997.513 381.87 997.542 382.02C997.578 382.208 997.646 382.353 997.671 382.487C997.697 382.627 997.771 382.77 997.829 382.912C997.884 383.045 997.904 383.22 997.937 383.366C997.976 383.534 997.979 383.72 998.008 383.907C998.049 384.168 998.038 384.386 998.058 384.562C998.075 384.703 998.088 385.018 998.108 385.262C998.13 385.52 998.138 385.802 998.162 386.016C998.195 386.294 998.204 386.678 998.208 387.123C998.21 387.323 998.163 387.453 998.138 387.587C998.112 387.724 998.063 387.919 998.017 388.087C997.974 388.246 997.888 388.412 997.838 388.537C997.785 388.667 997.713 388.787 997.613 388.953C997.513 389.087 997.43 389.203 997.334 389.308C997.305 389.329 997.272 389.345 997.213 389.437" stroke="#FFCBAE" stroke-width="2" stroke-linecap="round"/>
<path d="M984.987 383.087C985.021 383.12 985.087 383.253 985.187 383.362C985.283 383.467 985.412 383.553 985.512 383.662C985.605 383.763 985.645 383.903 985.712 384.037C985.777 384.167 985.82 384.303 985.883 384.458C985.938 384.592 985.962 384.728 986.012 384.862C986.064 385.002 986.112 385.128 986.171 385.25C986.213 385.338 986.063 385.021 986 384.888C985.926 384.73 985.804 384.605 985.779 384.293C985.77 384.178 985.729 384.104 985.733 384.059C985.735 384.041 985.778 384.054 985.808 384.071C985.924 384.136 985.945 384.32 986.016 384.479C986.074 384.608 986.129 384.728 986.187 384.883C986.243 385.029 986.362 385.137 986.4 385.258C986.441 385.389 986.611 385.536 986.716 385.687C986.81 385.822 986.895 385.953 986.962 386.091C987.042 386.256 987.129 386.403 987.191 386.537C987.259 386.682 987.362 386.803 987.421 386.937C987.484 387.081 987.554 387.22 987.616 387.358C987.675 387.488 987.787 387.587 987.891 387.758C987.994 387.925 988.095 388.028 988.191 388.141C988.302 388.272 988.395 388.378 988.512 388.47C988.651 388.58 988.77 388.728 988.887 388.862C988.996 388.986 989.095 389.103 989.191 389.233C989.29 389.366 989.428 389.429 989.52 389.529C989.618 389.634 989.753 389.695 989.887 389.783C990.017 389.868 990.17 389.962 990.295 390.062C990.436 390.175 990.578 390.245 990.712 390.333C990.835 390.414 990.978 390.445 991.12 390.516C991.292 390.602 991.428 390.629 991.562 390.683C991.704 390.741 991.878 390.745 992.012 390.812C992.142 390.877 992.278 390.887 992.412 390.933C992.727 391.041 993.278 390.929 993.702 390.908C994.044 390.891 994.478 390.871 994.736 390.854C994.903 390.843 995.028 390.754 995.191 390.725C995.378 390.691 995.503 390.629 995.641 390.542C995.8 390.441 995.978 390.396 996.095 390.317C996.233 390.224 996.362 390.146 996.512 390.059C996.67 389.966 996.762 389.838 996.887 389.696C997.004 389.564 997.178 389.372 997.275 389.217C997.328 389.163 997.445 389.08 997.694 388.934C997.86 388.847 998.107 388.731 998.362 388.612" stroke="#FFCBAE" stroke-width="2" stroke-linecap="round"/>
<path d="M1001.44 385.663C1001.38 385.638 1001.23 385.704 1001.06 385.804C1000.85 385.935 1000.75 386.162 1000.62 386.287C1000.49 386.406 1000.44 386.562 1000.36 386.691C1000.26 386.852 1000.1 387.07 999.917 387.308C999.777 387.493 999.663 387.645 999.55 387.795C999.407 387.987 999.329 388.129 999.321 388.494C999.316 388.679 999.395 388.829 999.458 388.941C999.533 389.075 999.72 389.079 999.945 389.096C999.995 389.104 1000.03 389.121 1000.06 389.133C1000.1 389.146 1000.13 389.154 1000.16 389.163" stroke="#FFCBAE" stroke-width="2" stroke-linecap="round"/>
<path d="M990.087 392.262C990.029 392.254 989.88 392.188 989.668 392.088C989.35 391.939 989.271 391.796 989.217 391.717C989.177 391.659 989.386 391.53 989.541 391.413C989.668 391.317 989.836 391.254 990.008 391.192C990.139 391.144 990.295 391.187 990.433 391.266C990.639 391.384 990.753 391.47 990.883 391.583C990.996 391.681 991.07 391.969 991.104 392.299C991.128 392.525 991.021 392.653 990.967 392.787C990.954 392.82 990.946 392.853 990.933 392.887C990.921 392.92 990.904 392.953 990.812 392.987" stroke="#FFCBAE" stroke-width="2" stroke-linecap="round"/>
<path d="M984.563 382.825C984.563 382.692 984.497 382.393 984.413 382.126C984.322 381.836 984.33 381.493 984.23 381.226C984.129 380.959 984.13 380.643 984.096 380.21C984.033 379.396 984.046 378.093 984.104 377.818C984.172 377.499 984.163 377.193 984.221 376.926C984.282 376.644 984.396 376.36 984.471 376.076C984.55 375.776 984.729 375.46 984.87 375.134C985.001 374.835 985.245 374.626 985.47 374.392C985.672 374.183 985.928 373.976 986.212 373.742C986.444 373.551 986.695 373.409 986.995 373.292C987.417 373.127 987.778 373.175 988.07 373.125C988.397 373.07 989.025 373.025 989.503 372.983C989.977 372.942 990.245 373.091 990.512 373.141C990.802 373.196 991.062 373.324 991.312 373.425C991.564 373.526 991.812 373.574 992.062 373.708C992.299 373.835 992.595 373.841 992.862 374.032C993.201 374.276 993.462 374.657 993.703 374.882C993.945 375.108 994.129 375.357 994.378 375.665C994.562 375.892 994.679 376.157 994.862 376.424C995.043 376.688 995.262 376.874 995.454 377.082C995.629 377.291 995.796 377.391 995.87 377.524C995.912 377.591 995.962 377.657 996.013 377.775" stroke="#FFCBAE" stroke-width="2" stroke-linecap="round"/>
<path d="M984.263 381.875C984.296 381.908 984.329 381.991 984.387 382.108C984.416 382.166 984.495 382.191 984.529 382.175C984.725 382.083 984.513 381.693 984.421 381.426C984.33 381.159 984.263 380.497 984.213 380.018C984.163 379.676 984.064 379.112 984.004 378.618C983.996 378.51 983.98 378.394 983.963 378.225" stroke="#FFCBAE" stroke-width="2" stroke-linecap="round"/>
<path d="M986.169 359.481C986.21 359.514 986.277 359.647 986.364 359.785C986.454 359.926 986.477 360.072 986.544 360.231C986.609 360.386 986.652 360.522 986.681 360.656C986.714 360.803 986.802 360.939 986.869 361.106C986.932 361.265 987.018 361.414 987.098 361.556C987.179 361.701 987.268 361.864 987.348 362.039C987.437 362.235 987.46 362.372 987.514 362.506C987.57 362.644 987.627 362.797 987.673 362.931C987.72 363.067 987.76 363.197 987.835 363.352C987.914 363.514 987.96 363.722 988.039 363.856C988.121 363.993 988.143 364.189 988.214 364.331C988.278 364.457 988.327 364.614 988.385 364.756C988.437 364.881 988.477 365.022 988.523 365.16C988.576 365.318 988.635 365.464 988.673 365.631C988.71 365.794 988.744 365.922 988.765 366.081C988.786 366.247 988.835 366.397 988.848 366.614C988.857 366.767 988.91 366.897 988.94 367.051C988.985 367.294 988.969 367.497 988.99 367.656C989.008 367.797 989.019 368.063 989.044 368.277C989.063 368.44 989.085 368.622 989.098 369.196C989.108 369.638 989.102 370.189 989.069 370.339C989.028 370.523 988.977 370.689 988.919 370.831C988.864 370.966 988.811 371.097 988.682 371.252C988.581 371.372 988.511 371.497 988.403 371.589C988.284 371.69 988.178 371.814 988.065 371.902C987.951 371.99 987.828 372.081 987.694 372.198C987.564 372.312 987.37 372.431 987.219 372.531C987.08 372.623 986.953 372.731 986.819 372.81C986.68 372.893 986.528 372.972 986.394 373.031C986.271 373.086 986.136 373.164 985.969 373.21C985.808 373.255 985.678 373.298 985.515 373.327C985.24 373.377 985.103 373.373 984.446 373.385C984.177 373.391 984.011 373.423 983.766 373.435C983.585 373.445 983.403 373.473 982.937 373.477C982.726 373.479 982.578 373.423 982.39 373.377C982.187 373.327 982.053 373.298 981.919 373.256C981.788 373.215 981.653 373.173 981.519 373.107C981.386 373.04 981.253 372.973 981.115 372.898C980.945 372.806 980.844 372.682 980.715 372.602C980.566 372.511 980.453 372.423 980.344 372.332C980.236 372.24 980.119 372.157 980.003 372.019C979.833 371.819 979.736 371.715 979.623 371.582C979.517 371.456 979.428 371.315 979.34 371.186C979.26 371.068 979.169 370.957 979.09 370.832C979.002 370.693 978.911 370.565 978.815 370.432C978.703 370.275 978.594 370.115 978.494 370.007C978.398 369.902 978.336 369.765 978.244 369.632C978.152 369.498 978.069 369.365 977.998 369.211C977.934 369.072 977.886 368.899 977.798 368.757C977.717 368.625 977.686 368.449 977.607 368.253C977.477 367.932 977.394 367.765 977.315 367.628C977.223 367.468 977.144 367.332 977.061 367.207C976.946 367.035 976.794 366.882 976.698 366.757C976.605 366.636 976.494 366.515 976.373 366.282C976.284 366.109 976.144 365.94 976.077 365.803C975.99 365.623 975.894 365.49 975.836 365.361C975.752 365.248 975.719 365.14 975.702 365.049C975.686 364.999 975.653 364.941 975.619 364.881" stroke="#FFCBAE" stroke-width="2" stroke-linecap="round"/>
<path d="M979.844 372.506C979.893 372.556 979.993 372.672 980.143 372.93C980.41 373.388 980.56 373.872 980.648 374.072C980.715 374.225 980.835 374.38 980.943 374.527C981.033 374.648 981.16 374.756 981.318 374.893C981.458 375.014 981.618 375.056 981.797 375.21C982.167 375.528 982.193 375.747 982.273 375.902C982.351 376.053 982.476 376.313 982.556 376.555C982.608 376.713 982.652 376.848 982.669 376.894C982.738 377.085 982.71 376.307 982.727 376.115C982.753 375.822 982.802 375.541 982.827 375.382C982.852 375.227 982.993 375.107 983.056 374.986C983.132 374.839 983.326 374.757 983.514 374.657C983.705 374.555 983.885 374.432 984.163 374.265C984.42 374.112 984.585 374.073 984.739 373.986C984.868 373.913 985.01 373.898 985.185 373.815C985.335 373.743 985.625 373.665 985.827 373.586C986.004 373.515 986.193 373.448 986.327 373.361C986.472 373.266 986.701 373.207 986.856 373.107C987.032 372.993 987.185 372.915 987.347 372.844C987.641 372.717 987.81 372.673 988.055 372.598C988.37 372.502 988.551 372.432 988.735 372.381C988.88 372.342 989.026 372.265 989.231 372.19C989.376 372.137 989.543 372.057 989.751 371.957C989.908 371.882 990.043 371.74 990.16 371.595C990.372 371.329 990.393 371.165 990.427 371.011C990.488 370.733 990.519 370.251 990.54 369.936C990.563 369.574 990.519 369.424 990.481 369.232C990.399 368.808 990.286 368.615 990.227 368.502C990.203 368.455 990.351 368.961 990.563 369.519C990.695 369.866 990.934 370.08 991.101 370.285C991.31 370.54 991.657 371.06 991.922 371.426C992.069 371.628 992.276 371.971 992.414 372.168C992.469 372.246 992.494 372.339 992.51 372.389C992.55 372.507 992.055 372.241 991.711 372.094C991.511 372.023 991.361 371.94 991.294 371.911C991.261 371.898 991.228 371.89 991.194 371.881" stroke="#FFCBAE" stroke-width="2" stroke-linecap="round"/>
<path d="M869.6 242.3H869.2" stroke="#FFCBAE" stroke-width="2" stroke-linecap="round"/>
<path d="M873.05 253.488C873 253.463 872.884 253.38 872.751 253.313C872.62 253.247 872.509 253.171 872.376 253.134C872.237 253.095 872.118 252.98 871.976 252.913C871.837 252.848 871.693 252.705 871.571 252.588C871.444 252.465 871.259 252.372 871.13 252.284C871.012 252.203 870.901 252.113 870.763 251.996C870.563 251.826 870.443 251.68 870.325 251.542C870.232 251.432 870.126 251.322 870.021 251.209C869.865 251.04 869.676 250.83 869.555 250.73C869.434 250.629 869.351 250.48 869.271 250.338C869.193 250.199 869.101 250.088 869 249.942C868.903 249.8 868.826 249.647 868.775 249.513C868.726 249.382 868.684 249.247 868.634 249.113C868.583 248.978 868.559 248.805 868.525 248.663C868.491 248.519 868.45 248.339 868.425 248.159C868.4 247.978 868.375 247.731 868.35 247.492C868.323 247.231 868.309 246.88 868.296 246.585C868.287 246.379 868.259 246.23 868.246 245.806C868.241 245.647 868.217 245.555 868.204 245.319C868.151 244.323 868.225 244.155 868.254 244.013C868.282 243.875 868.333 243.73 868.379 243.563C868.423 243.404 868.458 243.272 868.504 243.113C868.554 242.942 868.633 242.78 868.696 242.613C868.75 242.455 868.825 242.355 868.871 242.288C868.892 242.255 868.908 242.222 869 242.163" stroke="#FFCBAE" stroke-width="2" stroke-linecap="round"/>
<path d="M868.2 246.287C868.225 246.13 868.258 245.78 868.279 245.534C868.293 245.379 868.317 245.23 868.329 244.59C868.334 244.345 868.367 244.196 868.379 244.021C868.391 243.862 868.45 243.713 868.487 243.588C868.531 243.443 868.625 243.305 868.704 243.146C868.769 243.017 868.9 242.938 869.02 242.838C869.168 242.716 869.341 242.538 869.553 242.334C869.7 242.188 869.825 242.063 869.879 242.017C869.908 241.996 869.941 241.979 870.025 241.887" stroke="#FFCBAE" stroke-width="2" stroke-linecap="round"/>
<path d="M881.95 245.012C881.892 244.979 881.742 244.913 881.58 244.838C881.441 244.774 881.276 244.688 881.101 244.609C880.919 244.526 880.759 244.429 880.625 244.346C880.502 244.269 880.359 244.221 880.225 244.163C880.092 244.104 879.959 244.054 879.825 243.988C879.688 243.919 879.534 243.879 879.4 243.813C879.26 243.743 879.092 243.679 878.905 243.592C878.744 243.517 878.576 243.438 878.43 243.359C878.3 243.288 878.184 243.179 878.071 243.092C877.951 242.999 877.809 242.929 877.696 242.842C877.58 242.752 877.417 242.688 877.275 242.596C877.149 242.514 876.951 242.463 876.8 242.408C876.665 242.36 876.542 242.254 876.313 242.167C876.113 242.09 875.917 241.996 875.796 241.925C875.68 241.857 875.534 241.821 875.376 241.783C875.205 241.743 875.042 241.696 874.88 241.683C874.737 241.672 874.394 241.612 873.976 241.571C873.794 241.553 873.667 241.554 873.427 241.542C872.842 241.511 872.417 241.546 872.309 241.558C871.969 241.598 871.603 241.587 871.33 241.612C871.189 241.625 871.059 241.695 870.905 241.758C870.77 241.813 870.634 241.87 870.5 241.937C870.36 242.007 870.192 242.087 869.963 242.204C869.79 242.292 869.659 242.395 869.521 242.508C869.368 242.633 869.225 242.737 869.1 242.816C868.963 242.904 868.875 243.037 868.796 243.158C868.714 243.283 868.625 243.412 868.529 243.537C868.44 243.654 868.4 243.803 868.346 243.937C868.3 244.07 868.267 244.203 868.229 244.337C868.225 244.37 868.225 244.403 868.225 244.437" stroke="#FFCBAE" stroke-width="2" stroke-linecap="round"/>
<path d="M876.7 239.088V239.062" stroke="#FFCBAE" stroke-width="2" stroke-linecap="round"/>
<path d="M867.8 244.613C867.841 244.58 867.941 244.48 868.05 244.388C868.158 244.297 868.233 244.155 868.325 244.038C868.416 243.922 868.524 243.813 868.629 243.717C868.735 243.619 868.816 243.522 868.912 243.401C869.062 243.211 869.199 243.097 869.3 242.988C869.4 242.879 869.541 242.788 869.658 242.68C869.805 242.543 869.916 242.422 870.049 242.292C870.164 242.181 870.299 242.138 870.424 242.104C870.565 242.066 870.691 241.996 870.858 241.959C871.076 241.909 871.241 241.871 871.379 241.809C871.554 241.729 871.716 241.655 871.849 241.609C871.883 241.597 871.916 241.58 871.921 241.559C871.925 241.538 871.9 241.513 871.867 241.496C871.708 241.416 871.476 241.446 871.18 241.442C871.005 241.439 870.842 241.562 870.655 241.666C870.472 241.768 870.334 241.887 870.2 241.983C870.074 242.074 869.934 242.146 869.842 242.258C869.739 242.384 869.584 242.479 869.471 242.591C869.354 242.709 869.3 242.854 869.225 242.987C869.152 243.117 869.075 243.237 869.042 243.383C869.008 243.528 868.9 243.637 868.821 243.758C868.74 243.882 868.658 244.004 868.563 244.241C868.502 244.393 868.425 244.512 868.358 244.658C868.3 244.785 868.283 244.945 868.229 245.108C868.184 245.243 868.142 245.379 868.096 245.524C868.05 245.721 868 245.92 867.971 246.112C867.967 246.154 867.958 246.195 867.95 246.288" stroke="#FFCBAE" stroke-width="2" stroke-linecap="round"/>
<path d="M859.537 231.3C859.612 231.35 859.778 231.516 859.904 231.65C860.022 231.776 860.12 231.941 860.208 232.054C860.301 232.174 860.403 232.3 860.504 232.425C860.593 232.535 860.67 232.666 860.762 232.775C860.861 232.892 861.003 233 861.091 233.12C861.171 233.231 861.312 233.291 861.437 233.425C861.562 233.558 861.662 233.675 861.783 233.754C861.901 233.832 861.987 233.95 862.145 234.079C862.357 234.251 862.57 234.35 862.733 234.487C862.852 234.588 862.978 234.658 863.116 234.77C863.257 234.885 863.403 234.966 863.574 235.079C863.718 235.173 863.837 235.275 863.979 235.337C864.122 235.401 864.212 235.525 864.333 235.604C864.448 235.68 864.578 235.733 864.753 235.887C864.886 236.003 865.028 236.058 865.137 236.15C865.246 236.241 865.378 236.325 865.491 236.425C865.613 236.533 865.737 236.625 865.883 236.716C866.003 236.792 866.128 236.858 866.266 236.979C866.422 237.115 866.536 237.299 866.637 237.45C866.718 237.571 866.795 237.708 866.887 237.85C866.975 237.986 867.045 238.116 867.133 238.25C867.214 238.373 867.279 238.491 867.312 238.625C867.346 238.76 867.404 238.891 867.437 239.025C867.472 239.164 867.479 239.316 867.512 239.45C867.548 239.591 867.562 239.873 867.583 240.075C867.597 240.208 867.612 240.655 867.592 241.003C867.568 241.407 867.546 241.558 867.508 241.733C867.465 241.934 867.429 242.083 867.367 242.245C867.315 242.381 867.254 242.516 867.171 242.678C867.026 242.961 866.971 243.091 866.892 243.225C866.802 243.377 866.713 243.566 866.613 243.716C866.53 243.84 866.438 243.95 866.359 244.075C866.273 244.209 866.155 244.358 866.042 244.483C865.933 244.604 865.846 244.708 865.734 244.796C865.603 244.897 865.421 244.958 865.267 244.983C865.117 245.008 864.971 245.042 864.838 245.075C864.704 245.108 864.522 245.158 864.363 245.221C864.234 245.271 864.096 245.292 863.959 245.346C863.811 245.404 863.671 245.417 863.538 245.433C863.279 245.466 862.896 245.459 862.701 245.429C862.358 245.378 862.139 245.4 861.893 245.379C861.406 245.338 861.271 245.334 861.134 245.296C860.976 245.253 860.846 245.225 860.543 245.117C860.362 245.053 860.246 245 860.113 244.946C859.914 244.866 859.696 244.734 859.563 244.696C859.421 244.656 859.296 244.584 859.134 244.538C858.842 244.455 858.68 244.376 858.534 244.317C858.357 244.246 858.147 244.151 857.988 244.084C857.863 244.031 857.672 243.976 857.513 243.9C857.381 243.838 857.23 243.792 857.088 243.729C856.959 243.672 856.821 243.601 856.688 243.529C856.563 243.463 856.421 243.417 856.271 243.363C856.028 243.275 855.871 243.167 855.734 243.096C855.57 243.012 855.421 242.926 855.267 242.875C855.128 242.83 854.996 242.759 854.867 242.717C854.742 242.677 854.621 242.617 854.488 242.571C854.342 242.521 854.196 242.459 853.976 242.375C853.801 242.309 853.671 242.251 853.538 242.217C853.397 242.181 853.271 242.092 853.096 242.05C852.953 242.016 852.821 241.942 852.646 241.879C852.506 241.829 852.355 241.751 852.171 241.679C852.032 241.625 851.847 241.551 851.667 241.459C851.53 241.388 851.371 241.342 851.238 241.3C851.087 241.253 850.905 241.167 850.763 241.146C850.613 241.1 850.413 241.017 850.263 240.954C850.229 240.942 850.196 240.934 850.162 240.925" stroke="#FFCBAE" stroke-width="2" stroke-linecap="round"/>
<path d="M867.812 250.075C867.779 250.009 867.671 249.9 867.341 249.673C867.05 249.473 866.515 249.091 866.218 248.875C865.875 248.625 865.821 248.534 865.788 248.455C865.725 248.305 865.754 248.134 865.8 247.926C865.879 247.567 865.995 247.359 866.041 247.221C866.093 247.066 866.145 246.934 866.208 246.78C866.285 246.59 866.37 246.334 866.499 246.076C866.545 245.984 866.571 245.917 866.604 245.875C866.62 245.855 866.67 245.883 866.704 245.904C866.877 246.012 866.929 246.332 867.004 246.516C867.077 246.696 867.054 246.99 867.067 247.158C867.082 247.358 867.104 247.557 867.117 247.72C867.122 247.792 867.137 247.891 867.121 247.991C867.115 248.028 867.071 248.025 867.038 248.017C866.9 247.983 866.738 247.9 866.347 247.78C866.195 247.732 866.08 247.692 865.567 247.547C865.111 247.418 864.263 247.147 863.805 247.007C863.23 246.831 863.096 246.8 862.93 246.779C862.88 246.773 862.822 246.775 862.829 246.771C862.901 246.731 863.02 246.75 863.099 246.746C863.204 246.74 863.733 246.725 864.47 246.721C864.88 246.719 865.045 246.642 865.204 246.501C865.359 246.362 865.462 246.184 865.624 246.017C865.813 245.823 865.895 245.584 865.987 245.471C866.087 245.348 866.162 245.209 866.262 245.096C866.378 244.966 866.636 244.776 866.812 244.559C866.931 244.412 867.161 244.226 867.752 243.544C867.977 243.285 868.07 243.084 868.187 242.884C868.319 242.659 868.487 242.276 868.616 241.993C868.844 241.492 869.095 240.919 869.2 240.659C869.347 240.293 869.37 240.018 869.416 239.558C869.449 239.232 869.421 238.71 869.408 238.41C869.388 237.913 869.271 237.734 869.184 237.609C869.058 237.428 868.671 237.583 868.442 237.625C868.239 237.662 868.379 238.082 868.474 238.382C868.534 238.568 868.802 238.906 869.127 239.322C869.397 239.669 869.595 239.708 869.766 239.758C870.049 239.841 870.22 239.858 870.445 239.916C870.592 239.955 870.745 239.966 870.97 239.983C871.136 239.996 871.295 240.066 871.458 240.104C871.595 240.158 871.704 240.183 871.799 240.212C871.853 240.233 871.919 240.266 872.062 240.35" stroke="#FFCBAE" stroke-width="2" stroke-linecap="round"/>
<path d="M845.006 224.825C845.097 224.858 845.297 224.974 845.435 225.054C845.59 225.144 845.697 225.258 845.852 225.387C845.972 225.487 846.097 225.558 846.231 225.645C846.364 225.733 846.497 225.833 846.627 225.925C846.783 226.035 846.956 226.199 847.081 226.279C847.216 226.364 847.364 226.482 847.502 226.558C847.635 226.631 847.772 226.749 847.906 226.829C848.041 226.909 848.147 227.024 848.302 227.12C848.44 227.207 848.572 227.324 848.702 227.425C848.825 227.52 848.947 227.649 849.056 227.754C849.178 227.871 849.314 228.032 849.485 228.191C849.695 228.386 849.806 228.541 849.914 228.658C850.055 228.809 850.189 228.941 850.306 229.079C850.444 229.241 850.556 229.424 850.668 229.574C850.855 229.822 851.005 230.098 851.135 230.316C851.262 230.529 851.356 230.765 851.448 230.991C851.506 231.135 851.523 231.307 851.577 231.512C851.634 231.727 851.639 232.065 851.652 232.868C851.657 233.175 851.582 233.424 851.548 233.62C851.518 233.794 851.473 233.974 851.415 234.187C851.375 234.33 851.34 234.482 851.282 234.624C851.226 234.759 851.19 234.891 851.132 235.045C851.079 235.185 851.007 235.316 850.923 235.466C850.796 235.695 850.657 235.874 850.54 236.024C850.441 236.152 850.233 236.373 850.036 236.529C849.879 236.653 849.74 236.783 849.628 236.912C849.528 237.026 849.398 237.091 849.278 237.175C849.115 237.287 848.915 237.341 848.778 237.396C848.628 237.455 848.49 237.475 848.357 237.496C848.224 237.516 847.991 237.525 847.794 237.546C847.598 237.566 847.35 237.6 847.095 237.625C846.833 237.65 846.465 237.666 845.834 237.679C845.458 237.687 844.991 237.683 844.496 237.671C844.263 237.665 844.082 237.625 843.919 237.604C843.724 237.579 843.557 237.542 843.407 237.492C843.095 237.388 842.682 237.025 842.47 236.867C842.158 236.635 842.007 236.625 841.824 236.546C841.592 236.446 841.407 236.367 841.253 236.296C841.091 236.222 840.94 236.192 840.799 236.163C840.601 236.122 840.44 236.067 840.261 236.025C839.92 235.945 839.374 235.725 839.02 235.571C838.828 235.488 838.574 235.384 838.345 235.234C838.19 235.133 838.082 235.075 838.061 235.046C837.996 234.956 838.297 235.133 838.431 235.2C838.561 235.265 838.697 235.308 838.893 235.395C839.055 235.468 839.272 235.549 839.452 235.625C839.634 235.701 839.897 235.824 840.205 235.916C840.396 235.973 840.547 236.016 840.706 236.029C840.878 236.043 841.039 236.158 841.305 236.254C841.568 236.348 841.747 236.424 841.931 236.5C842.102 236.57 842.272 236.608 842.572 236.737C842.742 236.81 842.872 236.866 843.047 236.95C843.2 237.022 843.322 237.124 843.485 237.225C843.656 237.33 843.814 237.399 844.097 237.537C844.324 237.647 844.505 237.641 844.685 237.696C844.86 237.749 845.047 237.75 845.235 237.791C845.28 237.802 845.33 237.8 845.335 237.796C845.519 237.64 844.691 237.583 844.532 237.55C844.397 237.522 844.216 237.5 844.028 237.458C843.746 237.396 843.574 237.408 843.444 237.35C843.605 237.3 843.831 237.325 843.885 237.362C843.914 237.375 843.947 237.375 843.981 237.375" stroke="#FFCBAE" stroke-width="2" stroke-linecap="round"/>
<path d="M850.431 227.3C850.44 227.316 850.555 227.598 850.693 227.969C850.805 228.269 850.997 228.499 851.2 228.76C851.565 229.228 851.897 229.69 852.121 229.919C852.294 230.095 852.406 230.2 852.51 230.349C852.627 230.517 852.772 230.674 852.877 230.804C852.922 230.86 852.964 230.941 853.072 231.095C853.273 231.381 853.472 231.781 853.61 232.193C853.738 232.578 853.648 232.866 853.586 233.04C853.4 233.564 853.05 233.881 852.828 234.145C852.716 234.278 852.648 234.408 852.516 234.565C852.239 234.894 851.916 235.282 851.646 235.532C851.429 235.732 851.29 235.833 851.009 236.098C850.766 236.326 850.332 236.758 850.053 237.02C849.676 237.375 849.433 237.516 849.187 237.641C848.803 237.836 848.64 237.858 848.515 237.954C848.455 237.999 848.456 238.108 848.473 238.232C848.492 238.381 848.68 238.566 849.041 238.827C849.266 238.991 849.624 239.147 849.935 239.285C850.502 239.539 850.88 239.65 851.088 239.712C851.532 239.845 852.02 240.041 852.343 240.129C852.549 240.185 852.83 240.275 853.138 240.383C853.332 240.451 853.547 240.533 853.78 240.612C854.021 240.694 854.255 240.808 854.661 240.953C854.947 241.055 855.381 241.255 855.697 241.381C856.189 241.578 856.513 241.691 856.812 241.828C857.169 241.992 857.563 242.141 857.933 242.311C858.301 242.481 858.671 242.616 859.276 242.898C859.711 243.1 860.425 243.378 860.91 243.588C861.396 243.799 861.635 243.923 861.907 244.077C862.178 244.232 862.475 244.413 862.826 244.577C863.557 244.917 864.014 245.042 864.081 245.067C864.231 245.123 864.472 245.142 864.822 245.129C865.107 245.119 865.28 244.387 865.406 244.013C865.466 243.837 865.506 243.503 865.535 243.222C865.547 243.109 865.556 242.836 865.569 242.313C865.576 242.004 865.606 241.608 865.66 241.218C865.714 240.829 865.796 240.458 865.88 240.159C866.026 239.64 866.173 239.351 866.256 239.181C866.454 238.773 866.515 238.534 866.515 238.513C866.515 238.491 866.482 238.615 866.044 239.272C865.607 239.929 864.757 241.159 864.27 241.891C863.782 242.623 863.683 242.821 863.599 243.026C863.333 243.676 863.34 243.816 863.307 243.85C863.294 243.863 863.273 243.785 863.273 243.619C863.273 243.453 863.289 243.181 863.541 241.852C863.793 240.524 864.28 238.148 864.531 236.903C864.781 235.659 864.781 235.618 864.777 235.617C864.773 235.616 864.765 235.658 864.398 236.26C864.03 236.863 863.304 238.027 862.782 238.956C862.259 239.885 861.962 240.545 861.776 241.05C861.475 241.868 861.456 242.308 861.481 242.457C861.504 242.594 861.648 242.642 861.772 242.671C861.974 242.718 862.214 242.675 862.809 242.465C863.302 242.29 864.164 241.932 864.68 241.712C865.345 241.429 865.514 241.292 865.573 241.263C865.627 241.235 865.631 241.639 865.524 242.637C865.447 243.351 865.202 244.469 865.075 245.084C864.948 245.699 864.915 245.774 864.869 245.812C864.824 245.85 864.766 245.85 864.728 245.825C864.651 245.775 864.599 245.42 864.503 244.557C864.438 243.978 864.448 243.101 864.584 241.826C864.72 240.55 865.009 238.9 865.207 237.889C865.405 236.878 865.504 236.557 865.559 236.37C865.615 236.184 865.623 236.143 865.623 236.158C865.626 236.543 865.182 237.065 864.958 237.352C864.839 237.504 864.684 237.647 863.519 238.392C862.353 239.137 860.175 240.473 859.041 241.137C857.907 241.801 857.882 241.751 857.869 241.676C857.84 241.504 857.889 241.243 857.989 240.894C858.045 240.699 858.154 240.48 858.399 240.088C858.644 239.697 859.032 239.145 859.809 238.286C860.586 237.428 861.741 236.282 862.357 235.699C862.973 235.117 863.014 235.133 863.056 235.298C863.098 235.464 863.139 235.777 863.148 236.24C863.157 236.702 863.132 237.305 862.958 238.304C862.785 239.303 862.463 240.681 862.248 241.526C861.961 242.652 861.815 242.958 861.786 242.971C861.764 242.98 861.765 242.877 861.88 242.314C861.996 241.752 862.235 240.705 862.366 240.099C862.526 239.363 862.531 239.126 862.457 239.054C862.4 238.999 862.234 239.239 861.774 239.67C861.314 240.101 860.547 240.803 860.123 241.184C859.699 241.566 859.641 241.608 859.607 241.592C859.517 241.549 859.565 241.301 859.606 241.019C859.629 240.859 859.697 240.671 860.077 239.917C860.458 239.163 861.159 237.852 861.532 237.201C861.906 236.55 861.931 236.599 861.948 236.736C861.965 236.873 861.973 237.096 861.94 237.507C861.907 237.919 861.833 238.513 861.795 238.852C861.756 239.191 861.756 239.257 861.69 239.209C861.456 239.036 861.332 238.784 861.282 238.758C861.255 238.745 861.232 238.849 861.174 239.518C861.116 240.187 861.025 241.45 860.97 242.083C860.915 242.717 860.898 242.684 860.877 242.651C860.835 242.582 860.699 242.336 860.462 241.8C860.142 241.076 859.99 240.551 859.895 240.401C859.791 240.239 859.533 240.076 859.188 239.901C858.868 239.739 858.558 239.709 858.222 239.684C857.334 239.618 857.14 239.758 857.082 239.726C856.88 239.613 857.164 239.177 857.503 238.688C857.747 238.337 858.189 237.819 858.897 237.069C859.605 236.318 860.578 235.361 861.1 234.839C861.623 234.317 861.664 234.26 861.693 234.271C861.723 234.283 861.739 234.365 861.715 234.515C861.69 234.665 861.624 234.879 861.108 235.79C860.591 236.701 859.626 238.301 858.931 239.385C858.235 240.47 857.839 240.99 857.375 241.484C856.912 241.979 856.392 242.433 855.98 242.757C855.568 243.082 855.279 243.263 855.118 243.34C854.957 243.417 854.932 243.384 854.911 243.342C854.866 243.254 854.856 242.845 854.931 242.036C854.973 241.576 855.153 241.036 855.453 240.306C855.752 239.576 856.197 238.677 856.963 237.45C857.729 236.224 858.801 234.698 859.407 233.8C860.014 232.902 860.121 232.68 860.168 232.585C860.215 232.491 860.198 232.533 859.522 233.503C858.845 234.473 857.508 236.37 856.482 237.739C855.455 239.109 854.778 239.893 854.467 240.255C854.156 240.618 854.23 240.535 854.379 240.398C854.529 240.26 854.752 240.071 855.485 239.573C856.219 239.075 857.456 238.275 858.11 237.883C858.764 237.491 858.797 237.533 858.827 237.595C858.892 237.735 858.915 238.163 858.915 238.804C858.915 239.106 858.882 239.362 858.824 239.638C858.703 240.209 858.499 240.69 858.353 241.047C858.135 241.582 858.032 241.808 857.99 241.837C857.768 241.994 857.624 241.052 857.386 240.863C857.302 240.796 857.198 240.817 857.144 240.784C856.964 240.673 857.006 240.359 857.019 240.251C857.026 240.184 857.056 240.094 857.609 239.271C858.162 238.449 859.243 236.898 859.812 236.054C860.431 235.135 860.464 234.959 860.523 234.822C860.626 234.577 860.714 234.17 860.698 233.88C860.687 233.677 860.316 233.626 860.024 233.559C859.91 233.532 859.667 233.633 859.041 234.001C858.591 234.265 857.928 234.774 856.784 235.763C855.639 236.752 854.047 238.229 853.119 239.076C852.192 239.923 851.977 240.097 851.854 240.153C851.732 240.209 851.707 240.143 851.723 239.994C851.739 239.844 851.797 239.613 852.095 239.131C852.393 238.649 852.929 237.923 853.976 236.807C855.024 235.69 856.567 234.205 857.357 233.502C858.148 232.799 858.14 232.923 858.057 233.221C857.975 233.52 857.818 233.991 857.56 234.571C857.302 235.152 856.947 235.828 856.657 236.313C856.367 236.797 856.152 237.07 855.683 237.536C855.214 238.002 854.496 238.654 854.023 239.051C853.368 239.602 853.016 239.75 852.804 239.833C852.638 239.898 852.507 239.9 852.403 239.846C852.229 239.756 852.025 239.286 851.68 238.812C851.401 238.429 851.273 238.334 851.24 238.122C851.201 237.881 851.298 237.601 851.443 237.265C851.671 236.737 851.989 236.326 852.234 236.065C852.518 235.76 852.822 235.543 853.079 235.376C853.597 235.042 853.897 235.05 854.077 235C854.263 234.949 854.364 234.668 854.402 234.468C854.453 234.195 854.199 233.91 853.995 233.705C853.713 233.423 853.274 233.21 853.061 233.038C852.913 232.919 852.757 232.95 852.694 232.95C852.65 232.95 852.607 233.049 852.4 233.871C852.193 234.693 851.83 236.26 851.569 237.274C851.308 238.288 851.159 238.7 851.066 238.941C850.907 239.356 850.757 239.541 850.512 239.94C850.339 240.221 850.091 240.466 849.903 240.628C849.838 240.684 849.807 240.651 849.753 240.559C849.609 240.316 849.515 240.035 849.494 239.695C849.46 239.141 849.556 238.652 849.643 238.406C849.727 238.17 849.972 238.01 850.143 237.826C850.208 237.756 850.314 237.568 850.505 237.347C850.631 237.202 850.962 236.919 851.593 236.363C851.953 236.044 852.455 235.724 852.759 235.5C853.181 235.19 853.405 234.984 853.819 234.583C854.125 234.287 854.564 233.744 854.921 233.295C855.279 232.845 855.526 232.491 855.679 232.258C855.975 231.805 855.956 231.37 855.915 231.026C855.899 230.893 855.65 230.677 855.288 230.324C854.562 229.614 854.207 229.584 854.111 229.567C854.066 229.559 854.024 229.583 853.994 229.645C853.919 229.804 853.931 230.098 853.952 230.489C853.977 230.965 854.147 231.407 854.359 231.76C854.577 232.124 854.93 232.357 855.229 232.553C855.375 232.648 855.528 232.707 855.861 232.786C856.193 232.866 856.704 232.957 857.009 233.016C857.398 233.091 857.514 233.133 857.601 233.067C858.013 232.756 857.856 232.137 857.778 231.83C857.72 231.606 857.416 231.484 856.995 231.326C856.849 231.27 856.74 231.284 856.661 231.296C856.538 231.315 856.548 231.591 856.548 231.873C856.548 232.255 856.656 232.657 856.78 233.051C856.926 233.513 857.147 233.882 857.334 234.111C857.632 234.476 858.039 234.45 858.201 234.434C858.258 234.428 858.256 234.384 858.252 234.342C858.24 234.251 858.207 234.159 858.169 234.076C858.156 234.034 858.156 233.993 858.156 233.95" stroke="#FFCBAE" stroke-width="2" stroke-linecap="round"/>
<path d="M1007.4 432.485C1007.4 432.187 1007.27 431.521 1007.12 430.921C1006.91 430.078 1006.94 429.521 1006.79 428.987C1006.63 428.419 1006.4 427.921 1006.3 427.387C1006.2 426.846 1006.1 426.123 1006.02 425.339C1005.94 424.631 1006.1 424.086 1006.32 423.887C1006.8 423.443 1007.37 423.219 1007.9 423.086C1008.9 422.835 1010.4 423.183 1010.88 423.517C1011.4 423.876 1011.6 424.483 1011.9 424.983C1012.2 425.483 1012.4 426.015 1012.65 426.748C1013.09 428.047 1012.87 428.649 1012.92 429.515C1012.95 430.127 1013.17 430.649 1013.15 433.258C1013.15 433.819 1013 433.949 1012.9 434.067C1012.52 434.51 1011.77 434.617 1011.2 434.785C1010.34 435.04 1009.1 434.687 1008.62 434.436C1008.07 434.152 1007.9 433.421 1007.69 432.804C1007.49 432.246 1007.34 431.721 1007.1 431.187C1006.87 430.653 1006.74 430.121 1006.59 429.571C1006.54 429.42 1006.47 429.255 1006.42 429.088C1006.37 428.92 1006.34 428.755 1006.3 428.385" stroke="#492110" stroke-width="2" stroke-linecap="round"/>
<path d="M1009.06 433.035C1008.95 432.969 1008.75 432.703 1008.57 432.395C1008.38 432.09 1008.17 431.803 1007.93 431.354C1007.74 430.992 1007.7 430.703 1007.57 430.436C1007.46 430.188 1007.45 429.87 1007.4 429.578C1007.31 429.088 1007.28 428.354 1007.22 427.837C1007.17 427.339 1007.16 426.772 1007.11 426.378C1007.06 425.954 1007.03 425.42 1007.05 424.904C1007.05 424.737 1007.26 424.686 1007.37 424.594C1007.87 424.176 1009.18 424.617 1009.6 424.793C1009.97 424.944 1010.26 425.383 1010.53 425.734C1010.92 426.243 1011.06 426.7 1011.13 426.984C1011.2 427.267 1011.41 427.583 1011.61 427.934C1011.8 428.298 1011.9 428.717 1011.98 429.009C1012.09 429.407 1012.18 429.7 1012.22 430.15C1012.25 430.491 1012.36 431.279 1012.41 431.883C1012.44 432.312 1012.4 432.651 1012.36 432.784C1012.31 432.923 1012.2 433.018 1012.07 433.093C1011.95 433.166 1011.62 433.235 1011.13 433.21C1010.7 433.188 1010.52 432.753 1010.32 432.536C1010.12 432.319 1009.92 432.02 1009.68 431.612C1009.63 431.52 1009.6 431.453 1009.58 431.757C1009.56 432.062 1009.56 432.738 1009.61 433.103C1009.66 433.468 1009.76 433.501 1009.88 433.427C1010.46 433.063 1010.43 432.553 1010.66 432.154C1011.13 431.302 1010.75 429.921 1010.64 429.404C1010.5 428.735 1010.27 428.287 1010.07 427.754C1009.88 427.271 1009.65 426.92 1009.46 426.661C1009.41 426.603 1009.33 426.602 1009.27 426.618C1008.8 426.748 1008.78 427.899 1008.78 429.645C1008.78 430.242 1008.95 430.567 1009.11 430.752C1009.19 430.855 1009.2 430.238 1009.12 429.516C1008.95 427.834 1008.65 427.09 1008.52 426.595C1008.44 426.267 1008.36 425.705 1008.53 425.502C1009.62 424.156 1009.6 427.417 1009.66 427.692C1009.67 427.766 1009.66 427.85 1009.63 427.851C1009.33 427.863 1009.3 427.287 1009.18 426.563C1009.14 426.323 1009.2 426.07 1009.27 425.787C1009.37 425.433 1009.66 425.319 1009.77 425.26C1009.83 425.268 1009.9 425.35 1009.94 425.434C1009.98 425.518 1010 425.6 1010.01 425.785" stroke="#492110" stroke-width="2" stroke-linecap="round"/>
<path d="M993.675 402.462C993.675 402.438 993.642 402.271 993.575 402.138C993.509 402.004 993.459 401.871 993.404 401.738C993.349 401.602 993.334 401.446 993.3 401.313C993.267 401.179 993.25 401.046 993.225 400.913C993.2 400.779 993.167 400.646 993.129 400.509C993.086 400.351 993.026 400.13 992.975 399.942C992.931 399.778 992.859 399.58 992.804 399.392C992.757 399.23 992.709 399.096 992.654 398.959C992.586 398.785 992.484 398.497 992.396 398.288C992.329 398.128 992.292 397.996 992.229 397.859C992.163 397.712 992.134 397.571 992.079 397.413C992.024 397.251 992.025 397.08 992.004 396.905C991.968 396.598 991.975 396.413 991.996 396.226C992.021 395.997 992.05 395.78 992.096 395.588C992.135 395.422 992.167 395.271 992.204 395.117C992.239 394.973 992.292 394.846 992.362 394.709C992.447 394.544 992.541 394.247 992.641 394.063C992.732 393.896 992.866 393.605 992.975 393.405C993.097 393.179 993.216 392.971 993.333 392.834C993.469 392.674 993.591 392.563 993.725 392.463C993.858 392.363 994.024 392.263 994.22 392.188C994.392 392.122 994.558 392.038 994.729 391.979C994.913 391.916 995.058 391.854 995.22 391.792C995.356 391.74 995.491 391.712 995.645 391.683C995.791 391.656 995.933 391.596 996.141 391.579C996.235 391.572 996.316 391.529 996.399 391.508C996.485 391.487 997.07 391.462 997.94 391.471C998.624 391.477 999.041 391.529 999.208 391.558C999.431 391.597 999.616 391.637 999.75 391.683C999.89 391.731 1000.16 391.845 1000.43 391.966C1000.68 392.078 1000.87 392.187 1001.05 392.266C1001.22 392.343 1001.39 392.478 1001.57 392.637C1001.86 392.879 1001.95 393.037 1002.06 393.174C1002.16 393.304 1002.31 393.42 1002.45 393.562C1002.56 393.679 1002.67 393.836 1002.79 394.074C1002.88 394.249 1002.96 394.42 1003.05 394.628C1003.12 394.799 1003.19 394.928 1003.27 395.095C1003.38 395.302 1003.47 395.503 1003.57 395.666C1003.66 395.81 1003.7 395.986 1003.77 396.183C1003.85 396.384 1003.98 396.578 1004.03 396.712C1004.09 396.9 1004.26 397.103 1004.33 397.253C1004.44 397.474 1004.53 397.603 1004.62 397.737C1004.71 397.867 1004.78 398.003 1004.85 398.158C1004.9 398.295 1004.98 398.428 1005.03 398.591C1005.08 398.781 1005.16 398.928 1005.2 399.062C1005.25 399.201 1005.32 399.328 1005.37 399.466C1005.43 399.616 1005.5 399.786 1005.55 399.937C1005.58 400.003 1005.62 400.062 1005.67 400.116C1005.69 400.145 1005.71 400.178 1005.73 400.212" stroke="#FFCBAE" stroke-width="2" stroke-linecap="round"/>
<path d="M993.787 402.35C993.787 402.276 993.771 402.109 993.717 401.971C993.655 401.814 993.604 401.643 993.579 401.496C993.552 401.336 993.496 401.193 993.463 401.046C993.425 400.883 993.387 400.718 993.342 400.576C993.299 400.443 993.271 400.309 993.221 400.176C993.171 400.041 993.146 399.884 993.096 399.73C993.052 399.595 992.996 399.443 992.904 399.089C992.853 398.889 992.829 398.734 992.808 398.572C992.783 398.375 992.729 398.176 992.688 398.001C992.64 397.802 992.579 397.485 992.538 397.272C992.501 397.084 992.471 396.918 992.458 396.485C992.444 395.987 992.454 395.234 992.487 395.101C992.523 394.959 992.554 394.809 992.616 394.642C992.696 394.43 992.754 394.284 992.833 394.13C992.904 393.992 992.987 393.859 993.07 393.721C993.168 393.561 993.287 393.459 993.379 393.317C993.513 393.109 993.662 393.001 993.783 392.921C993.902 392.843 994.061 392.751 994.258 392.659C994.417 392.584 994.611 392.551 994.803 392.475C994.946 392.419 995.128 392.367 995.287 392.325C995.43 392.288 995.578 392.234 995.716 392.179C995.862 392.122 996.02 392.117 996.187 392.075C996.582 391.976 997.228 392.034 997.74 392.029C997.997 392.027 998.31 392.075 998.628 392.121C998.926 392.163 999.228 392.183 999.374 392.221C999.573 392.272 999.761 392.308 999.933 392.354C1000.13 392.408 1000.38 392.492 1000.51 392.529C1000.65 392.568 1000.75 392.683 1000.89 392.779C1001.05 392.887 1001.2 393.033 1001.65 393.465C1001.83 393.637 1001.93 393.783 1002.05 393.949C1002.18 394.143 1002.34 394.366 1002.52 394.612C1002.65 394.791 1002.77 394.941 1002.9 395.158C1003 395.31 1003.1 395.433 1003.19 395.575C1003.28 395.715 1003.42 395.907 1003.54 396.091C1003.62 396.221 1003.72 396.341 1003.82 396.499C1003.92 396.674 1004.03 396.808 1004.13 396.97C1004.23 397.116 1004.32 397.241 1004.39 397.416C1004.46 397.594 1004.55 397.808 1004.66 398.111C1004.75 398.372 1004.81 398.541 1004.87 398.704C1004.94 398.89 1005.02 399.016 1005.11 399.15C1005.19 399.273 1005.27 399.391 1005.36 399.57C1005.43 399.733 1005.48 399.833 1005.51 399.904C1005.53 399.941 1005.55 399.983 1005.59 400.075" stroke="#FFCBAE" stroke-width="2" stroke-linecap="round"/>
<path d="M973.825 361.213C973.85 361.271 973.933 361.404 974.021 361.537C974.102 361.661 974.167 361.779 974.208 361.912C974.256 362.065 974.317 362.204 974.379 362.341C974.454 362.506 974.508 362.67 974.579 362.812C974.667 362.988 974.8 363.179 974.879 363.316C974.971 363.476 975.05 363.612 975.108 363.741C975.184 363.908 975.275 364.07 975.329 364.212C975.394 364.381 975.533 364.57 975.633 364.741C975.789 365.008 975.85 365.154 975.929 365.291C976.021 365.451 976.1 365.62 976.233 365.824C976.517 366.26 976.583 366.404 976.675 366.537C976.776 366.684 976.9 366.845 976.987 367.012C977.085 367.199 977.282 367.395 977.433 367.587C977.568 367.759 977.708 367.854 977.796 367.966C977.893 368.092 977.991 368.237 978.096 368.387C978.197 368.532 978.275 368.712 978.404 368.87C978.552 369.052 978.716 369.253 978.891 369.408C979.009 369.512 979.158 369.645 979.316 369.783C979.426 369.879 979.566 369.954 979.7 370.037C979.857 370.136 980.083 370.221 980.249 370.287C980.414 370.353 980.583 370.379 980.745 370.412C980.89 370.442 981.058 370.454 981.224 370.483C981.39 370.512 981.69 370.538 982.223 370.6C982.978 370.688 983.116 370.555 983.283 370.488C983.488 370.405 983.641 370.346 983.866 370.288C984.078 370.233 984.274 370.155 984.487 370.05C984.709 369.941 985.082 369.755 985.32 369.634C985.534 369.525 985.716 369.33 985.87 369.234C985.996 369.155 986.1 369.022 986.204 368.888C986.315 368.746 986.408 368.622 986.496 368.488C986.577 368.364 986.642 368.23 986.725 368.059C986.824 367.854 986.908 367.672 986.971 367.517C987.029 367.373 987.092 367.205 987.195 366.777C987.326 366.24 987.292 365.897 987.304 365.585C987.309 365.463 987.325 365.198 987.329 364.852C987.331 364.68 987.35 364.167 987.346 363.43C987.344 363.004 987.3 362.772 987.254 362.547C987.22 362.379 987.184 362.23 987.146 362.08C987.101 361.899 987.034 361.772 986.979 361.634C986.92 361.484 986.884 361.347 986.788 361.13C986.708 360.95 986.617 360.73 986.534 360.588C986.463 360.467 986.426 360.338 986.355 360.159C986.223 359.828 986.117 359.639 986.034 359.447C985.959 359.275 985.851 359.039 985.73 358.759C985.632 358.535 985.542 358.322 985.446 358.138C985.335 357.925 985.242 357.747 985.171 357.588C985.091 357.409 984.951 357.206 984.842 357.009C984.731 356.807 984.609 356.672 984.5 356.534C984.389 356.393 984.326 356.247 984.188 356.113C984.06 355.989 983.976 355.813 983.855 355.655C983.65 355.455 983.518 355.305 983.4 355.122C983.375 355.08 983.351 355.047 983.325 355.013" stroke="#FFCBAE" stroke-width="2" stroke-linecap="round"/>
<path d="M982.694 353.331C982.718 353.389 982.802 353.522 982.897 353.656C983.002 353.802 983.118 353.906 983.214 354.031C983.305 354.148 983.36 354.239 983.373 354.277C983.405 354.374 983.153 354.19 983.065 354.086C983.042 354.058 983.019 354.032 983.011 354.04C983.043 354.181 983.127 354.347 983.173 354.481C983.185 354.514 983.202 354.547 983.244 354.581" stroke="#FFCBAE" stroke-width="2" stroke-linecap="round"/>
<path d="M988.794 366.581C988.794 366.705 988.761 367.088 988.74 367.617C988.73 367.865 988.702 368.047 988.673 368.193C988.634 368.386 988.619 368.555 988.556 368.76C988.491 368.973 988.477 369.18 988.465 369.331C988.453 369.467 988.402 369.63 988.361 369.826C988.312 370.056 988.161 370.322 988.077 370.526C988.002 370.711 987.845 370.93 987.657 371.16C987.439 371.425 986.689 371.755 986.349 371.926C985.853 372.177 985.57 372.239 985.237 372.364C984.984 372.459 984.613 372.572 984.332 372.673C984.08 372.763 983.754 372.756 983.109 372.818C982.588 372.869 982.354 372.757 982.157 372.681C981.954 372.604 981.786 372.523 981.615 372.469C981.337 372.381 981.086 372.248 981.032 372.219C981.006 372.205 981.002 372.165 981.014 372.14C981.083 371.999 981.384 372.031 981.564 372.002C981.718 371.977 981.86 371.931 982.263 371.869C982.484 371.835 982.767 371.806 983.005 371.744C983.21 371.691 983.658 371.524 983.984 371.394C984.252 371.288 984.609 371.157 984.768 371.123C984.914 371.092 985.051 370.99 985.251 370.923C985.549 370.824 985.826 370.707 985.985 370.607C986.202 370.469 986.368 370.382 986.58 370.212C987.196 369.716 987.243 369.557 987.339 369.361C987.394 369.173 987.41 369.04 987.439 368.857C987.46 368.774 987.501 368.642 987.544 368.506" stroke="#FFCBAE" stroke-width="2" stroke-linecap="round"/>
</svg>
